%TF.GenerationSoftware,KiCad,Pcbnew,5.1.7-a382d34a8~87~ubuntu20.04.1*%
%TF.CreationDate,2020-11-05T15:25:51-03:00*%
%TF.ProjectId,Power_Suply,506f7765-725f-4537-9570-6c792e6b6963,1*%
%TF.SameCoordinates,Original*%
%TF.FileFunction,Soldermask,Top*%
%TF.FilePolarity,Negative*%
%FSLAX46Y46*%
G04 Gerber Fmt 4.6, Leading zero omitted, Abs format (unit mm)*
G04 Created by KiCad (PCBNEW 5.1.7-a382d34a8~87~ubuntu20.04.1) date 2020-11-05 15:25:51*
%MOMM*%
%LPD*%
G01*
G04 APERTURE LIST*
%ADD10R,2.000000X2.000000*%
%ADD11C,2.000000*%
%ADD12R,1.600000X1.600000*%
%ADD13C,1.600000*%
%ADD14O,2.200000X2.200000*%
%ADD15R,2.200000X2.200000*%
%ADD16R,1.800000X1.800000*%
%ADD17C,1.800000*%
%ADD18R,2.600000X2.600000*%
%ADD19C,2.600000*%
%ADD20R,1.700000X1.700000*%
%ADD21O,1.700000X1.700000*%
%ADD22O,1.600000X1.600000*%
%ADD23R,1.900000X1.900000*%
%ADD24C,1.900000*%
%ADD25R,1.905000X2.000000*%
%ADD26O,1.905000X2.000000*%
G04 APERTURE END LIST*
D10*
%TO.C,C1*%
X53975000Y-70358000D03*
D11*
X58975000Y-70358000D03*
%TD*%
D12*
%TO.C,C2*%
X65151000Y-68326000D03*
D13*
X67651000Y-68326000D03*
%TD*%
D14*
%TO.C,D1*%
X63754000Y-95250000D03*
D15*
X53594000Y-95250000D03*
%TD*%
D14*
%TO.C,D2*%
X63754000Y-87630000D03*
D15*
X53594000Y-87630000D03*
%TD*%
%TO.C,D3*%
X53594000Y-99060000D03*
D14*
X63754000Y-99060000D03*
%TD*%
D15*
%TO.C,D4*%
X53594000Y-91440000D03*
D14*
X63754000Y-91440000D03*
%TD*%
D16*
%TO.C,D5*%
X69469000Y-99441000D03*
D17*
X72009000Y-99441000D03*
%TD*%
%TO.C,D6*%
X72009000Y-77851000D03*
D16*
X69469000Y-77851000D03*
%TD*%
D18*
%TO.C,J1*%
X65024000Y-110236000D03*
D19*
X59024000Y-110236000D03*
X62024000Y-114936000D03*
%TD*%
D20*
%TO.C,J2*%
X76327000Y-66675000D03*
D21*
X78867000Y-66675000D03*
X76327000Y-69215000D03*
X78867000Y-69215000D03*
%TD*%
%TO.C,J3*%
X78867000Y-114173000D03*
X76327000Y-114173000D03*
X78867000Y-111633000D03*
D20*
X76327000Y-111633000D03*
%TD*%
D13*
%TO.C,R1*%
X70866000Y-113665000D03*
D22*
X70866000Y-106045000D03*
%TD*%
%TO.C,R2*%
X64516000Y-76200000D03*
D13*
X64516000Y-83820000D03*
%TD*%
D23*
%TO.C,SW1*%
X70485000Y-91026000D03*
D24*
X70485000Y-88526000D03*
X70485000Y-86026000D03*
%TD*%
D25*
%TO.C,U1*%
X54102000Y-80645000D03*
D26*
X56642000Y-80645000D03*
X59182000Y-80645000D03*
%TD*%
M02*
