%TF.GenerationSoftware,KiCad,Pcbnew,5.1.7-a382d34a8~87~ubuntu20.04.1*%
%TF.CreationDate,2020-11-05T15:25:51-03:00*%
%TF.ProjectId,Power_Suply,506f7765-725f-4537-9570-6c792e6b6963,1*%
%TF.SameCoordinates,Original*%
%TF.FileFunction,Legend,Bot*%
%TF.FilePolarity,Positive*%
%FSLAX46Y46*%
G04 Gerber Fmt 4.6, Leading zero omitted, Abs format (unit mm)*
G04 Created by KiCad (PCBNEW 5.1.7-a382d34a8~87~ubuntu20.04.1) date 2020-11-05 15:25:51*
%MOMM*%
%LPD*%
G01*
G04 APERTURE LIST*
%ADD10C,0.150000*%
%ADD11C,0.120000*%
%ADD12C,0.250000*%
%ADD13C,0.010000*%
G04 APERTURE END LIST*
D10*
X61532023Y-121880380D02*
X62151071Y-121880380D01*
X61817738Y-122261333D01*
X61960595Y-122261333D01*
X62055833Y-122308952D01*
X62103452Y-122356571D01*
X62151071Y-122451809D01*
X62151071Y-122689904D01*
X62103452Y-122785142D01*
X62055833Y-122832761D01*
X61960595Y-122880380D01*
X61674880Y-122880380D01*
X61579642Y-122832761D01*
X61532023Y-122785142D01*
X62770119Y-121880380D02*
X62865357Y-121880380D01*
X62960595Y-121928000D01*
X63008214Y-121975619D01*
X63055833Y-122070857D01*
X63103452Y-122261333D01*
X63103452Y-122499428D01*
X63055833Y-122689904D01*
X63008214Y-122785142D01*
X62960595Y-122832761D01*
X62865357Y-122880380D01*
X62770119Y-122880380D01*
X62674880Y-122832761D01*
X62627261Y-122785142D01*
X62579642Y-122689904D01*
X62532023Y-122499428D01*
X62532023Y-122261333D01*
X62579642Y-122070857D01*
X62627261Y-121975619D01*
X62674880Y-121928000D01*
X62770119Y-121880380D01*
X63532023Y-122785142D02*
X63579642Y-122832761D01*
X63532023Y-122880380D01*
X63484404Y-122832761D01*
X63532023Y-122785142D01*
X63532023Y-122880380D01*
X64198690Y-121880380D02*
X64293928Y-121880380D01*
X64389166Y-121928000D01*
X64436785Y-121975619D01*
X64484404Y-122070857D01*
X64532023Y-122261333D01*
X64532023Y-122499428D01*
X64484404Y-122689904D01*
X64436785Y-122785142D01*
X64389166Y-122832761D01*
X64293928Y-122880380D01*
X64198690Y-122880380D01*
X64103452Y-122832761D01*
X64055833Y-122785142D01*
X64008214Y-122689904D01*
X63960595Y-122499428D01*
X63960595Y-122261333D01*
X64008214Y-122070857D01*
X64055833Y-121975619D01*
X64103452Y-121928000D01*
X64198690Y-121880380D01*
X65008214Y-122880380D02*
X65198690Y-122880380D01*
X65293928Y-122832761D01*
X65341547Y-122785142D01*
X65436785Y-122642285D01*
X65484404Y-122451809D01*
X65484404Y-122070857D01*
X65436785Y-121975619D01*
X65389166Y-121928000D01*
X65293928Y-121880380D01*
X65103452Y-121880380D01*
X65008214Y-121928000D01*
X64960595Y-121975619D01*
X64912976Y-122070857D01*
X64912976Y-122308952D01*
X64960595Y-122404190D01*
X65008214Y-122451809D01*
X65103452Y-122499428D01*
X65293928Y-122499428D01*
X65389166Y-122451809D01*
X65436785Y-122404190D01*
X65484404Y-122308952D01*
X65960595Y-122880380D02*
X66151071Y-122880380D01*
X66246309Y-122832761D01*
X66293928Y-122785142D01*
X66389166Y-122642285D01*
X66436785Y-122451809D01*
X66436785Y-122070857D01*
X66389166Y-121975619D01*
X66341547Y-121928000D01*
X66246309Y-121880380D01*
X66055833Y-121880380D01*
X65960595Y-121928000D01*
X65912976Y-121975619D01*
X65865357Y-122070857D01*
X65865357Y-122308952D01*
X65912976Y-122404190D01*
X65960595Y-122451809D01*
X66055833Y-122499428D01*
X66246309Y-122499428D01*
X66341547Y-122451809D01*
X66389166Y-122404190D01*
X66436785Y-122308952D01*
X67627261Y-122880380D02*
X67627261Y-122213714D01*
X67627261Y-122308952D02*
X67674880Y-122261333D01*
X67770119Y-122213714D01*
X67912976Y-122213714D01*
X68008214Y-122261333D01*
X68055833Y-122356571D01*
X68055833Y-122880380D01*
X68055833Y-122356571D02*
X68103452Y-122261333D01*
X68198690Y-122213714D01*
X68341547Y-122213714D01*
X68436785Y-122261333D01*
X68484404Y-122356571D01*
X68484404Y-122880380D01*
X68960595Y-122880380D02*
X68960595Y-122213714D01*
X68960595Y-122308952D02*
X69008214Y-122261333D01*
X69103452Y-122213714D01*
X69246309Y-122213714D01*
X69341547Y-122261333D01*
X69389166Y-122356571D01*
X69389166Y-122880380D01*
X69389166Y-122356571D02*
X69436785Y-122261333D01*
X69532023Y-122213714D01*
X69674880Y-122213714D01*
X69770119Y-122261333D01*
X69817738Y-122356571D01*
X69817738Y-122880380D01*
D11*
X50673000Y-121158000D02*
X80772000Y-121158000D01*
X50673000Y-116713000D02*
X50673000Y-121744421D01*
X80772000Y-116713000D02*
X80772000Y-121744421D01*
X80772000Y-121158000D02*
X79645496Y-121744421D01*
X80772000Y-121158000D02*
X79645496Y-120571579D01*
X50673000Y-121158000D02*
X51799504Y-121744421D01*
X50673000Y-121158000D02*
X51799504Y-120571579D01*
D10*
X89368380Y-94931976D02*
X89368380Y-94312928D01*
X89749333Y-94646261D01*
X89749333Y-94503404D01*
X89796952Y-94408166D01*
X89844571Y-94360547D01*
X89939809Y-94312928D01*
X90177904Y-94312928D01*
X90273142Y-94360547D01*
X90320761Y-94408166D01*
X90368380Y-94503404D01*
X90368380Y-94789119D01*
X90320761Y-94884357D01*
X90273142Y-94931976D01*
X89368380Y-93979595D02*
X89368380Y-93312928D01*
X90368380Y-93741500D01*
X90273142Y-92931976D02*
X90320761Y-92884357D01*
X90368380Y-92931976D01*
X90320761Y-92979595D01*
X90273142Y-92931976D01*
X90368380Y-92931976D01*
X90368380Y-92408166D02*
X90368380Y-92217690D01*
X90320761Y-92122452D01*
X90273142Y-92074833D01*
X90130285Y-91979595D01*
X89939809Y-91931976D01*
X89558857Y-91931976D01*
X89463619Y-91979595D01*
X89416000Y-92027214D01*
X89368380Y-92122452D01*
X89368380Y-92312928D01*
X89416000Y-92408166D01*
X89463619Y-92455785D01*
X89558857Y-92503404D01*
X89796952Y-92503404D01*
X89892190Y-92455785D01*
X89939809Y-92408166D01*
X89987428Y-92312928D01*
X89987428Y-92122452D01*
X89939809Y-92027214D01*
X89892190Y-91979595D01*
X89796952Y-91931976D01*
X89368380Y-91598642D02*
X89368380Y-90931976D01*
X90368380Y-91360547D01*
X89368380Y-90646261D02*
X89368380Y-90027214D01*
X89749333Y-90360547D01*
X89749333Y-90217690D01*
X89796952Y-90122452D01*
X89844571Y-90074833D01*
X89939809Y-90027214D01*
X90177904Y-90027214D01*
X90273142Y-90074833D01*
X90320761Y-90122452D01*
X90368380Y-90217690D01*
X90368380Y-90503404D01*
X90320761Y-90598642D01*
X90273142Y-90646261D01*
X90368380Y-88836738D02*
X89701714Y-88836738D01*
X89796952Y-88836738D02*
X89749333Y-88789119D01*
X89701714Y-88693880D01*
X89701714Y-88551023D01*
X89749333Y-88455785D01*
X89844571Y-88408166D01*
X90368380Y-88408166D01*
X89844571Y-88408166D02*
X89749333Y-88360547D01*
X89701714Y-88265309D01*
X89701714Y-88122452D01*
X89749333Y-88027214D01*
X89844571Y-87979595D01*
X90368380Y-87979595D01*
X90368380Y-87503404D02*
X89701714Y-87503404D01*
X89796952Y-87503404D02*
X89749333Y-87455785D01*
X89701714Y-87360547D01*
X89701714Y-87217690D01*
X89749333Y-87122452D01*
X89844571Y-87074833D01*
X90368380Y-87074833D01*
X89844571Y-87074833D02*
X89749333Y-87027214D01*
X89701714Y-86931976D01*
X89701714Y-86789119D01*
X89749333Y-86693880D01*
X89844571Y-86646261D01*
X90368380Y-86646261D01*
D11*
X88646000Y-109728000D02*
X88646000Y-71755000D01*
X80772000Y-109728000D02*
X89232421Y-109728000D01*
X80772000Y-71755000D02*
X89232421Y-71755000D01*
X88646000Y-71755000D02*
X89232421Y-72881504D01*
X88646000Y-71755000D02*
X88059579Y-72881504D01*
X88646000Y-109728000D02*
X89232421Y-108601496D01*
X88646000Y-109728000D02*
X88059579Y-108601496D01*
D10*
X83907380Y-71786285D02*
X83907380Y-71119619D01*
X84907380Y-71548190D01*
X84812142Y-70738666D02*
X84859761Y-70691047D01*
X84907380Y-70738666D01*
X84859761Y-70786285D01*
X84812142Y-70738666D01*
X84907380Y-70738666D01*
X83907380Y-70357714D02*
X83907380Y-69738666D01*
X84288333Y-70072000D01*
X84288333Y-69929142D01*
X84335952Y-69833904D01*
X84383571Y-69786285D01*
X84478809Y-69738666D01*
X84716904Y-69738666D01*
X84812142Y-69786285D01*
X84859761Y-69833904D01*
X84907380Y-69929142D01*
X84907380Y-70214857D01*
X84859761Y-70310095D01*
X84812142Y-70357714D01*
X83907380Y-68881523D02*
X83907380Y-69072000D01*
X83955000Y-69167238D01*
X84002619Y-69214857D01*
X84145476Y-69310095D01*
X84335952Y-69357714D01*
X84716904Y-69357714D01*
X84812142Y-69310095D01*
X84859761Y-69262476D01*
X84907380Y-69167238D01*
X84907380Y-68976761D01*
X84859761Y-68881523D01*
X84812142Y-68833904D01*
X84716904Y-68786285D01*
X84478809Y-68786285D01*
X84383571Y-68833904D01*
X84335952Y-68881523D01*
X84288333Y-68976761D01*
X84288333Y-69167238D01*
X84335952Y-69262476D01*
X84383571Y-69310095D01*
X84478809Y-69357714D01*
X83907380Y-67929142D02*
X83907380Y-68119619D01*
X83955000Y-68214857D01*
X84002619Y-68262476D01*
X84145476Y-68357714D01*
X84335952Y-68405333D01*
X84716904Y-68405333D01*
X84812142Y-68357714D01*
X84859761Y-68310095D01*
X84907380Y-68214857D01*
X84907380Y-68024380D01*
X84859761Y-67929142D01*
X84812142Y-67881523D01*
X84716904Y-67833904D01*
X84478809Y-67833904D01*
X84383571Y-67881523D01*
X84335952Y-67929142D01*
X84288333Y-68024380D01*
X84288333Y-68214857D01*
X84335952Y-68310095D01*
X84383571Y-68357714D01*
X84478809Y-68405333D01*
X84907380Y-66643428D02*
X84240714Y-66643428D01*
X84335952Y-66643428D02*
X84288333Y-66595809D01*
X84240714Y-66500571D01*
X84240714Y-66357714D01*
X84288333Y-66262476D01*
X84383571Y-66214857D01*
X84907380Y-66214857D01*
X84383571Y-66214857D02*
X84288333Y-66167238D01*
X84240714Y-66072000D01*
X84240714Y-65929142D01*
X84288333Y-65833904D01*
X84383571Y-65786285D01*
X84907380Y-65786285D01*
X84907380Y-65310095D02*
X84240714Y-65310095D01*
X84335952Y-65310095D02*
X84288333Y-65262476D01*
X84240714Y-65167238D01*
X84240714Y-65024380D01*
X84288333Y-64929142D01*
X84383571Y-64881523D01*
X84907380Y-64881523D01*
X84383571Y-64881523D02*
X84288333Y-64833904D01*
X84240714Y-64738666D01*
X84240714Y-64595809D01*
X84288333Y-64500571D01*
X84383571Y-64452952D01*
X84907380Y-64452952D01*
D11*
X83185000Y-71755000D02*
X83185000Y-64389000D01*
X80772000Y-71755000D02*
X83771421Y-71755000D01*
X80772000Y-64389000D02*
X83771421Y-64389000D01*
X83185000Y-64389000D02*
X83771421Y-65515504D01*
X83185000Y-64389000D02*
X82598579Y-65515504D01*
X83185000Y-71755000D02*
X83771421Y-70628496D01*
X83185000Y-71755000D02*
X82598579Y-70628496D01*
D10*
X94702380Y-94170047D02*
X94702380Y-94646238D01*
X95178571Y-94693857D01*
X95130952Y-94646238D01*
X95083333Y-94551000D01*
X95083333Y-94312904D01*
X95130952Y-94217666D01*
X95178571Y-94170047D01*
X95273809Y-94122428D01*
X95511904Y-94122428D01*
X95607142Y-94170047D01*
X95654761Y-94217666D01*
X95702380Y-94312904D01*
X95702380Y-94551000D01*
X95654761Y-94646238D01*
X95607142Y-94693857D01*
X94797619Y-93741476D02*
X94750000Y-93693857D01*
X94702380Y-93598619D01*
X94702380Y-93360523D01*
X94750000Y-93265285D01*
X94797619Y-93217666D01*
X94892857Y-93170047D01*
X94988095Y-93170047D01*
X95130952Y-93217666D01*
X95702380Y-93789095D01*
X95702380Y-93170047D01*
X95607142Y-92741476D02*
X95654761Y-92693857D01*
X95702380Y-92741476D01*
X95654761Y-92789095D01*
X95607142Y-92741476D01*
X95702380Y-92741476D01*
X94702380Y-92360523D02*
X94702380Y-91741476D01*
X95083333Y-92074809D01*
X95083333Y-91931952D01*
X95130952Y-91836714D01*
X95178571Y-91789095D01*
X95273809Y-91741476D01*
X95511904Y-91741476D01*
X95607142Y-91789095D01*
X95654761Y-91836714D01*
X95702380Y-91931952D01*
X95702380Y-92217666D01*
X95654761Y-92312904D01*
X95607142Y-92360523D01*
X94797619Y-91360523D02*
X94750000Y-91312904D01*
X94702380Y-91217666D01*
X94702380Y-90979571D01*
X94750000Y-90884333D01*
X94797619Y-90836714D01*
X94892857Y-90789095D01*
X94988095Y-90789095D01*
X95130952Y-90836714D01*
X95702380Y-91408142D01*
X95702380Y-90789095D01*
X95035714Y-89931952D02*
X95702380Y-89931952D01*
X94654761Y-90170047D02*
X95369047Y-90408142D01*
X95369047Y-89789095D01*
X95702380Y-88646238D02*
X95035714Y-88646238D01*
X95130952Y-88646238D02*
X95083333Y-88598619D01*
X95035714Y-88503380D01*
X95035714Y-88360523D01*
X95083333Y-88265285D01*
X95178571Y-88217666D01*
X95702380Y-88217666D01*
X95178571Y-88217666D02*
X95083333Y-88170047D01*
X95035714Y-88074809D01*
X95035714Y-87931952D01*
X95083333Y-87836714D01*
X95178571Y-87789095D01*
X95702380Y-87789095D01*
X95702380Y-87312904D02*
X95035714Y-87312904D01*
X95130952Y-87312904D02*
X95083333Y-87265285D01*
X95035714Y-87170047D01*
X95035714Y-87027190D01*
X95083333Y-86931952D01*
X95178571Y-86884333D01*
X95702380Y-86884333D01*
X95178571Y-86884333D02*
X95083333Y-86836714D01*
X95035714Y-86741476D01*
X95035714Y-86598619D01*
X95083333Y-86503380D01*
X95178571Y-86455761D01*
X95702380Y-86455761D01*
D11*
X93980000Y-116713000D02*
X93980000Y-64389000D01*
X80772000Y-116713000D02*
X94566421Y-116713000D01*
X80772000Y-64389000D02*
X94566421Y-64389000D01*
X93980000Y-64389000D02*
X94566421Y-65515504D01*
X93980000Y-64389000D02*
X93393579Y-65515504D01*
X93980000Y-116713000D02*
X94566421Y-115586496D01*
X93980000Y-116713000D02*
X93393579Y-115586496D01*
D12*
X66698761Y-86186571D02*
X66746380Y-86281809D01*
X66746380Y-86472285D01*
X66698761Y-86567523D01*
X66603523Y-86615142D01*
X66555904Y-86615142D01*
X66460666Y-86567523D01*
X66413047Y-86472285D01*
X66413047Y-86329428D01*
X66365428Y-86234190D01*
X66270190Y-86186571D01*
X66222571Y-86186571D01*
X66127333Y-86234190D01*
X66079714Y-86329428D01*
X66079714Y-86472285D01*
X66127333Y-86567523D01*
X66746380Y-87043714D02*
X66079714Y-87043714D01*
X65746380Y-87043714D02*
X65794000Y-86996095D01*
X65841619Y-87043714D01*
X65794000Y-87091333D01*
X65746380Y-87043714D01*
X65841619Y-87043714D01*
X66746380Y-87519904D02*
X66079714Y-87519904D01*
X66174952Y-87519904D02*
X66127333Y-87567523D01*
X66079714Y-87662761D01*
X66079714Y-87805619D01*
X66127333Y-87900857D01*
X66222571Y-87948476D01*
X66746380Y-87948476D01*
X66222571Y-87948476D02*
X66127333Y-87996095D01*
X66079714Y-88091333D01*
X66079714Y-88234190D01*
X66127333Y-88329428D01*
X66222571Y-88377047D01*
X66746380Y-88377047D01*
X66746380Y-88996095D02*
X66698761Y-88900857D01*
X66651142Y-88853238D01*
X66555904Y-88805619D01*
X66270190Y-88805619D01*
X66174952Y-88853238D01*
X66127333Y-88900857D01*
X66079714Y-88996095D01*
X66079714Y-89138952D01*
X66127333Y-89234190D01*
X66174952Y-89281809D01*
X66270190Y-89329428D01*
X66555904Y-89329428D01*
X66651142Y-89281809D01*
X66698761Y-89234190D01*
X66746380Y-89138952D01*
X66746380Y-88996095D01*
X66079714Y-89758000D02*
X66746380Y-89758000D01*
X66174952Y-89758000D02*
X66127333Y-89805619D01*
X66079714Y-89900857D01*
X66079714Y-90043714D01*
X66127333Y-90138952D01*
X66222571Y-90186571D01*
X66746380Y-90186571D01*
X66079714Y-90662761D02*
X66936857Y-90662761D01*
X67032095Y-90615142D01*
X67079714Y-90519904D01*
X67079714Y-90472285D01*
X65746380Y-90662761D02*
X65794000Y-90615142D01*
X65841619Y-90662761D01*
X65794000Y-90710380D01*
X65746380Y-90662761D01*
X65841619Y-90662761D01*
X66746380Y-91567523D02*
X66222571Y-91567523D01*
X66127333Y-91519904D01*
X66079714Y-91424666D01*
X66079714Y-91234190D01*
X66127333Y-91138952D01*
X66698761Y-91567523D02*
X66746380Y-91472285D01*
X66746380Y-91234190D01*
X66698761Y-91138952D01*
X66603523Y-91091333D01*
X66508285Y-91091333D01*
X66413047Y-91138952D01*
X66365428Y-91234190D01*
X66365428Y-91472285D01*
X66317809Y-91567523D01*
X66746380Y-92186571D02*
X66698761Y-92091333D01*
X66603523Y-92043714D01*
X65746380Y-92043714D01*
X66746380Y-92567523D02*
X66079714Y-92567523D01*
X65746380Y-92567523D02*
X65794000Y-92519904D01*
X65841619Y-92567523D01*
X65794000Y-92615142D01*
X65746380Y-92567523D01*
X65841619Y-92567523D01*
X66746380Y-93186571D02*
X66698761Y-93091333D01*
X66603523Y-93043714D01*
X65746380Y-93043714D01*
X66698761Y-93996095D02*
X66746380Y-93900857D01*
X66746380Y-93710380D01*
X66698761Y-93615142D01*
X66651142Y-93567523D01*
X66555904Y-93519904D01*
X66270190Y-93519904D01*
X66174952Y-93567523D01*
X66127333Y-93615142D01*
X66079714Y-93710380D01*
X66079714Y-93900857D01*
X66127333Y-93996095D01*
X66746380Y-94424666D02*
X66079714Y-94424666D01*
X66270190Y-94424666D02*
X66174952Y-94472285D01*
X66127333Y-94519904D01*
X66079714Y-94615142D01*
X66079714Y-94710380D01*
X66079714Y-95472285D02*
X66746380Y-95472285D01*
X66079714Y-95043714D02*
X66603523Y-95043714D01*
X66698761Y-95091333D01*
X66746380Y-95186571D01*
X66746380Y-95329428D01*
X66698761Y-95424666D01*
X66651142Y-95472285D01*
X66079714Y-95853238D02*
X66079714Y-96377047D01*
X66746380Y-95853238D01*
X66746380Y-96377047D01*
X66270190Y-97377047D02*
X66222571Y-97329428D01*
X66174952Y-97234190D01*
X66174952Y-97138952D01*
X66222571Y-97043714D01*
X66270190Y-96996095D01*
X66365428Y-96948476D01*
X66460666Y-96948476D01*
X66555904Y-96996095D01*
X66603523Y-97043714D01*
X66651142Y-97138952D01*
X66651142Y-97234190D01*
X66603523Y-97329428D01*
X66555904Y-97377047D01*
X66174952Y-97377047D02*
X66555904Y-97377047D01*
X66603523Y-97424666D01*
X66603523Y-97472285D01*
X66555904Y-97567523D01*
X66460666Y-97615142D01*
X66222571Y-97615142D01*
X66079714Y-97519904D01*
X65984476Y-97377047D01*
X65936857Y-97186571D01*
X65984476Y-96996095D01*
X66079714Y-96853238D01*
X66222571Y-96758000D01*
X66413047Y-96710380D01*
X66603523Y-96758000D01*
X66746380Y-96853238D01*
X66841619Y-96996095D01*
X66889238Y-97186571D01*
X66841619Y-97377047D01*
X66746380Y-97519904D01*
X66079714Y-98472285D02*
X66889238Y-98472285D01*
X66984476Y-98424666D01*
X67032095Y-98377047D01*
X67079714Y-98281809D01*
X67079714Y-98138952D01*
X67032095Y-98043714D01*
X66698761Y-98472285D02*
X66746380Y-98377047D01*
X66746380Y-98186571D01*
X66698761Y-98091333D01*
X66651142Y-98043714D01*
X66555904Y-97996095D01*
X66270190Y-97996095D01*
X66174952Y-98043714D01*
X66127333Y-98091333D01*
X66079714Y-98186571D01*
X66079714Y-98377047D01*
X66127333Y-98472285D01*
X66746380Y-98948476D02*
X66079714Y-98948476D01*
X66174952Y-98948476D02*
X66127333Y-98996095D01*
X66079714Y-99091333D01*
X66079714Y-99234190D01*
X66127333Y-99329428D01*
X66222571Y-99377047D01*
X66746380Y-99377047D01*
X66222571Y-99377047D02*
X66127333Y-99424666D01*
X66079714Y-99519904D01*
X66079714Y-99662761D01*
X66127333Y-99758000D01*
X66222571Y-99805619D01*
X66746380Y-99805619D01*
X66746380Y-100710380D02*
X66222571Y-100710380D01*
X66127333Y-100662761D01*
X66079714Y-100567523D01*
X66079714Y-100377047D01*
X66127333Y-100281809D01*
X66698761Y-100710380D02*
X66746380Y-100615142D01*
X66746380Y-100377047D01*
X66698761Y-100281809D01*
X66603523Y-100234190D01*
X66508285Y-100234190D01*
X66413047Y-100281809D01*
X66365428Y-100377047D01*
X66365428Y-100615142D01*
X66317809Y-100710380D01*
X66746380Y-101186571D02*
X66079714Y-101186571D01*
X65746380Y-101186571D02*
X65794000Y-101138952D01*
X65841619Y-101186571D01*
X65794000Y-101234190D01*
X65746380Y-101186571D01*
X65841619Y-101186571D01*
X66746380Y-101805619D02*
X66698761Y-101710380D01*
X66603523Y-101662761D01*
X65746380Y-101662761D01*
X66651142Y-102186571D02*
X66698761Y-102234190D01*
X66746380Y-102186571D01*
X66698761Y-102138952D01*
X66651142Y-102186571D01*
X66746380Y-102186571D01*
X66698761Y-103091333D02*
X66746380Y-102996095D01*
X66746380Y-102805619D01*
X66698761Y-102710380D01*
X66651142Y-102662761D01*
X66555904Y-102615142D01*
X66270190Y-102615142D01*
X66174952Y-102662761D01*
X66127333Y-102710380D01*
X66079714Y-102805619D01*
X66079714Y-102996095D01*
X66127333Y-103091333D01*
X66746380Y-103662761D02*
X66698761Y-103567523D01*
X66651142Y-103519904D01*
X66555904Y-103472285D01*
X66270190Y-103472285D01*
X66174952Y-103519904D01*
X66127333Y-103567523D01*
X66079714Y-103662761D01*
X66079714Y-103805619D01*
X66127333Y-103900857D01*
X66174952Y-103948476D01*
X66270190Y-103996095D01*
X66555904Y-103996095D01*
X66651142Y-103948476D01*
X66698761Y-103900857D01*
X66746380Y-103805619D01*
X66746380Y-103662761D01*
X66746380Y-104424666D02*
X66079714Y-104424666D01*
X66174952Y-104424666D02*
X66127333Y-104472285D01*
X66079714Y-104567523D01*
X66079714Y-104710380D01*
X66127333Y-104805619D01*
X66222571Y-104853238D01*
X66746380Y-104853238D01*
X66222571Y-104853238D02*
X66127333Y-104900857D01*
X66079714Y-104996095D01*
X66079714Y-105138952D01*
X66127333Y-105234190D01*
X66222571Y-105281809D01*
X66746380Y-105281809D01*
X52407571Y-105910523D02*
X52455190Y-106053380D01*
X52502809Y-106101000D01*
X52598047Y-106148619D01*
X52740904Y-106148619D01*
X52836142Y-106101000D01*
X52883761Y-106053380D01*
X52931380Y-105958142D01*
X52931380Y-105577190D01*
X51931380Y-105577190D01*
X51931380Y-105910523D01*
X51979000Y-106005761D01*
X52026619Y-106053380D01*
X52121857Y-106101000D01*
X52217095Y-106101000D01*
X52312333Y-106053380D01*
X52359952Y-106005761D01*
X52407571Y-105910523D01*
X52407571Y-105577190D01*
X52931380Y-106577190D02*
X52264714Y-106577190D01*
X52455190Y-106577190D02*
X52359952Y-106624809D01*
X52312333Y-106672428D01*
X52264714Y-106767666D01*
X52264714Y-106862904D01*
X52883761Y-107577190D02*
X52931380Y-107481952D01*
X52931380Y-107291476D01*
X52883761Y-107196238D01*
X52788523Y-107148619D01*
X52407571Y-107148619D01*
X52312333Y-107196238D01*
X52264714Y-107291476D01*
X52264714Y-107481952D01*
X52312333Y-107577190D01*
X52407571Y-107624809D01*
X52502809Y-107624809D01*
X52598047Y-107148619D01*
X52931380Y-108481952D02*
X52407571Y-108481952D01*
X52312333Y-108434333D01*
X52264714Y-108339095D01*
X52264714Y-108148619D01*
X52312333Y-108053380D01*
X52883761Y-108481952D02*
X52931380Y-108386714D01*
X52931380Y-108148619D01*
X52883761Y-108053380D01*
X52788523Y-108005761D01*
X52693285Y-108005761D01*
X52598047Y-108053380D01*
X52550428Y-108148619D01*
X52550428Y-108386714D01*
X52502809Y-108481952D01*
X52931380Y-109386714D02*
X51931380Y-109386714D01*
X52883761Y-109386714D02*
X52931380Y-109291476D01*
X52931380Y-109101000D01*
X52883761Y-109005761D01*
X52836142Y-108958142D01*
X52740904Y-108910523D01*
X52455190Y-108910523D01*
X52359952Y-108958142D01*
X52312333Y-109005761D01*
X52264714Y-109101000D01*
X52264714Y-109291476D01*
X52312333Y-109386714D01*
X52931380Y-109862904D02*
X51931380Y-109862904D01*
X52312333Y-109862904D02*
X52264714Y-109958142D01*
X52264714Y-110148619D01*
X52312333Y-110243857D01*
X52359952Y-110291476D01*
X52455190Y-110339095D01*
X52740904Y-110339095D01*
X52836142Y-110291476D01*
X52883761Y-110243857D01*
X52931380Y-110148619D01*
X52931380Y-109958142D01*
X52883761Y-109862904D01*
X52931380Y-110910523D02*
X52883761Y-110815285D01*
X52836142Y-110767666D01*
X52740904Y-110720047D01*
X52455190Y-110720047D01*
X52359952Y-110767666D01*
X52312333Y-110815285D01*
X52264714Y-110910523D01*
X52264714Y-111053380D01*
X52312333Y-111148619D01*
X52359952Y-111196238D01*
X52455190Y-111243857D01*
X52740904Y-111243857D01*
X52836142Y-111196238D01*
X52883761Y-111148619D01*
X52931380Y-111053380D01*
X52931380Y-110910523D01*
X52931380Y-112101000D02*
X52407571Y-112101000D01*
X52312333Y-112053380D01*
X52264714Y-111958142D01*
X52264714Y-111767666D01*
X52312333Y-111672428D01*
X52883761Y-112101000D02*
X52931380Y-112005761D01*
X52931380Y-111767666D01*
X52883761Y-111672428D01*
X52788523Y-111624809D01*
X52693285Y-111624809D01*
X52598047Y-111672428D01*
X52550428Y-111767666D01*
X52550428Y-112005761D01*
X52502809Y-112101000D01*
X52931380Y-112577190D02*
X52264714Y-112577190D01*
X52455190Y-112577190D02*
X52359952Y-112624809D01*
X52312333Y-112672428D01*
X52264714Y-112767666D01*
X52264714Y-112862904D01*
X52931380Y-113624809D02*
X51931380Y-113624809D01*
X52883761Y-113624809D02*
X52931380Y-113529571D01*
X52931380Y-113339095D01*
X52883761Y-113243857D01*
X52836142Y-113196238D01*
X52740904Y-113148619D01*
X52455190Y-113148619D01*
X52359952Y-113196238D01*
X52312333Y-113243857D01*
X52264714Y-113339095D01*
X52264714Y-113529571D01*
X52312333Y-113624809D01*
X54681380Y-104767666D02*
X53681380Y-104767666D01*
X53681380Y-105148619D01*
X53729000Y-105243857D01*
X53776619Y-105291476D01*
X53871857Y-105339095D01*
X54014714Y-105339095D01*
X54109952Y-105291476D01*
X54157571Y-105243857D01*
X54205190Y-105148619D01*
X54205190Y-104767666D01*
X54681380Y-105910523D02*
X54633761Y-105815285D01*
X54586142Y-105767666D01*
X54490904Y-105720047D01*
X54205190Y-105720047D01*
X54109952Y-105767666D01*
X54062333Y-105815285D01*
X54014714Y-105910523D01*
X54014714Y-106053380D01*
X54062333Y-106148619D01*
X54109952Y-106196238D01*
X54205190Y-106243857D01*
X54490904Y-106243857D01*
X54586142Y-106196238D01*
X54633761Y-106148619D01*
X54681380Y-106053380D01*
X54681380Y-105910523D01*
X54014714Y-106577190D02*
X54681380Y-106767666D01*
X54205190Y-106958142D01*
X54681380Y-107148619D01*
X54014714Y-107339095D01*
X54633761Y-108101000D02*
X54681380Y-108005761D01*
X54681380Y-107815285D01*
X54633761Y-107720047D01*
X54538523Y-107672428D01*
X54157571Y-107672428D01*
X54062333Y-107720047D01*
X54014714Y-107815285D01*
X54014714Y-108005761D01*
X54062333Y-108101000D01*
X54157571Y-108148619D01*
X54252809Y-108148619D01*
X54348047Y-107672428D01*
X54681380Y-108577190D02*
X54014714Y-108577190D01*
X54205190Y-108577190D02*
X54109952Y-108624809D01*
X54062333Y-108672428D01*
X54014714Y-108767666D01*
X54014714Y-108862904D01*
X54633761Y-109910523D02*
X54681380Y-110053380D01*
X54681380Y-110291476D01*
X54633761Y-110386714D01*
X54586142Y-110434333D01*
X54490904Y-110481952D01*
X54395666Y-110481952D01*
X54300428Y-110434333D01*
X54252809Y-110386714D01*
X54205190Y-110291476D01*
X54157571Y-110101000D01*
X54109952Y-110005761D01*
X54062333Y-109958142D01*
X53967095Y-109910523D01*
X53871857Y-109910523D01*
X53776619Y-109958142D01*
X53729000Y-110005761D01*
X53681380Y-110101000D01*
X53681380Y-110339095D01*
X53729000Y-110481952D01*
X54014714Y-111339095D02*
X54681380Y-111339095D01*
X54014714Y-110910523D02*
X54538523Y-110910523D01*
X54633761Y-110958142D01*
X54681380Y-111053380D01*
X54681380Y-111196238D01*
X54633761Y-111291476D01*
X54586142Y-111339095D01*
X54014714Y-111815285D02*
X55014714Y-111815285D01*
X54062333Y-111815285D02*
X54014714Y-111910523D01*
X54014714Y-112101000D01*
X54062333Y-112196238D01*
X54109952Y-112243857D01*
X54205190Y-112291476D01*
X54490904Y-112291476D01*
X54586142Y-112243857D01*
X54633761Y-112196238D01*
X54681380Y-112101000D01*
X54681380Y-111910523D01*
X54633761Y-111815285D01*
X54014714Y-112720047D02*
X55014714Y-112720047D01*
X54062333Y-112720047D02*
X54014714Y-112815285D01*
X54014714Y-113005761D01*
X54062333Y-113101000D01*
X54109952Y-113148619D01*
X54205190Y-113196238D01*
X54490904Y-113196238D01*
X54586142Y-113148619D01*
X54633761Y-113101000D01*
X54681380Y-113005761D01*
X54681380Y-112815285D01*
X54633761Y-112720047D01*
X54681380Y-113767666D02*
X54633761Y-113672428D01*
X54538523Y-113624809D01*
X53681380Y-113624809D01*
X54014714Y-114053380D02*
X54681380Y-114291476D01*
X54014714Y-114529571D02*
X54681380Y-114291476D01*
X54919476Y-114196238D01*
X54967095Y-114148619D01*
X55014714Y-114053380D01*
X55764714Y-108172428D02*
X56431380Y-108410523D01*
X55764714Y-108648619D01*
X56431380Y-109553380D02*
X56431380Y-108981952D01*
X56431380Y-109267666D02*
X55431380Y-109267666D01*
X55574238Y-109172428D01*
X55669476Y-109077190D01*
X55717095Y-108981952D01*
X56336142Y-109981952D02*
X56383761Y-110029571D01*
X56431380Y-109981952D01*
X56383761Y-109934333D01*
X56336142Y-109981952D01*
X56431380Y-109981952D01*
X55431380Y-110648619D02*
X55431380Y-110743857D01*
X55479000Y-110839095D01*
X55526619Y-110886714D01*
X55621857Y-110934333D01*
X55812333Y-110981952D01*
X56050428Y-110981952D01*
X56240904Y-110934333D01*
X56336142Y-110886714D01*
X56383761Y-110839095D01*
X56431380Y-110743857D01*
X56431380Y-110648619D01*
X56383761Y-110553380D01*
X56336142Y-110505761D01*
X56240904Y-110458142D01*
X56050428Y-110410523D01*
X55812333Y-110410523D01*
X55621857Y-110458142D01*
X55526619Y-110505761D01*
X55479000Y-110553380D01*
X55431380Y-110648619D01*
D13*
%TO.C,REF\u002A\u002A*%
G36*
X56163054Y-90779600D02*
G01*
X56276993Y-90790465D01*
X56384616Y-90822082D01*
X56483615Y-90872985D01*
X56571684Y-90941707D01*
X56646516Y-91026781D01*
X56704384Y-91123768D01*
X56744005Y-91230036D01*
X56762573Y-91337050D01*
X56761434Y-91442700D01*
X56741930Y-91544875D01*
X56705406Y-91641466D01*
X56653205Y-91730362D01*
X56586673Y-91809454D01*
X56507152Y-91876631D01*
X56415987Y-91929783D01*
X56314523Y-91966801D01*
X56204102Y-91985573D01*
X56154206Y-91987511D01*
X56066267Y-91987511D01*
X56066267Y-92039440D01*
X56069111Y-92075747D01*
X56080911Y-92102645D01*
X56104649Y-92129751D01*
X56143031Y-92168133D01*
X58334602Y-92168133D01*
X58596739Y-92168124D01*
X58837241Y-92168092D01*
X59057048Y-92168028D01*
X59257101Y-92167924D01*
X59438344Y-92167773D01*
X59601716Y-92167566D01*
X59748160Y-92167294D01*
X59878617Y-92166950D01*
X59994029Y-92166526D01*
X60095338Y-92166013D01*
X60183484Y-92165403D01*
X60259410Y-92164688D01*
X60324057Y-92163860D01*
X60378367Y-92162911D01*
X60423280Y-92161833D01*
X60459740Y-92160617D01*
X60488687Y-92159255D01*
X60511063Y-92157739D01*
X60527809Y-92156062D01*
X60539868Y-92154214D01*
X60548180Y-92152187D01*
X60553687Y-92149975D01*
X60555537Y-92148892D01*
X60562549Y-92144729D01*
X60568996Y-92141195D01*
X60574900Y-92137365D01*
X60580286Y-92132318D01*
X60585178Y-92125129D01*
X60589598Y-92114877D01*
X60593572Y-92100636D01*
X60597121Y-92081486D01*
X60600270Y-92056501D01*
X60603042Y-92024760D01*
X60605461Y-91985338D01*
X60607551Y-91937314D01*
X60609335Y-91879763D01*
X60610837Y-91811763D01*
X60612080Y-91732390D01*
X60613089Y-91640721D01*
X60613885Y-91535834D01*
X60614494Y-91416804D01*
X60614939Y-91282710D01*
X60615243Y-91132627D01*
X60615430Y-90965633D01*
X60615524Y-90780804D01*
X60615548Y-90577217D01*
X60615525Y-90353950D01*
X60615480Y-90110078D01*
X60615437Y-89844679D01*
X60615432Y-89806296D01*
X60615389Y-89539318D01*
X60615318Y-89293998D01*
X60615213Y-89069417D01*
X60615066Y-88864655D01*
X60614869Y-88678794D01*
X60614616Y-88510912D01*
X60614300Y-88360092D01*
X60613913Y-88225413D01*
X60613447Y-88105956D01*
X60612897Y-88000801D01*
X60612253Y-87909029D01*
X60611511Y-87829721D01*
X60610661Y-87761957D01*
X60609697Y-87704818D01*
X60608611Y-87657383D01*
X60607397Y-87618734D01*
X60606047Y-87587951D01*
X60604555Y-87564115D01*
X60602911Y-87546306D01*
X60601111Y-87533605D01*
X60599145Y-87525092D01*
X60597477Y-87520734D01*
X60593906Y-87512272D01*
X60591270Y-87504503D01*
X60588634Y-87497398D01*
X60585062Y-87490927D01*
X60579621Y-87485061D01*
X60571375Y-87479771D01*
X60559390Y-87475026D01*
X60542731Y-87470798D01*
X60520463Y-87467057D01*
X60491652Y-87463773D01*
X60455363Y-87460917D01*
X60410661Y-87458460D01*
X60356611Y-87456371D01*
X60292279Y-87454622D01*
X60216730Y-87453183D01*
X60129030Y-87452024D01*
X60028243Y-87451117D01*
X59913434Y-87450431D01*
X59783670Y-87449937D01*
X59638015Y-87449605D01*
X59475535Y-87449407D01*
X59295295Y-87449313D01*
X59096360Y-87449292D01*
X58877796Y-87449315D01*
X58638668Y-87449354D01*
X58378040Y-87449378D01*
X58335889Y-87449378D01*
X58072992Y-87449364D01*
X57831732Y-87449339D01*
X57611165Y-87449329D01*
X57410352Y-87449358D01*
X57228349Y-87449452D01*
X57064216Y-87449638D01*
X56917011Y-87449941D01*
X56785792Y-87450386D01*
X56675867Y-87450966D01*
X56675867Y-87753803D01*
X56733711Y-87793593D01*
X56749479Y-87804764D01*
X56763441Y-87814834D01*
X56776784Y-87823862D01*
X56790693Y-87831903D01*
X56806356Y-87839014D01*
X56824958Y-87845253D01*
X56847686Y-87850675D01*
X56875727Y-87855338D01*
X56910267Y-87859299D01*
X56952492Y-87862615D01*
X57003589Y-87865341D01*
X57064744Y-87867536D01*
X57137144Y-87869255D01*
X57221975Y-87870556D01*
X57320422Y-87871495D01*
X57433674Y-87872130D01*
X57562916Y-87872516D01*
X57709334Y-87872712D01*
X57874116Y-87872773D01*
X58058447Y-87872757D01*
X58263513Y-87872720D01*
X58386133Y-87872711D01*
X58603082Y-87872735D01*
X58798642Y-87872769D01*
X58973999Y-87872757D01*
X59130341Y-87872642D01*
X59268857Y-87872370D01*
X59390734Y-87871882D01*
X59497160Y-87871124D01*
X59589322Y-87870038D01*
X59668409Y-87868569D01*
X59735608Y-87866660D01*
X59792107Y-87864256D01*
X59839093Y-87861299D01*
X59877755Y-87857734D01*
X59909280Y-87853505D01*
X59934855Y-87848554D01*
X59955670Y-87842827D01*
X59972911Y-87836267D01*
X59987765Y-87828817D01*
X60001422Y-87820421D01*
X60015069Y-87811024D01*
X60029893Y-87800568D01*
X60038783Y-87794477D01*
X60096400Y-87755704D01*
X60096400Y-88287268D01*
X60096365Y-88410517D01*
X60096215Y-88513013D01*
X60095878Y-88596580D01*
X60095286Y-88663044D01*
X60094367Y-88714229D01*
X60093051Y-88751959D01*
X60091269Y-88778060D01*
X60088951Y-88794356D01*
X60086026Y-88802672D01*
X60082424Y-88804832D01*
X60078075Y-88802661D01*
X60076645Y-88801465D01*
X60039573Y-88776315D01*
X59986772Y-88750417D01*
X59924770Y-88726808D01*
X59898357Y-88718539D01*
X59880416Y-88713922D01*
X59859355Y-88710021D01*
X59833089Y-88706752D01*
X59799532Y-88704034D01*
X59756599Y-88701785D01*
X59702204Y-88699923D01*
X59634262Y-88698364D01*
X59550688Y-88697028D01*
X59449395Y-88695831D01*
X59328300Y-88694692D01*
X59283600Y-88694315D01*
X59158449Y-88693298D01*
X59054082Y-88692540D01*
X58968707Y-88692097D01*
X58900533Y-88692030D01*
X58847765Y-88692395D01*
X58808614Y-88693252D01*
X58781285Y-88694659D01*
X58763986Y-88696675D01*
X58754926Y-88699357D01*
X58752312Y-88702764D01*
X58754351Y-88706956D01*
X58758667Y-88711429D01*
X58771602Y-88721784D01*
X58800676Y-88743842D01*
X58843759Y-88776043D01*
X58898718Y-88816826D01*
X58963423Y-88864630D01*
X59035742Y-88917895D01*
X59113544Y-88975060D01*
X59194698Y-89034563D01*
X59277072Y-89094845D01*
X59358536Y-89154345D01*
X59436957Y-89211502D01*
X59510204Y-89264755D01*
X59576147Y-89312543D01*
X59632654Y-89353307D01*
X59677593Y-89385484D01*
X59708834Y-89407515D01*
X59715466Y-89412083D01*
X59752369Y-89435004D01*
X59800359Y-89461812D01*
X59849897Y-89487211D01*
X59856577Y-89490432D01*
X59904772Y-89512110D01*
X59942334Y-89524696D01*
X59978160Y-89530426D01*
X60020200Y-89531544D01*
X60096400Y-89530910D01*
X60096400Y-90685349D01*
X60002669Y-90594185D01*
X59952775Y-90547388D01*
X59896295Y-90497101D01*
X59842026Y-90451056D01*
X59816673Y-90430631D01*
X59777128Y-90400193D01*
X59723916Y-90360138D01*
X59658667Y-90311639D01*
X59583011Y-90255865D01*
X59498577Y-90193989D01*
X59406994Y-90127181D01*
X59309892Y-90056613D01*
X59208901Y-89983455D01*
X59105650Y-89908879D01*
X59001768Y-89834056D01*
X58898885Y-89760157D01*
X58798631Y-89688354D01*
X58702636Y-89619816D01*
X58612527Y-89555716D01*
X58529936Y-89497225D01*
X58456492Y-89445514D01*
X58393824Y-89401753D01*
X58343561Y-89367115D01*
X58307334Y-89342770D01*
X58286771Y-89329889D01*
X58282668Y-89328131D01*
X58271342Y-89336090D01*
X58244162Y-89356885D01*
X58202829Y-89389153D01*
X58149044Y-89431530D01*
X58084506Y-89482653D01*
X58010918Y-89541159D01*
X57929978Y-89605686D01*
X57843388Y-89674869D01*
X57752848Y-89747347D01*
X57660060Y-89821754D01*
X57585702Y-89881483D01*
X57585702Y-90892489D01*
X57598659Y-90898398D01*
X57620908Y-90912728D01*
X57622391Y-90913775D01*
X57652544Y-90932562D01*
X57689375Y-90952209D01*
X57697511Y-90956108D01*
X57705940Y-90959644D01*
X57716059Y-90962770D01*
X57729260Y-90965514D01*
X57746938Y-90967908D01*
X57770484Y-90969981D01*
X57801293Y-90971765D01*
X57840757Y-90973288D01*
X57890269Y-90974581D01*
X57951223Y-90975674D01*
X58025011Y-90976597D01*
X58113028Y-90977381D01*
X58216665Y-90978055D01*
X58337316Y-90978650D01*
X58476374Y-90979195D01*
X58635232Y-90979721D01*
X58814089Y-90980255D01*
X58999207Y-90980794D01*
X59163145Y-90981228D01*
X59307303Y-90981491D01*
X59433079Y-90981516D01*
X59541871Y-90981235D01*
X59635077Y-90980581D01*
X59714097Y-90979486D01*
X59780328Y-90977882D01*
X59835170Y-90975703D01*
X59880021Y-90972881D01*
X59916278Y-90969349D01*
X59945341Y-90965039D01*
X59968609Y-90959883D01*
X59987479Y-90953815D01*
X60003351Y-90946767D01*
X60017622Y-90938671D01*
X60031691Y-90929460D01*
X60044158Y-90920960D01*
X60070452Y-90903824D01*
X60088037Y-90893678D01*
X60091257Y-90892489D01*
X60092334Y-90903396D01*
X60093335Y-90934589D01*
X60094235Y-90983777D01*
X60095010Y-91048667D01*
X60095637Y-91126970D01*
X60096091Y-91216393D01*
X60096349Y-91314644D01*
X60096400Y-91383555D01*
X60096180Y-91488548D01*
X60095548Y-91585390D01*
X60094549Y-91671893D01*
X60093227Y-91745868D01*
X60091626Y-91805126D01*
X60089791Y-91847480D01*
X60087765Y-91870740D01*
X60086493Y-91874622D01*
X60071591Y-91866924D01*
X60063560Y-91858926D01*
X60046434Y-91845754D01*
X60016183Y-91828515D01*
X59991622Y-91816593D01*
X59932711Y-91789955D01*
X58755845Y-91786880D01*
X57578978Y-91783805D01*
X57578978Y-91338147D01*
X57579142Y-91240330D01*
X57579611Y-91149936D01*
X57580347Y-91069370D01*
X57581316Y-91001038D01*
X57582480Y-90947344D01*
X57583803Y-90910695D01*
X57585249Y-90893496D01*
X57585702Y-90892489D01*
X57585702Y-89881483D01*
X57566722Y-89896730D01*
X57474537Y-89970910D01*
X57385204Y-90042931D01*
X57300424Y-90111431D01*
X57221898Y-90175045D01*
X57151326Y-90232412D01*
X57090409Y-90282167D01*
X57040847Y-90322948D01*
X57020178Y-90340112D01*
X56919516Y-90426404D01*
X56836259Y-90503003D01*
X56768438Y-90571817D01*
X56714089Y-90634752D01*
X56706722Y-90644133D01*
X56676117Y-90683644D01*
X56675867Y-89551884D01*
X56723844Y-89557173D01*
X56781188Y-89553870D01*
X56849463Y-89532339D01*
X56929212Y-89492365D01*
X57001495Y-89447057D01*
X57024140Y-89430839D01*
X57061696Y-89402786D01*
X57112021Y-89364570D01*
X57172973Y-89317863D01*
X57242411Y-89264339D01*
X57318194Y-89205669D01*
X57398180Y-89143525D01*
X57480228Y-89079579D01*
X57562196Y-89015505D01*
X57641943Y-88952973D01*
X57717327Y-88893657D01*
X57786207Y-88839229D01*
X57846442Y-88791361D01*
X57895889Y-88751725D01*
X57932408Y-88721994D01*
X57953858Y-88703839D01*
X57957156Y-88700780D01*
X57949149Y-88697921D01*
X57918855Y-88695707D01*
X57866556Y-88694143D01*
X57792531Y-88693233D01*
X57697063Y-88692980D01*
X57580434Y-88693387D01*
X57460445Y-88694296D01*
X57328333Y-88695618D01*
X57216594Y-88697143D01*
X57123025Y-88699119D01*
X57045419Y-88701794D01*
X56981574Y-88705418D01*
X56929283Y-88710239D01*
X56886344Y-88716506D01*
X56850551Y-88724468D01*
X56819700Y-88734373D01*
X56791586Y-88746469D01*
X56764005Y-88761007D01*
X56738966Y-88775689D01*
X56675867Y-88813686D01*
X56675867Y-87753803D01*
X56675867Y-87450966D01*
X56669617Y-87450999D01*
X56567544Y-87451805D01*
X56478633Y-87452830D01*
X56401941Y-87454100D01*
X56336527Y-87455640D01*
X56281449Y-87457476D01*
X56235765Y-87459633D01*
X56198534Y-87462137D01*
X56168813Y-87465013D01*
X56145662Y-87468287D01*
X56128139Y-87471985D01*
X56115301Y-87476131D01*
X56106208Y-87480753D01*
X56099918Y-87485874D01*
X56095488Y-87491522D01*
X56091978Y-87497721D01*
X56088445Y-87504496D01*
X56084876Y-87510492D01*
X56082300Y-87515725D01*
X56079972Y-87523901D01*
X56077878Y-87536114D01*
X56076007Y-87553459D01*
X56074347Y-87577031D01*
X56072884Y-87607923D01*
X56071608Y-87647232D01*
X56070504Y-87696050D01*
X56069561Y-87755473D01*
X56068767Y-87826596D01*
X56068109Y-87910512D01*
X56067575Y-88008317D01*
X56067153Y-88121106D01*
X56066829Y-88249971D01*
X56066592Y-88396009D01*
X56066430Y-88560314D01*
X56066330Y-88743980D01*
X56066280Y-88948103D01*
X56066267Y-89159247D01*
X56066267Y-90779600D01*
X56163054Y-90779600D01*
G37*
X56163054Y-90779600D02*
X56276993Y-90790465D01*
X56384616Y-90822082D01*
X56483615Y-90872985D01*
X56571684Y-90941707D01*
X56646516Y-91026781D01*
X56704384Y-91123768D01*
X56744005Y-91230036D01*
X56762573Y-91337050D01*
X56761434Y-91442700D01*
X56741930Y-91544875D01*
X56705406Y-91641466D01*
X56653205Y-91730362D01*
X56586673Y-91809454D01*
X56507152Y-91876631D01*
X56415987Y-91929783D01*
X56314523Y-91966801D01*
X56204102Y-91985573D01*
X56154206Y-91987511D01*
X56066267Y-91987511D01*
X56066267Y-92039440D01*
X56069111Y-92075747D01*
X56080911Y-92102645D01*
X56104649Y-92129751D01*
X56143031Y-92168133D01*
X58334602Y-92168133D01*
X58596739Y-92168124D01*
X58837241Y-92168092D01*
X59057048Y-92168028D01*
X59257101Y-92167924D01*
X59438344Y-92167773D01*
X59601716Y-92167566D01*
X59748160Y-92167294D01*
X59878617Y-92166950D01*
X59994029Y-92166526D01*
X60095338Y-92166013D01*
X60183484Y-92165403D01*
X60259410Y-92164688D01*
X60324057Y-92163860D01*
X60378367Y-92162911D01*
X60423280Y-92161833D01*
X60459740Y-92160617D01*
X60488687Y-92159255D01*
X60511063Y-92157739D01*
X60527809Y-92156062D01*
X60539868Y-92154214D01*
X60548180Y-92152187D01*
X60553687Y-92149975D01*
X60555537Y-92148892D01*
X60562549Y-92144729D01*
X60568996Y-92141195D01*
X60574900Y-92137365D01*
X60580286Y-92132318D01*
X60585178Y-92125129D01*
X60589598Y-92114877D01*
X60593572Y-92100636D01*
X60597121Y-92081486D01*
X60600270Y-92056501D01*
X60603042Y-92024760D01*
X60605461Y-91985338D01*
X60607551Y-91937314D01*
X60609335Y-91879763D01*
X60610837Y-91811763D01*
X60612080Y-91732390D01*
X60613089Y-91640721D01*
X60613885Y-91535834D01*
X60614494Y-91416804D01*
X60614939Y-91282710D01*
X60615243Y-91132627D01*
X60615430Y-90965633D01*
X60615524Y-90780804D01*
X60615548Y-90577217D01*
X60615525Y-90353950D01*
X60615480Y-90110078D01*
X60615437Y-89844679D01*
X60615432Y-89806296D01*
X60615389Y-89539318D01*
X60615318Y-89293998D01*
X60615213Y-89069417D01*
X60615066Y-88864655D01*
X60614869Y-88678794D01*
X60614616Y-88510912D01*
X60614300Y-88360092D01*
X60613913Y-88225413D01*
X60613447Y-88105956D01*
X60612897Y-88000801D01*
X60612253Y-87909029D01*
X60611511Y-87829721D01*
X60610661Y-87761957D01*
X60609697Y-87704818D01*
X60608611Y-87657383D01*
X60607397Y-87618734D01*
X60606047Y-87587951D01*
X60604555Y-87564115D01*
X60602911Y-87546306D01*
X60601111Y-87533605D01*
X60599145Y-87525092D01*
X60597477Y-87520734D01*
X60593906Y-87512272D01*
X60591270Y-87504503D01*
X60588634Y-87497398D01*
X60585062Y-87490927D01*
X60579621Y-87485061D01*
X60571375Y-87479771D01*
X60559390Y-87475026D01*
X60542731Y-87470798D01*
X60520463Y-87467057D01*
X60491652Y-87463773D01*
X60455363Y-87460917D01*
X60410661Y-87458460D01*
X60356611Y-87456371D01*
X60292279Y-87454622D01*
X60216730Y-87453183D01*
X60129030Y-87452024D01*
X60028243Y-87451117D01*
X59913434Y-87450431D01*
X59783670Y-87449937D01*
X59638015Y-87449605D01*
X59475535Y-87449407D01*
X59295295Y-87449313D01*
X59096360Y-87449292D01*
X58877796Y-87449315D01*
X58638668Y-87449354D01*
X58378040Y-87449378D01*
X58335889Y-87449378D01*
X58072992Y-87449364D01*
X57831732Y-87449339D01*
X57611165Y-87449329D01*
X57410352Y-87449358D01*
X57228349Y-87449452D01*
X57064216Y-87449638D01*
X56917011Y-87449941D01*
X56785792Y-87450386D01*
X56675867Y-87450966D01*
X56675867Y-87753803D01*
X56733711Y-87793593D01*
X56749479Y-87804764D01*
X56763441Y-87814834D01*
X56776784Y-87823862D01*
X56790693Y-87831903D01*
X56806356Y-87839014D01*
X56824958Y-87845253D01*
X56847686Y-87850675D01*
X56875727Y-87855338D01*
X56910267Y-87859299D01*
X56952492Y-87862615D01*
X57003589Y-87865341D01*
X57064744Y-87867536D01*
X57137144Y-87869255D01*
X57221975Y-87870556D01*
X57320422Y-87871495D01*
X57433674Y-87872130D01*
X57562916Y-87872516D01*
X57709334Y-87872712D01*
X57874116Y-87872773D01*
X58058447Y-87872757D01*
X58263513Y-87872720D01*
X58386133Y-87872711D01*
X58603082Y-87872735D01*
X58798642Y-87872769D01*
X58973999Y-87872757D01*
X59130341Y-87872642D01*
X59268857Y-87872370D01*
X59390734Y-87871882D01*
X59497160Y-87871124D01*
X59589322Y-87870038D01*
X59668409Y-87868569D01*
X59735608Y-87866660D01*
X59792107Y-87864256D01*
X59839093Y-87861299D01*
X59877755Y-87857734D01*
X59909280Y-87853505D01*
X59934855Y-87848554D01*
X59955670Y-87842827D01*
X59972911Y-87836267D01*
X59987765Y-87828817D01*
X60001422Y-87820421D01*
X60015069Y-87811024D01*
X60029893Y-87800568D01*
X60038783Y-87794477D01*
X60096400Y-87755704D01*
X60096400Y-88287268D01*
X60096365Y-88410517D01*
X60096215Y-88513013D01*
X60095878Y-88596580D01*
X60095286Y-88663044D01*
X60094367Y-88714229D01*
X60093051Y-88751959D01*
X60091269Y-88778060D01*
X60088951Y-88794356D01*
X60086026Y-88802672D01*
X60082424Y-88804832D01*
X60078075Y-88802661D01*
X60076645Y-88801465D01*
X60039573Y-88776315D01*
X59986772Y-88750417D01*
X59924770Y-88726808D01*
X59898357Y-88718539D01*
X59880416Y-88713922D01*
X59859355Y-88710021D01*
X59833089Y-88706752D01*
X59799532Y-88704034D01*
X59756599Y-88701785D01*
X59702204Y-88699923D01*
X59634262Y-88698364D01*
X59550688Y-88697028D01*
X59449395Y-88695831D01*
X59328300Y-88694692D01*
X59283600Y-88694315D01*
X59158449Y-88693298D01*
X59054082Y-88692540D01*
X58968707Y-88692097D01*
X58900533Y-88692030D01*
X58847765Y-88692395D01*
X58808614Y-88693252D01*
X58781285Y-88694659D01*
X58763986Y-88696675D01*
X58754926Y-88699357D01*
X58752312Y-88702764D01*
X58754351Y-88706956D01*
X58758667Y-88711429D01*
X58771602Y-88721784D01*
X58800676Y-88743842D01*
X58843759Y-88776043D01*
X58898718Y-88816826D01*
X58963423Y-88864630D01*
X59035742Y-88917895D01*
X59113544Y-88975060D01*
X59194698Y-89034563D01*
X59277072Y-89094845D01*
X59358536Y-89154345D01*
X59436957Y-89211502D01*
X59510204Y-89264755D01*
X59576147Y-89312543D01*
X59632654Y-89353307D01*
X59677593Y-89385484D01*
X59708834Y-89407515D01*
X59715466Y-89412083D01*
X59752369Y-89435004D01*
X59800359Y-89461812D01*
X59849897Y-89487211D01*
X59856577Y-89490432D01*
X59904772Y-89512110D01*
X59942334Y-89524696D01*
X59978160Y-89530426D01*
X60020200Y-89531544D01*
X60096400Y-89530910D01*
X60096400Y-90685349D01*
X60002669Y-90594185D01*
X59952775Y-90547388D01*
X59896295Y-90497101D01*
X59842026Y-90451056D01*
X59816673Y-90430631D01*
X59777128Y-90400193D01*
X59723916Y-90360138D01*
X59658667Y-90311639D01*
X59583011Y-90255865D01*
X59498577Y-90193989D01*
X59406994Y-90127181D01*
X59309892Y-90056613D01*
X59208901Y-89983455D01*
X59105650Y-89908879D01*
X59001768Y-89834056D01*
X58898885Y-89760157D01*
X58798631Y-89688354D01*
X58702636Y-89619816D01*
X58612527Y-89555716D01*
X58529936Y-89497225D01*
X58456492Y-89445514D01*
X58393824Y-89401753D01*
X58343561Y-89367115D01*
X58307334Y-89342770D01*
X58286771Y-89329889D01*
X58282668Y-89328131D01*
X58271342Y-89336090D01*
X58244162Y-89356885D01*
X58202829Y-89389153D01*
X58149044Y-89431530D01*
X58084506Y-89482653D01*
X58010918Y-89541159D01*
X57929978Y-89605686D01*
X57843388Y-89674869D01*
X57752848Y-89747347D01*
X57660060Y-89821754D01*
X57585702Y-89881483D01*
X57585702Y-90892489D01*
X57598659Y-90898398D01*
X57620908Y-90912728D01*
X57622391Y-90913775D01*
X57652544Y-90932562D01*
X57689375Y-90952209D01*
X57697511Y-90956108D01*
X57705940Y-90959644D01*
X57716059Y-90962770D01*
X57729260Y-90965514D01*
X57746938Y-90967908D01*
X57770484Y-90969981D01*
X57801293Y-90971765D01*
X57840757Y-90973288D01*
X57890269Y-90974581D01*
X57951223Y-90975674D01*
X58025011Y-90976597D01*
X58113028Y-90977381D01*
X58216665Y-90978055D01*
X58337316Y-90978650D01*
X58476374Y-90979195D01*
X58635232Y-90979721D01*
X58814089Y-90980255D01*
X58999207Y-90980794D01*
X59163145Y-90981228D01*
X59307303Y-90981491D01*
X59433079Y-90981516D01*
X59541871Y-90981235D01*
X59635077Y-90980581D01*
X59714097Y-90979486D01*
X59780328Y-90977882D01*
X59835170Y-90975703D01*
X59880021Y-90972881D01*
X59916278Y-90969349D01*
X59945341Y-90965039D01*
X59968609Y-90959883D01*
X59987479Y-90953815D01*
X60003351Y-90946767D01*
X60017622Y-90938671D01*
X60031691Y-90929460D01*
X60044158Y-90920960D01*
X60070452Y-90903824D01*
X60088037Y-90893678D01*
X60091257Y-90892489D01*
X60092334Y-90903396D01*
X60093335Y-90934589D01*
X60094235Y-90983777D01*
X60095010Y-91048667D01*
X60095637Y-91126970D01*
X60096091Y-91216393D01*
X60096349Y-91314644D01*
X60096400Y-91383555D01*
X60096180Y-91488548D01*
X60095548Y-91585390D01*
X60094549Y-91671893D01*
X60093227Y-91745868D01*
X60091626Y-91805126D01*
X60089791Y-91847480D01*
X60087765Y-91870740D01*
X60086493Y-91874622D01*
X60071591Y-91866924D01*
X60063560Y-91858926D01*
X60046434Y-91845754D01*
X60016183Y-91828515D01*
X59991622Y-91816593D01*
X59932711Y-91789955D01*
X58755845Y-91786880D01*
X57578978Y-91783805D01*
X57578978Y-91338147D01*
X57579142Y-91240330D01*
X57579611Y-91149936D01*
X57580347Y-91069370D01*
X57581316Y-91001038D01*
X57582480Y-90947344D01*
X57583803Y-90910695D01*
X57585249Y-90893496D01*
X57585702Y-90892489D01*
X57585702Y-89881483D01*
X57566722Y-89896730D01*
X57474537Y-89970910D01*
X57385204Y-90042931D01*
X57300424Y-90111431D01*
X57221898Y-90175045D01*
X57151326Y-90232412D01*
X57090409Y-90282167D01*
X57040847Y-90322948D01*
X57020178Y-90340112D01*
X56919516Y-90426404D01*
X56836259Y-90503003D01*
X56768438Y-90571817D01*
X56714089Y-90634752D01*
X56706722Y-90644133D01*
X56676117Y-90683644D01*
X56675867Y-89551884D01*
X56723844Y-89557173D01*
X56781188Y-89553870D01*
X56849463Y-89532339D01*
X56929212Y-89492365D01*
X57001495Y-89447057D01*
X57024140Y-89430839D01*
X57061696Y-89402786D01*
X57112021Y-89364570D01*
X57172973Y-89317863D01*
X57242411Y-89264339D01*
X57318194Y-89205669D01*
X57398180Y-89143525D01*
X57480228Y-89079579D01*
X57562196Y-89015505D01*
X57641943Y-88952973D01*
X57717327Y-88893657D01*
X57786207Y-88839229D01*
X57846442Y-88791361D01*
X57895889Y-88751725D01*
X57932408Y-88721994D01*
X57953858Y-88703839D01*
X57957156Y-88700780D01*
X57949149Y-88697921D01*
X57918855Y-88695707D01*
X57866556Y-88694143D01*
X57792531Y-88693233D01*
X57697063Y-88692980D01*
X57580434Y-88693387D01*
X57460445Y-88694296D01*
X57328333Y-88695618D01*
X57216594Y-88697143D01*
X57123025Y-88699119D01*
X57045419Y-88701794D01*
X56981574Y-88705418D01*
X56929283Y-88710239D01*
X56886344Y-88716506D01*
X56850551Y-88724468D01*
X56819700Y-88734373D01*
X56791586Y-88746469D01*
X56764005Y-88761007D01*
X56738966Y-88775689D01*
X56675867Y-88813686D01*
X56675867Y-87753803D01*
X56675867Y-87450966D01*
X56669617Y-87450999D01*
X56567544Y-87451805D01*
X56478633Y-87452830D01*
X56401941Y-87454100D01*
X56336527Y-87455640D01*
X56281449Y-87457476D01*
X56235765Y-87459633D01*
X56198534Y-87462137D01*
X56168813Y-87465013D01*
X56145662Y-87468287D01*
X56128139Y-87471985D01*
X56115301Y-87476131D01*
X56106208Y-87480753D01*
X56099918Y-87485874D01*
X56095488Y-87491522D01*
X56091978Y-87497721D01*
X56088445Y-87504496D01*
X56084876Y-87510492D01*
X56082300Y-87515725D01*
X56079972Y-87523901D01*
X56077878Y-87536114D01*
X56076007Y-87553459D01*
X56074347Y-87577031D01*
X56072884Y-87607923D01*
X56071608Y-87647232D01*
X56070504Y-87696050D01*
X56069561Y-87755473D01*
X56068767Y-87826596D01*
X56068109Y-87910512D01*
X56067575Y-88008317D01*
X56067153Y-88121106D01*
X56066829Y-88249971D01*
X56066592Y-88396009D01*
X56066430Y-88560314D01*
X56066330Y-88743980D01*
X56066280Y-88948103D01*
X56066267Y-89159247D01*
X56066267Y-90779600D01*
X56163054Y-90779600D01*
G36*
X56623071Y-94054429D02*
G01*
X56644245Y-94214570D01*
X56684385Y-94378510D01*
X56743889Y-94548313D01*
X56823154Y-94726043D01*
X56828699Y-94737310D01*
X56856725Y-94795005D01*
X56880802Y-94846552D01*
X56899249Y-94888191D01*
X56910386Y-94916162D01*
X56912933Y-94925733D01*
X56917941Y-94944950D01*
X56922147Y-94949561D01*
X56932580Y-94944458D01*
X56958868Y-94928418D01*
X56998257Y-94903288D01*
X57047991Y-94870914D01*
X57105315Y-94833143D01*
X57167476Y-94791822D01*
X57231718Y-94748798D01*
X57295285Y-94705917D01*
X57355425Y-94665026D01*
X57409380Y-94627971D01*
X57454397Y-94596600D01*
X57487721Y-94572759D01*
X57506597Y-94558294D01*
X57508787Y-94556309D01*
X57504138Y-94546191D01*
X57486962Y-94523850D01*
X57460440Y-94493280D01*
X57445964Y-94477536D01*
X57370682Y-94381047D01*
X57315241Y-94274336D01*
X57280141Y-94158832D01*
X57265880Y-94035962D01*
X57267051Y-93966561D01*
X57284212Y-93845423D01*
X57320094Y-93736205D01*
X57374959Y-93638582D01*
X57449070Y-93552228D01*
X57542688Y-93476815D01*
X57656076Y-93412018D01*
X57742667Y-93374601D01*
X57878366Y-93330748D01*
X58025850Y-93298428D01*
X58181314Y-93277557D01*
X58340956Y-93268051D01*
X58500973Y-93269827D01*
X58657561Y-93282803D01*
X58806918Y-93306894D01*
X58945240Y-93342018D01*
X59068724Y-93388092D01*
X59102978Y-93404373D01*
X59217064Y-93472620D01*
X59313557Y-93553079D01*
X59391670Y-93644570D01*
X59450617Y-93745911D01*
X59489612Y-93855920D01*
X59507868Y-93973415D01*
X59509211Y-94014883D01*
X59498290Y-94136441D01*
X59465474Y-94256878D01*
X59411439Y-94374666D01*
X59336865Y-94488277D01*
X59258539Y-94579685D01*
X59214008Y-94626215D01*
X59511271Y-94807483D01*
X59585433Y-94852580D01*
X59653646Y-94893819D01*
X59713459Y-94929735D01*
X59762420Y-94958866D01*
X59798079Y-94979750D01*
X59817984Y-94990924D01*
X59821079Y-94992375D01*
X59830718Y-94984146D01*
X59847999Y-94958567D01*
X59871283Y-94918873D01*
X59898934Y-94868297D01*
X59929315Y-94810074D01*
X59960790Y-94747437D01*
X59991722Y-94683621D01*
X60020473Y-94621860D01*
X60045408Y-94565388D01*
X60064889Y-94517438D01*
X60073318Y-94493986D01*
X60111133Y-94360221D01*
X60136136Y-94222327D01*
X60149140Y-94074622D01*
X60151468Y-93947833D01*
X60150373Y-93879878D01*
X60148275Y-93814277D01*
X60145434Y-93756847D01*
X60142106Y-93713403D01*
X60140422Y-93699298D01*
X60111587Y-93560284D01*
X60066468Y-93418757D01*
X60007750Y-93281275D01*
X59938120Y-93154394D01*
X59885441Y-93076889D01*
X59777239Y-92949481D01*
X59650671Y-92831178D01*
X59508866Y-92724172D01*
X59354951Y-92630652D01*
X59192053Y-92552810D01*
X59074756Y-92508956D01*
X58891128Y-92458708D01*
X58696581Y-92425209D01*
X58495325Y-92408449D01*
X58291568Y-92408416D01*
X58089521Y-92425101D01*
X57893392Y-92458493D01*
X57707391Y-92508580D01*
X57695803Y-92512397D01*
X57533750Y-92575281D01*
X57385832Y-92652028D01*
X57247865Y-92745242D01*
X57115661Y-92857527D01*
X57070399Y-92901392D01*
X56946457Y-93037534D01*
X56843915Y-93177491D01*
X56761656Y-93323411D01*
X56698564Y-93477442D01*
X56653523Y-93641732D01*
X56636033Y-93737289D01*
X56620466Y-93896023D01*
X56623071Y-94054429D01*
G37*
X56623071Y-94054429D02*
X56644245Y-94214570D01*
X56684385Y-94378510D01*
X56743889Y-94548313D01*
X56823154Y-94726043D01*
X56828699Y-94737310D01*
X56856725Y-94795005D01*
X56880802Y-94846552D01*
X56899249Y-94888191D01*
X56910386Y-94916162D01*
X56912933Y-94925733D01*
X56917941Y-94944950D01*
X56922147Y-94949561D01*
X56932580Y-94944458D01*
X56958868Y-94928418D01*
X56998257Y-94903288D01*
X57047991Y-94870914D01*
X57105315Y-94833143D01*
X57167476Y-94791822D01*
X57231718Y-94748798D01*
X57295285Y-94705917D01*
X57355425Y-94665026D01*
X57409380Y-94627971D01*
X57454397Y-94596600D01*
X57487721Y-94572759D01*
X57506597Y-94558294D01*
X57508787Y-94556309D01*
X57504138Y-94546191D01*
X57486962Y-94523850D01*
X57460440Y-94493280D01*
X57445964Y-94477536D01*
X57370682Y-94381047D01*
X57315241Y-94274336D01*
X57280141Y-94158832D01*
X57265880Y-94035962D01*
X57267051Y-93966561D01*
X57284212Y-93845423D01*
X57320094Y-93736205D01*
X57374959Y-93638582D01*
X57449070Y-93552228D01*
X57542688Y-93476815D01*
X57656076Y-93412018D01*
X57742667Y-93374601D01*
X57878366Y-93330748D01*
X58025850Y-93298428D01*
X58181314Y-93277557D01*
X58340956Y-93268051D01*
X58500973Y-93269827D01*
X58657561Y-93282803D01*
X58806918Y-93306894D01*
X58945240Y-93342018D01*
X59068724Y-93388092D01*
X59102978Y-93404373D01*
X59217064Y-93472620D01*
X59313557Y-93553079D01*
X59391670Y-93644570D01*
X59450617Y-93745911D01*
X59489612Y-93855920D01*
X59507868Y-93973415D01*
X59509211Y-94014883D01*
X59498290Y-94136441D01*
X59465474Y-94256878D01*
X59411439Y-94374666D01*
X59336865Y-94488277D01*
X59258539Y-94579685D01*
X59214008Y-94626215D01*
X59511271Y-94807483D01*
X59585433Y-94852580D01*
X59653646Y-94893819D01*
X59713459Y-94929735D01*
X59762420Y-94958866D01*
X59798079Y-94979750D01*
X59817984Y-94990924D01*
X59821079Y-94992375D01*
X59830718Y-94984146D01*
X59847999Y-94958567D01*
X59871283Y-94918873D01*
X59898934Y-94868297D01*
X59929315Y-94810074D01*
X59960790Y-94747437D01*
X59991722Y-94683621D01*
X60020473Y-94621860D01*
X60045408Y-94565388D01*
X60064889Y-94517438D01*
X60073318Y-94493986D01*
X60111133Y-94360221D01*
X60136136Y-94222327D01*
X60149140Y-94074622D01*
X60151468Y-93947833D01*
X60150373Y-93879878D01*
X60148275Y-93814277D01*
X60145434Y-93756847D01*
X60142106Y-93713403D01*
X60140422Y-93699298D01*
X60111587Y-93560284D01*
X60066468Y-93418757D01*
X60007750Y-93281275D01*
X59938120Y-93154394D01*
X59885441Y-93076889D01*
X59777239Y-92949481D01*
X59650671Y-92831178D01*
X59508866Y-92724172D01*
X59354951Y-92630652D01*
X59192053Y-92552810D01*
X59074756Y-92508956D01*
X58891128Y-92458708D01*
X58696581Y-92425209D01*
X58495325Y-92408449D01*
X58291568Y-92408416D01*
X58089521Y-92425101D01*
X57893392Y-92458493D01*
X57707391Y-92508580D01*
X57695803Y-92512397D01*
X57533750Y-92575281D01*
X57385832Y-92652028D01*
X57247865Y-92745242D01*
X57115661Y-92857527D01*
X57070399Y-92901392D01*
X56946457Y-93037534D01*
X56843915Y-93177491D01*
X56761656Y-93323411D01*
X56698564Y-93477442D01*
X56653523Y-93641732D01*
X56636033Y-93737289D01*
X56620466Y-93896023D01*
X56623071Y-94054429D01*
G36*
X57540552Y-96399574D02*
G01*
X57560567Y-96551492D01*
X57594202Y-96686756D01*
X57641725Y-96806239D01*
X57703405Y-96910815D01*
X57766965Y-96988424D01*
X57841099Y-97057265D01*
X57920871Y-97111006D01*
X58013091Y-97153910D01*
X58056161Y-97169384D01*
X58095142Y-97182244D01*
X58131289Y-97193446D01*
X58166434Y-97203120D01*
X58202410Y-97211396D01*
X58241050Y-97218403D01*
X58284185Y-97224272D01*
X58333649Y-97229131D01*
X58391273Y-97233110D01*
X58458891Y-97236340D01*
X58538334Y-97238949D01*
X58631436Y-97241067D01*
X58740027Y-97242824D01*
X58865942Y-97244349D01*
X59011012Y-97245772D01*
X59153778Y-97247025D01*
X59309968Y-97248351D01*
X59445239Y-97249556D01*
X59561246Y-97250766D01*
X59659645Y-97252106D01*
X59742093Y-97253700D01*
X59810246Y-97255675D01*
X59865760Y-97258156D01*
X59910292Y-97261269D01*
X59945498Y-97265138D01*
X59973034Y-97269889D01*
X59994556Y-97275648D01*
X60011722Y-97282539D01*
X60026186Y-97290689D01*
X60039606Y-97300223D01*
X60053638Y-97311266D01*
X60059071Y-97315566D01*
X60081910Y-97331386D01*
X60097463Y-97338422D01*
X60097922Y-97338444D01*
X60100121Y-97327567D01*
X60102147Y-97296582D01*
X60103942Y-97247957D01*
X60105451Y-97184163D01*
X60106616Y-97107669D01*
X60107380Y-97020944D01*
X60107686Y-96926457D01*
X60107689Y-96915550D01*
X60107689Y-96492657D01*
X60011622Y-96489395D01*
X59915556Y-96486133D01*
X59966543Y-96424044D01*
X60034057Y-96326714D01*
X60088749Y-96216813D01*
X60118978Y-96130349D01*
X60133666Y-96061278D01*
X60143659Y-95977925D01*
X60148646Y-95888159D01*
X60148313Y-95799845D01*
X60142351Y-95720851D01*
X60136638Y-95684622D01*
X60098776Y-95544603D01*
X60043932Y-95418178D01*
X59972924Y-95306260D01*
X59886568Y-95209762D01*
X59785679Y-95129600D01*
X59671076Y-95066687D01*
X59544984Y-95022312D01*
X59488401Y-95009978D01*
X59426202Y-95002368D01*
X59351363Y-94998739D01*
X59317467Y-94998245D01*
X59314282Y-94998310D01*
X59314282Y-95758248D01*
X59389333Y-95767541D01*
X59453160Y-95795728D01*
X59508798Y-95844197D01*
X59513211Y-95849254D01*
X59548037Y-95897548D01*
X59570620Y-95949257D01*
X59582540Y-96009989D01*
X59585383Y-96085352D01*
X59584978Y-96103459D01*
X59582325Y-96157278D01*
X59576909Y-96197308D01*
X59566745Y-96232324D01*
X59549850Y-96271103D01*
X59544672Y-96281745D01*
X59508844Y-96342396D01*
X59466212Y-96389215D01*
X59450973Y-96401952D01*
X59394462Y-96446622D01*
X59198586Y-96446622D01*
X59119939Y-96446086D01*
X59061988Y-96444396D01*
X59022875Y-96441428D01*
X59000741Y-96437057D01*
X58994274Y-96432972D01*
X58991111Y-96417047D01*
X58988488Y-96383264D01*
X58986655Y-96336340D01*
X58985857Y-96280993D01*
X58985842Y-96272106D01*
X58991096Y-96151330D01*
X59007263Y-96048660D01*
X59034961Y-95962106D01*
X59074808Y-95889681D01*
X59121758Y-95834751D01*
X59179645Y-95790204D01*
X59242693Y-95765480D01*
X59314282Y-95758248D01*
X59314282Y-94998310D01*
X59223712Y-95000178D01*
X59144812Y-95008522D01*
X59073590Y-95024768D01*
X59002864Y-95050405D01*
X58950493Y-95074401D01*
X58855196Y-95133020D01*
X58767170Y-95211117D01*
X58688017Y-95306315D01*
X58619340Y-95416238D01*
X58562741Y-95538510D01*
X58519821Y-95670755D01*
X58504882Y-95735422D01*
X58482777Y-95871604D01*
X58468194Y-96020049D01*
X58461813Y-96171505D01*
X58463445Y-96298064D01*
X58470224Y-96459950D01*
X58411245Y-96452530D01*
X58312092Y-96433238D01*
X58231372Y-96402104D01*
X58168466Y-96358269D01*
X58122756Y-96300871D01*
X58093622Y-96229048D01*
X58080447Y-96141941D01*
X58082611Y-96038686D01*
X58086612Y-96000711D01*
X58111780Y-95859520D01*
X58152814Y-95722707D01*
X58190815Y-95628178D01*
X58210190Y-95583018D01*
X58225760Y-95544585D01*
X58235405Y-95518234D01*
X58237452Y-95510546D01*
X58228374Y-95500802D01*
X58199405Y-95484083D01*
X58150217Y-95460232D01*
X58080484Y-95429093D01*
X57989879Y-95390507D01*
X57974089Y-95383910D01*
X57901772Y-95353853D01*
X57836425Y-95326874D01*
X57780906Y-95304136D01*
X57738072Y-95286806D01*
X57710781Y-95276048D01*
X57701942Y-95272941D01*
X57697187Y-95282940D01*
X57691910Y-95309217D01*
X57688231Y-95337489D01*
X57683474Y-95367646D01*
X57674028Y-95415433D01*
X57660820Y-95476612D01*
X57644776Y-95546946D01*
X57626820Y-95622194D01*
X57619797Y-95650755D01*
X57594209Y-95755816D01*
X57574147Y-95843480D01*
X57558969Y-95918068D01*
X57548035Y-95983903D01*
X57540704Y-96045307D01*
X57536335Y-96106602D01*
X57534287Y-96172110D01*
X57533889Y-96230128D01*
X57540552Y-96399574D01*
G37*
X57540552Y-96399574D02*
X57560567Y-96551492D01*
X57594202Y-96686756D01*
X57641725Y-96806239D01*
X57703405Y-96910815D01*
X57766965Y-96988424D01*
X57841099Y-97057265D01*
X57920871Y-97111006D01*
X58013091Y-97153910D01*
X58056161Y-97169384D01*
X58095142Y-97182244D01*
X58131289Y-97193446D01*
X58166434Y-97203120D01*
X58202410Y-97211396D01*
X58241050Y-97218403D01*
X58284185Y-97224272D01*
X58333649Y-97229131D01*
X58391273Y-97233110D01*
X58458891Y-97236340D01*
X58538334Y-97238949D01*
X58631436Y-97241067D01*
X58740027Y-97242824D01*
X58865942Y-97244349D01*
X59011012Y-97245772D01*
X59153778Y-97247025D01*
X59309968Y-97248351D01*
X59445239Y-97249556D01*
X59561246Y-97250766D01*
X59659645Y-97252106D01*
X59742093Y-97253700D01*
X59810246Y-97255675D01*
X59865760Y-97258156D01*
X59910292Y-97261269D01*
X59945498Y-97265138D01*
X59973034Y-97269889D01*
X59994556Y-97275648D01*
X60011722Y-97282539D01*
X60026186Y-97290689D01*
X60039606Y-97300223D01*
X60053638Y-97311266D01*
X60059071Y-97315566D01*
X60081910Y-97331386D01*
X60097463Y-97338422D01*
X60097922Y-97338444D01*
X60100121Y-97327567D01*
X60102147Y-97296582D01*
X60103942Y-97247957D01*
X60105451Y-97184163D01*
X60106616Y-97107669D01*
X60107380Y-97020944D01*
X60107686Y-96926457D01*
X60107689Y-96915550D01*
X60107689Y-96492657D01*
X60011622Y-96489395D01*
X59915556Y-96486133D01*
X59966543Y-96424044D01*
X60034057Y-96326714D01*
X60088749Y-96216813D01*
X60118978Y-96130349D01*
X60133666Y-96061278D01*
X60143659Y-95977925D01*
X60148646Y-95888159D01*
X60148313Y-95799845D01*
X60142351Y-95720851D01*
X60136638Y-95684622D01*
X60098776Y-95544603D01*
X60043932Y-95418178D01*
X59972924Y-95306260D01*
X59886568Y-95209762D01*
X59785679Y-95129600D01*
X59671076Y-95066687D01*
X59544984Y-95022312D01*
X59488401Y-95009978D01*
X59426202Y-95002368D01*
X59351363Y-94998739D01*
X59317467Y-94998245D01*
X59314282Y-94998310D01*
X59314282Y-95758248D01*
X59389333Y-95767541D01*
X59453160Y-95795728D01*
X59508798Y-95844197D01*
X59513211Y-95849254D01*
X59548037Y-95897548D01*
X59570620Y-95949257D01*
X59582540Y-96009989D01*
X59585383Y-96085352D01*
X59584978Y-96103459D01*
X59582325Y-96157278D01*
X59576909Y-96197308D01*
X59566745Y-96232324D01*
X59549850Y-96271103D01*
X59544672Y-96281745D01*
X59508844Y-96342396D01*
X59466212Y-96389215D01*
X59450973Y-96401952D01*
X59394462Y-96446622D01*
X59198586Y-96446622D01*
X59119939Y-96446086D01*
X59061988Y-96444396D01*
X59022875Y-96441428D01*
X59000741Y-96437057D01*
X58994274Y-96432972D01*
X58991111Y-96417047D01*
X58988488Y-96383264D01*
X58986655Y-96336340D01*
X58985857Y-96280993D01*
X58985842Y-96272106D01*
X58991096Y-96151330D01*
X59007263Y-96048660D01*
X59034961Y-95962106D01*
X59074808Y-95889681D01*
X59121758Y-95834751D01*
X59179645Y-95790204D01*
X59242693Y-95765480D01*
X59314282Y-95758248D01*
X59314282Y-94998310D01*
X59223712Y-95000178D01*
X59144812Y-95008522D01*
X59073590Y-95024768D01*
X59002864Y-95050405D01*
X58950493Y-95074401D01*
X58855196Y-95133020D01*
X58767170Y-95211117D01*
X58688017Y-95306315D01*
X58619340Y-95416238D01*
X58562741Y-95538510D01*
X58519821Y-95670755D01*
X58504882Y-95735422D01*
X58482777Y-95871604D01*
X58468194Y-96020049D01*
X58461813Y-96171505D01*
X58463445Y-96298064D01*
X58470224Y-96459950D01*
X58411245Y-96452530D01*
X58312092Y-96433238D01*
X58231372Y-96402104D01*
X58168466Y-96358269D01*
X58122756Y-96300871D01*
X58093622Y-96229048D01*
X58080447Y-96141941D01*
X58082611Y-96038686D01*
X58086612Y-96000711D01*
X58111780Y-95859520D01*
X58152814Y-95722707D01*
X58190815Y-95628178D01*
X58210190Y-95583018D01*
X58225760Y-95544585D01*
X58235405Y-95518234D01*
X58237452Y-95510546D01*
X58228374Y-95500802D01*
X58199405Y-95484083D01*
X58150217Y-95460232D01*
X58080484Y-95429093D01*
X57989879Y-95390507D01*
X57974089Y-95383910D01*
X57901772Y-95353853D01*
X57836425Y-95326874D01*
X57780906Y-95304136D01*
X57738072Y-95286806D01*
X57710781Y-95276048D01*
X57701942Y-95272941D01*
X57697187Y-95282940D01*
X57691910Y-95309217D01*
X57688231Y-95337489D01*
X57683474Y-95367646D01*
X57674028Y-95415433D01*
X57660820Y-95476612D01*
X57644776Y-95546946D01*
X57626820Y-95622194D01*
X57619797Y-95650755D01*
X57594209Y-95755816D01*
X57574147Y-95843480D01*
X57558969Y-95918068D01*
X57548035Y-95983903D01*
X57540704Y-96045307D01*
X57536335Y-96106602D01*
X57534287Y-96172110D01*
X57533889Y-96230128D01*
X57540552Y-96399574D01*
G36*
X58146245Y-99912507D02*
G01*
X58380662Y-99912526D01*
X58593603Y-99912552D01*
X58786168Y-99912625D01*
X58959459Y-99912782D01*
X59114576Y-99913064D01*
X59252620Y-99913509D01*
X59374692Y-99914156D01*
X59481894Y-99915045D01*
X59575326Y-99916213D01*
X59656090Y-99917701D01*
X59725286Y-99919546D01*
X59784015Y-99921789D01*
X59833379Y-99924469D01*
X59874478Y-99927623D01*
X59908413Y-99931292D01*
X59936286Y-99935513D01*
X59959198Y-99940327D01*
X59978249Y-99945773D01*
X59994540Y-99951888D01*
X60009173Y-99958712D01*
X60023249Y-99966285D01*
X60037868Y-99974645D01*
X60046974Y-99979839D01*
X60107689Y-100014104D01*
X60107689Y-99155955D01*
X60011733Y-99155955D01*
X59968370Y-99155224D01*
X59935205Y-99153272D01*
X59917424Y-99150463D01*
X59915778Y-99149221D01*
X59922662Y-99137799D01*
X59940505Y-99115084D01*
X59959879Y-99092385D01*
X60000614Y-99037800D01*
X60041617Y-98968321D01*
X60079123Y-98891270D01*
X60109364Y-98813965D01*
X60119012Y-98783113D01*
X60133578Y-98714616D01*
X60143539Y-98631764D01*
X60148583Y-98542371D01*
X60148396Y-98454248D01*
X60142666Y-98375207D01*
X60136858Y-98337511D01*
X60098797Y-98199414D01*
X60041073Y-98072113D01*
X59964211Y-97956292D01*
X59868739Y-97852637D01*
X59755179Y-97761833D01*
X59644381Y-97695031D01*
X59527625Y-97640164D01*
X59408276Y-97598163D01*
X59282283Y-97568167D01*
X59145594Y-97549311D01*
X58994158Y-97540732D01*
X58916711Y-97540006D01*
X58859934Y-97542100D01*
X58859934Y-98371217D01*
X58953002Y-98371424D01*
X59040692Y-98374337D01*
X59117772Y-98380000D01*
X59179009Y-98388455D01*
X59191350Y-98391038D01*
X59298633Y-98422840D01*
X59385658Y-98464498D01*
X59452642Y-98516363D01*
X59499805Y-98578781D01*
X59527365Y-98652100D01*
X59535541Y-98736669D01*
X59524551Y-98832835D01*
X59508829Y-98896311D01*
X59490639Y-98945454D01*
X59464791Y-98999583D01*
X59441089Y-99040244D01*
X59394721Y-99110800D01*
X58244530Y-99110800D01*
X58200962Y-99043392D01*
X58160040Y-98964867D01*
X58133389Y-98880681D01*
X58121465Y-98795557D01*
X58124722Y-98714216D01*
X58143615Y-98641380D01*
X58159184Y-98609426D01*
X58202181Y-98551501D01*
X58258953Y-98502544D01*
X58331575Y-98461390D01*
X58422121Y-98426874D01*
X58532666Y-98397833D01*
X58538533Y-98396552D01*
X58600788Y-98386381D01*
X58678594Y-98378739D01*
X58766720Y-98373670D01*
X58859934Y-98371217D01*
X58859934Y-97542100D01*
X58703895Y-97547857D01*
X58508059Y-97569802D01*
X58329332Y-97605786D01*
X58167845Y-97655759D01*
X58023726Y-97719668D01*
X57897106Y-97797462D01*
X57788115Y-97889089D01*
X57696883Y-97994497D01*
X57665932Y-98039662D01*
X57609785Y-98140611D01*
X57570174Y-98243901D01*
X57546014Y-98353989D01*
X57536219Y-98475330D01*
X57537265Y-98567836D01*
X57548231Y-98697490D01*
X57570046Y-98810084D01*
X57603714Y-98908875D01*
X57650236Y-98997121D01*
X57684448Y-99045986D01*
X57706362Y-99075353D01*
X57721333Y-99097043D01*
X57725733Y-99105253D01*
X57714904Y-99106868D01*
X57684251Y-99108159D01*
X57636526Y-99109138D01*
X57574479Y-99109817D01*
X57500862Y-99110210D01*
X57418427Y-99110330D01*
X57329925Y-99110188D01*
X57238107Y-99109797D01*
X57145724Y-99109171D01*
X57055528Y-99108320D01*
X56970271Y-99107260D01*
X56892703Y-99106001D01*
X56825576Y-99104556D01*
X56771641Y-99102938D01*
X56733650Y-99101161D01*
X56726667Y-99100669D01*
X56656251Y-99093092D01*
X56601102Y-99081531D01*
X56553981Y-99063792D01*
X56507647Y-99037682D01*
X56498067Y-99031415D01*
X56461378Y-99006983D01*
X56461378Y-99912311D01*
X58146245Y-99912507D01*
G37*
X58146245Y-99912507D02*
X58380662Y-99912526D01*
X58593603Y-99912552D01*
X58786168Y-99912625D01*
X58959459Y-99912782D01*
X59114576Y-99913064D01*
X59252620Y-99913509D01*
X59374692Y-99914156D01*
X59481894Y-99915045D01*
X59575326Y-99916213D01*
X59656090Y-99917701D01*
X59725286Y-99919546D01*
X59784015Y-99921789D01*
X59833379Y-99924469D01*
X59874478Y-99927623D01*
X59908413Y-99931292D01*
X59936286Y-99935513D01*
X59959198Y-99940327D01*
X59978249Y-99945773D01*
X59994540Y-99951888D01*
X60009173Y-99958712D01*
X60023249Y-99966285D01*
X60037868Y-99974645D01*
X60046974Y-99979839D01*
X60107689Y-100014104D01*
X60107689Y-99155955D01*
X60011733Y-99155955D01*
X59968370Y-99155224D01*
X59935205Y-99153272D01*
X59917424Y-99150463D01*
X59915778Y-99149221D01*
X59922662Y-99137799D01*
X59940505Y-99115084D01*
X59959879Y-99092385D01*
X60000614Y-99037800D01*
X60041617Y-98968321D01*
X60079123Y-98891270D01*
X60109364Y-98813965D01*
X60119012Y-98783113D01*
X60133578Y-98714616D01*
X60143539Y-98631764D01*
X60148583Y-98542371D01*
X60148396Y-98454248D01*
X60142666Y-98375207D01*
X60136858Y-98337511D01*
X60098797Y-98199414D01*
X60041073Y-98072113D01*
X59964211Y-97956292D01*
X59868739Y-97852637D01*
X59755179Y-97761833D01*
X59644381Y-97695031D01*
X59527625Y-97640164D01*
X59408276Y-97598163D01*
X59282283Y-97568167D01*
X59145594Y-97549311D01*
X58994158Y-97540732D01*
X58916711Y-97540006D01*
X58859934Y-97542100D01*
X58859934Y-98371217D01*
X58953002Y-98371424D01*
X59040692Y-98374337D01*
X59117772Y-98380000D01*
X59179009Y-98388455D01*
X59191350Y-98391038D01*
X59298633Y-98422840D01*
X59385658Y-98464498D01*
X59452642Y-98516363D01*
X59499805Y-98578781D01*
X59527365Y-98652100D01*
X59535541Y-98736669D01*
X59524551Y-98832835D01*
X59508829Y-98896311D01*
X59490639Y-98945454D01*
X59464791Y-98999583D01*
X59441089Y-99040244D01*
X59394721Y-99110800D01*
X58244530Y-99110800D01*
X58200962Y-99043392D01*
X58160040Y-98964867D01*
X58133389Y-98880681D01*
X58121465Y-98795557D01*
X58124722Y-98714216D01*
X58143615Y-98641380D01*
X58159184Y-98609426D01*
X58202181Y-98551501D01*
X58258953Y-98502544D01*
X58331575Y-98461390D01*
X58422121Y-98426874D01*
X58532666Y-98397833D01*
X58538533Y-98396552D01*
X58600788Y-98386381D01*
X58678594Y-98378739D01*
X58766720Y-98373670D01*
X58859934Y-98371217D01*
X58859934Y-97542100D01*
X58703895Y-97547857D01*
X58508059Y-97569802D01*
X58329332Y-97605786D01*
X58167845Y-97655759D01*
X58023726Y-97719668D01*
X57897106Y-97797462D01*
X57788115Y-97889089D01*
X57696883Y-97994497D01*
X57665932Y-98039662D01*
X57609785Y-98140611D01*
X57570174Y-98243901D01*
X57546014Y-98353989D01*
X57536219Y-98475330D01*
X57537265Y-98567836D01*
X57548231Y-98697490D01*
X57570046Y-98810084D01*
X57603714Y-98908875D01*
X57650236Y-98997121D01*
X57684448Y-99045986D01*
X57706362Y-99075353D01*
X57721333Y-99097043D01*
X57725733Y-99105253D01*
X57714904Y-99106868D01*
X57684251Y-99108159D01*
X57636526Y-99109138D01*
X57574479Y-99109817D01*
X57500862Y-99110210D01*
X57418427Y-99110330D01*
X57329925Y-99110188D01*
X57238107Y-99109797D01*
X57145724Y-99109171D01*
X57055528Y-99108320D01*
X56970271Y-99107260D01*
X56892703Y-99106001D01*
X56825576Y-99104556D01*
X56771641Y-99102938D01*
X56733650Y-99101161D01*
X56726667Y-99100669D01*
X56656251Y-99093092D01*
X56601102Y-99081531D01*
X56553981Y-99063792D01*
X56507647Y-99037682D01*
X56498067Y-99031415D01*
X56461378Y-99006983D01*
X56461378Y-99912311D01*
X58146245Y-99912507D01*
G36*
X55700571Y-91452957D02*
G01*
X55724809Y-91549232D01*
X55767641Y-91635816D01*
X55827419Y-91710627D01*
X55902494Y-91771582D01*
X55991220Y-91816601D01*
X56087530Y-91842864D01*
X56184795Y-91848714D01*
X56278654Y-91833860D01*
X56366511Y-91800160D01*
X56445770Y-91749472D01*
X56513836Y-91683655D01*
X56568112Y-91604566D01*
X56606002Y-91514066D01*
X56618426Y-91462800D01*
X56625947Y-91418302D01*
X56628919Y-91384001D01*
X56627094Y-91351040D01*
X56620225Y-91310566D01*
X56613250Y-91277469D01*
X56581741Y-91184053D01*
X56530617Y-91100381D01*
X56461429Y-91028335D01*
X56375728Y-90969800D01*
X56348489Y-90955852D01*
X56312122Y-90939414D01*
X56281582Y-90929106D01*
X56249450Y-90923540D01*
X56208307Y-90921331D01*
X56162222Y-90921052D01*
X56077865Y-90925139D01*
X56008586Y-90938554D01*
X55947961Y-90963744D01*
X55889567Y-91003154D01*
X55845302Y-91041702D01*
X55779484Y-91113594D01*
X55734053Y-91188687D01*
X55706850Y-91271438D01*
X55696576Y-91349072D01*
X55700571Y-91452957D01*
G37*
X55700571Y-91452957D02*
X55724809Y-91549232D01*
X55767641Y-91635816D01*
X55827419Y-91710627D01*
X55902494Y-91771582D01*
X55991220Y-91816601D01*
X56087530Y-91842864D01*
X56184795Y-91848714D01*
X56278654Y-91833860D01*
X56366511Y-91800160D01*
X56445770Y-91749472D01*
X56513836Y-91683655D01*
X56568112Y-91604566D01*
X56606002Y-91514066D01*
X56618426Y-91462800D01*
X56625947Y-91418302D01*
X56628919Y-91384001D01*
X56627094Y-91351040D01*
X56620225Y-91310566D01*
X56613250Y-91277469D01*
X56581741Y-91184053D01*
X56530617Y-91100381D01*
X56461429Y-91028335D01*
X56375728Y-90969800D01*
X56348489Y-90955852D01*
X56312122Y-90939414D01*
X56281582Y-90929106D01*
X56249450Y-90923540D01*
X56208307Y-90921331D01*
X56162222Y-90921052D01*
X56077865Y-90925139D01*
X56008586Y-90938554D01*
X55947961Y-90963744D01*
X55889567Y-91003154D01*
X55845302Y-91041702D01*
X55779484Y-91113594D01*
X55734053Y-91188687D01*
X55706850Y-91271438D01*
X55696576Y-91349072D01*
X55700571Y-91452957D01*
G36*
X60943066Y-87604629D02*
G01*
X60943467Y-87644111D01*
X60946259Y-87759800D01*
X60954550Y-87856689D01*
X60969232Y-87938081D01*
X60991193Y-88007277D01*
X61021322Y-88067580D01*
X61060510Y-88122292D01*
X61077532Y-88141833D01*
X61117363Y-88174250D01*
X61171413Y-88203480D01*
X61231323Y-88226009D01*
X61288739Y-88238321D01*
X61309956Y-88239600D01*
X61368769Y-88231583D01*
X61433013Y-88210101D01*
X61493821Y-88179001D01*
X61542330Y-88142134D01*
X61548182Y-88136146D01*
X61589321Y-88085421D01*
X61621435Y-88029875D01*
X61645365Y-87966304D01*
X61661953Y-87891506D01*
X61672041Y-87802278D01*
X61676469Y-87695418D01*
X61676845Y-87646472D01*
X61676545Y-87584238D01*
X61675292Y-87540472D01*
X61672554Y-87511069D01*
X61667801Y-87491921D01*
X61660501Y-87478923D01*
X61654267Y-87471955D01*
X61646694Y-87465374D01*
X61636924Y-87460212D01*
X61622340Y-87456297D01*
X61600326Y-87453457D01*
X61568264Y-87451520D01*
X61523536Y-87450316D01*
X61463526Y-87449672D01*
X61385617Y-87449417D01*
X61309956Y-87449378D01*
X61209041Y-87449130D01*
X61128427Y-87449183D01*
X61089822Y-87450143D01*
X61089822Y-87596133D01*
X61530089Y-87596133D01*
X61530004Y-87689266D01*
X61528396Y-87745307D01*
X61524256Y-87804001D01*
X61518464Y-87852972D01*
X61518226Y-87854462D01*
X61499090Y-87933608D01*
X61469287Y-87994998D01*
X61426878Y-88041695D01*
X61380961Y-88071365D01*
X61330026Y-88089647D01*
X61282200Y-88088229D01*
X61230933Y-88067012D01*
X61177899Y-88025511D01*
X61138600Y-87968002D01*
X61112331Y-87893250D01*
X61103035Y-87843292D01*
X61096507Y-87786584D01*
X61091782Y-87726481D01*
X61089817Y-87675361D01*
X61089808Y-87672333D01*
X61089822Y-87596133D01*
X61089822Y-87450143D01*
X61065851Y-87450740D01*
X61019055Y-87455002D01*
X60985778Y-87463170D01*
X60963759Y-87476444D01*
X60950739Y-87496026D01*
X60944457Y-87523117D01*
X60942653Y-87558918D01*
X60943066Y-87604629D01*
G37*
X60943066Y-87604629D02*
X60943467Y-87644111D01*
X60946259Y-87759800D01*
X60954550Y-87856689D01*
X60969232Y-87938081D01*
X60991193Y-88007277D01*
X61021322Y-88067580D01*
X61060510Y-88122292D01*
X61077532Y-88141833D01*
X61117363Y-88174250D01*
X61171413Y-88203480D01*
X61231323Y-88226009D01*
X61288739Y-88238321D01*
X61309956Y-88239600D01*
X61368769Y-88231583D01*
X61433013Y-88210101D01*
X61493821Y-88179001D01*
X61542330Y-88142134D01*
X61548182Y-88136146D01*
X61589321Y-88085421D01*
X61621435Y-88029875D01*
X61645365Y-87966304D01*
X61661953Y-87891506D01*
X61672041Y-87802278D01*
X61676469Y-87695418D01*
X61676845Y-87646472D01*
X61676545Y-87584238D01*
X61675292Y-87540472D01*
X61672554Y-87511069D01*
X61667801Y-87491921D01*
X61660501Y-87478923D01*
X61654267Y-87471955D01*
X61646694Y-87465374D01*
X61636924Y-87460212D01*
X61622340Y-87456297D01*
X61600326Y-87453457D01*
X61568264Y-87451520D01*
X61523536Y-87450316D01*
X61463526Y-87449672D01*
X61385617Y-87449417D01*
X61309956Y-87449378D01*
X61209041Y-87449130D01*
X61128427Y-87449183D01*
X61089822Y-87450143D01*
X61089822Y-87596133D01*
X61530089Y-87596133D01*
X61530004Y-87689266D01*
X61528396Y-87745307D01*
X61524256Y-87804001D01*
X61518464Y-87852972D01*
X61518226Y-87854462D01*
X61499090Y-87933608D01*
X61469287Y-87994998D01*
X61426878Y-88041695D01*
X61380961Y-88071365D01*
X61330026Y-88089647D01*
X61282200Y-88088229D01*
X61230933Y-88067012D01*
X61177899Y-88025511D01*
X61138600Y-87968002D01*
X61112331Y-87893250D01*
X61103035Y-87843292D01*
X61096507Y-87786584D01*
X61091782Y-87726481D01*
X61089817Y-87675361D01*
X61089808Y-87672333D01*
X61089822Y-87596133D01*
X61089822Y-87450143D01*
X61065851Y-87450740D01*
X61019055Y-87455002D01*
X60985778Y-87463170D01*
X60963759Y-87476444D01*
X60950739Y-87496026D01*
X60944457Y-87523117D01*
X60942653Y-87558918D01*
X60943066Y-87604629D01*
G36*
X60943146Y-89013206D02*
G01*
X60943518Y-89082614D01*
X60944385Y-89135003D01*
X60945946Y-89173153D01*
X60948403Y-89199841D01*
X60951957Y-89217847D01*
X60956810Y-89229951D01*
X60963161Y-89238931D01*
X60966084Y-89242182D01*
X60997142Y-89261957D01*
X61032828Y-89265518D01*
X61064510Y-89252509D01*
X61070913Y-89246494D01*
X61077121Y-89236765D01*
X61081910Y-89221099D01*
X61085514Y-89196592D01*
X61088164Y-89160339D01*
X61090095Y-89109435D01*
X61091539Y-89040974D01*
X61092418Y-88978383D01*
X61095467Y-88730666D01*
X61160378Y-88727281D01*
X61225289Y-88723895D01*
X61225289Y-88892042D01*
X61225919Y-88965041D01*
X61228553Y-89018483D01*
X61234309Y-89055372D01*
X61244304Y-89078712D01*
X61259656Y-89091506D01*
X61281482Y-89096758D01*
X61301738Y-89097555D01*
X61326592Y-89095077D01*
X61344906Y-89085723D01*
X61357637Y-89066617D01*
X61365741Y-89034882D01*
X61370176Y-88987641D01*
X61371899Y-88922017D01*
X61372045Y-88886199D01*
X61372045Y-88725022D01*
X61530089Y-88725022D01*
X61530089Y-88973378D01*
X61530202Y-89054787D01*
X61530712Y-89116658D01*
X61531870Y-89162032D01*
X61533930Y-89193946D01*
X61537146Y-89215441D01*
X61541772Y-89229557D01*
X61548059Y-89239332D01*
X61552667Y-89244311D01*
X61579560Y-89261390D01*
X61603467Y-89266889D01*
X61632667Y-89259037D01*
X61654267Y-89244311D01*
X61661066Y-89236454D01*
X61666346Y-89226312D01*
X61670298Y-89211156D01*
X61673113Y-89188259D01*
X61674982Y-89154891D01*
X61676098Y-89108325D01*
X61676651Y-89045833D01*
X61676833Y-88964686D01*
X61676845Y-88922578D01*
X61676765Y-88832402D01*
X61676398Y-88762076D01*
X61675552Y-88708871D01*
X61674036Y-88670060D01*
X61671659Y-88642913D01*
X61668229Y-88624702D01*
X61663554Y-88612700D01*
X61657444Y-88604178D01*
X61654267Y-88600844D01*
X61646670Y-88594245D01*
X61636870Y-88589073D01*
X61622239Y-88585154D01*
X61600152Y-88582316D01*
X61567982Y-88580385D01*
X61523103Y-88579188D01*
X61462889Y-88578552D01*
X61384713Y-88578303D01*
X61311923Y-88578266D01*
X61218707Y-88578300D01*
X61145431Y-88578535D01*
X61089458Y-88579170D01*
X61048151Y-88580406D01*
X61018872Y-88582444D01*
X60998984Y-88585483D01*
X60985850Y-88589723D01*
X60976832Y-88595365D01*
X60969293Y-88602609D01*
X60967612Y-88604394D01*
X60960172Y-88613055D01*
X60954409Y-88623118D01*
X60950112Y-88637375D01*
X60947064Y-88658617D01*
X60945051Y-88689636D01*
X60943860Y-88733223D01*
X60943275Y-88792169D01*
X60943083Y-88869266D01*
X60943067Y-88923999D01*
X60943146Y-89013206D01*
G37*
X60943146Y-89013206D02*
X60943518Y-89082614D01*
X60944385Y-89135003D01*
X60945946Y-89173153D01*
X60948403Y-89199841D01*
X60951957Y-89217847D01*
X60956810Y-89229951D01*
X60963161Y-89238931D01*
X60966084Y-89242182D01*
X60997142Y-89261957D01*
X61032828Y-89265518D01*
X61064510Y-89252509D01*
X61070913Y-89246494D01*
X61077121Y-89236765D01*
X61081910Y-89221099D01*
X61085514Y-89196592D01*
X61088164Y-89160339D01*
X61090095Y-89109435D01*
X61091539Y-89040974D01*
X61092418Y-88978383D01*
X61095467Y-88730666D01*
X61160378Y-88727281D01*
X61225289Y-88723895D01*
X61225289Y-88892042D01*
X61225919Y-88965041D01*
X61228553Y-89018483D01*
X61234309Y-89055372D01*
X61244304Y-89078712D01*
X61259656Y-89091506D01*
X61281482Y-89096758D01*
X61301738Y-89097555D01*
X61326592Y-89095077D01*
X61344906Y-89085723D01*
X61357637Y-89066617D01*
X61365741Y-89034882D01*
X61370176Y-88987641D01*
X61371899Y-88922017D01*
X61372045Y-88886199D01*
X61372045Y-88725022D01*
X61530089Y-88725022D01*
X61530089Y-88973378D01*
X61530202Y-89054787D01*
X61530712Y-89116658D01*
X61531870Y-89162032D01*
X61533930Y-89193946D01*
X61537146Y-89215441D01*
X61541772Y-89229557D01*
X61548059Y-89239332D01*
X61552667Y-89244311D01*
X61579560Y-89261390D01*
X61603467Y-89266889D01*
X61632667Y-89259037D01*
X61654267Y-89244311D01*
X61661066Y-89236454D01*
X61666346Y-89226312D01*
X61670298Y-89211156D01*
X61673113Y-89188259D01*
X61674982Y-89154891D01*
X61676098Y-89108325D01*
X61676651Y-89045833D01*
X61676833Y-88964686D01*
X61676845Y-88922578D01*
X61676765Y-88832402D01*
X61676398Y-88762076D01*
X61675552Y-88708871D01*
X61674036Y-88670060D01*
X61671659Y-88642913D01*
X61668229Y-88624702D01*
X61663554Y-88612700D01*
X61657444Y-88604178D01*
X61654267Y-88600844D01*
X61646670Y-88594245D01*
X61636870Y-88589073D01*
X61622239Y-88585154D01*
X61600152Y-88582316D01*
X61567982Y-88580385D01*
X61523103Y-88579188D01*
X61462889Y-88578552D01*
X61384713Y-88578303D01*
X61311923Y-88578266D01*
X61218707Y-88578300D01*
X61145431Y-88578535D01*
X61089458Y-88579170D01*
X61048151Y-88580406D01*
X61018872Y-88582444D01*
X60998984Y-88585483D01*
X60985850Y-88589723D01*
X60976832Y-88595365D01*
X60969293Y-88602609D01*
X60967612Y-88604394D01*
X60960172Y-88613055D01*
X60954409Y-88623118D01*
X60950112Y-88637375D01*
X60947064Y-88658617D01*
X60945051Y-88689636D01*
X60943860Y-88733223D01*
X60943275Y-88792169D01*
X60943083Y-88869266D01*
X60943067Y-88923999D01*
X60943146Y-89013206D01*
G36*
X60944351Y-90034297D02*
G01*
X60949581Y-90109112D01*
X60957750Y-90178694D01*
X60968550Y-90238998D01*
X60981673Y-90285980D01*
X60996813Y-90315594D01*
X61001269Y-90320140D01*
X61035850Y-90335946D01*
X61071351Y-90331153D01*
X61101725Y-90306636D01*
X61102596Y-90305466D01*
X61111954Y-90291046D01*
X61116876Y-90275992D01*
X61117473Y-90254995D01*
X61113861Y-90222743D01*
X61106154Y-90173927D01*
X61105505Y-90170000D01*
X61096569Y-90097261D01*
X61092161Y-90018783D01*
X61092119Y-89940073D01*
X61096279Y-89866639D01*
X61104479Y-89803989D01*
X61116557Y-89757630D01*
X61117771Y-89754584D01*
X61136615Y-89720952D01*
X61155685Y-89709136D01*
X61174439Y-89718386D01*
X61192337Y-89747953D01*
X61208837Y-89797089D01*
X61223396Y-89865043D01*
X61230406Y-89910355D01*
X61243889Y-90004544D01*
X61256214Y-90079456D01*
X61268449Y-90138283D01*
X61281661Y-90184215D01*
X61296917Y-90220445D01*
X61315285Y-90250162D01*
X61337831Y-90276558D01*
X61359971Y-90297770D01*
X61390819Y-90322935D01*
X61417345Y-90335319D01*
X61450026Y-90339192D01*
X61461995Y-90339333D01*
X61501712Y-90336424D01*
X61531259Y-90324798D01*
X61557486Y-90304677D01*
X61597576Y-90263784D01*
X61628149Y-90218183D01*
X61650203Y-90164487D01*
X61664735Y-90099308D01*
X61672741Y-90019256D01*
X61675218Y-89920943D01*
X61675177Y-89904711D01*
X61673818Y-89839151D01*
X61670730Y-89774134D01*
X61666356Y-89716748D01*
X61661140Y-89674078D01*
X61660541Y-89670628D01*
X61650491Y-89628204D01*
X61637796Y-89592220D01*
X61626190Y-89571850D01*
X61595572Y-89552893D01*
X61559918Y-89551573D01*
X61528144Y-89567915D01*
X61524551Y-89571571D01*
X61513876Y-89586685D01*
X61509276Y-89605585D01*
X61510059Y-89634838D01*
X61514127Y-89670349D01*
X61517762Y-89710030D01*
X61520828Y-89765655D01*
X61523053Y-89830594D01*
X61524164Y-89898215D01*
X61524237Y-89916000D01*
X61523964Y-89983872D01*
X61522646Y-90033546D01*
X61519827Y-90069390D01*
X61515050Y-90095776D01*
X61507857Y-90117074D01*
X61501867Y-90129874D01*
X61485233Y-90158000D01*
X61470168Y-90175932D01*
X61465897Y-90178553D01*
X61448263Y-90173024D01*
X61431192Y-90146740D01*
X61415458Y-90101522D01*
X61401838Y-90039192D01*
X61398804Y-90020829D01*
X61383738Y-89924910D01*
X61371146Y-89848359D01*
X61360111Y-89788220D01*
X61349720Y-89741540D01*
X61339056Y-89705363D01*
X61327205Y-89676735D01*
X61313251Y-89652702D01*
X61296281Y-89630308D01*
X61275378Y-89606598D01*
X61268049Y-89598620D01*
X61240699Y-89570647D01*
X61219029Y-89555840D01*
X61194232Y-89550048D01*
X61162983Y-89549111D01*
X61101705Y-89559425D01*
X61049640Y-89590248D01*
X61006958Y-89641405D01*
X60973825Y-89712717D01*
X60958964Y-89763600D01*
X60949366Y-89818900D01*
X60943936Y-89885147D01*
X60942367Y-89958294D01*
X60944351Y-90034297D01*
G37*
X60944351Y-90034297D02*
X60949581Y-90109112D01*
X60957750Y-90178694D01*
X60968550Y-90238998D01*
X60981673Y-90285980D01*
X60996813Y-90315594D01*
X61001269Y-90320140D01*
X61035850Y-90335946D01*
X61071351Y-90331153D01*
X61101725Y-90306636D01*
X61102596Y-90305466D01*
X61111954Y-90291046D01*
X61116876Y-90275992D01*
X61117473Y-90254995D01*
X61113861Y-90222743D01*
X61106154Y-90173927D01*
X61105505Y-90170000D01*
X61096569Y-90097261D01*
X61092161Y-90018783D01*
X61092119Y-89940073D01*
X61096279Y-89866639D01*
X61104479Y-89803989D01*
X61116557Y-89757630D01*
X61117771Y-89754584D01*
X61136615Y-89720952D01*
X61155685Y-89709136D01*
X61174439Y-89718386D01*
X61192337Y-89747953D01*
X61208837Y-89797089D01*
X61223396Y-89865043D01*
X61230406Y-89910355D01*
X61243889Y-90004544D01*
X61256214Y-90079456D01*
X61268449Y-90138283D01*
X61281661Y-90184215D01*
X61296917Y-90220445D01*
X61315285Y-90250162D01*
X61337831Y-90276558D01*
X61359971Y-90297770D01*
X61390819Y-90322935D01*
X61417345Y-90335319D01*
X61450026Y-90339192D01*
X61461995Y-90339333D01*
X61501712Y-90336424D01*
X61531259Y-90324798D01*
X61557486Y-90304677D01*
X61597576Y-90263784D01*
X61628149Y-90218183D01*
X61650203Y-90164487D01*
X61664735Y-90099308D01*
X61672741Y-90019256D01*
X61675218Y-89920943D01*
X61675177Y-89904711D01*
X61673818Y-89839151D01*
X61670730Y-89774134D01*
X61666356Y-89716748D01*
X61661140Y-89674078D01*
X61660541Y-89670628D01*
X61650491Y-89628204D01*
X61637796Y-89592220D01*
X61626190Y-89571850D01*
X61595572Y-89552893D01*
X61559918Y-89551573D01*
X61528144Y-89567915D01*
X61524551Y-89571571D01*
X61513876Y-89586685D01*
X61509276Y-89605585D01*
X61510059Y-89634838D01*
X61514127Y-89670349D01*
X61517762Y-89710030D01*
X61520828Y-89765655D01*
X61523053Y-89830594D01*
X61524164Y-89898215D01*
X61524237Y-89916000D01*
X61523964Y-89983872D01*
X61522646Y-90033546D01*
X61519827Y-90069390D01*
X61515050Y-90095776D01*
X61507857Y-90117074D01*
X61501867Y-90129874D01*
X61485233Y-90158000D01*
X61470168Y-90175932D01*
X61465897Y-90178553D01*
X61448263Y-90173024D01*
X61431192Y-90146740D01*
X61415458Y-90101522D01*
X61401838Y-90039192D01*
X61398804Y-90020829D01*
X61383738Y-89924910D01*
X61371146Y-89848359D01*
X61360111Y-89788220D01*
X61349720Y-89741540D01*
X61339056Y-89705363D01*
X61327205Y-89676735D01*
X61313251Y-89652702D01*
X61296281Y-89630308D01*
X61275378Y-89606598D01*
X61268049Y-89598620D01*
X61240699Y-89570647D01*
X61219029Y-89555840D01*
X61194232Y-89550048D01*
X61162983Y-89549111D01*
X61101705Y-89559425D01*
X61049640Y-89590248D01*
X61006958Y-89641405D01*
X60973825Y-89712717D01*
X60958964Y-89763600D01*
X60949366Y-89818900D01*
X60943936Y-89885147D01*
X60942367Y-89958294D01*
X60944351Y-90034297D01*
G36*
X60965645Y-90802178D02*
G01*
X60973218Y-90808758D01*
X60982987Y-90813921D01*
X60997571Y-90817836D01*
X61019585Y-90820676D01*
X61051648Y-90822613D01*
X61096375Y-90823817D01*
X61156385Y-90824461D01*
X61234294Y-90824716D01*
X61309956Y-90824755D01*
X61403802Y-90824686D01*
X61477689Y-90824362D01*
X61534232Y-90823614D01*
X61576049Y-90822268D01*
X61605757Y-90820154D01*
X61625973Y-90817100D01*
X61639314Y-90812934D01*
X61648398Y-90807484D01*
X61654267Y-90802178D01*
X61673947Y-90769174D01*
X61672181Y-90734009D01*
X61650717Y-90702545D01*
X61642337Y-90695316D01*
X61632614Y-90689666D01*
X61618861Y-90685401D01*
X61598389Y-90682327D01*
X61568512Y-90680248D01*
X61526541Y-90678970D01*
X61469789Y-90678299D01*
X61395567Y-90678041D01*
X61311537Y-90678000D01*
X60998485Y-90678000D01*
X60970776Y-90705709D01*
X60947463Y-90739863D01*
X60946623Y-90772994D01*
X60965645Y-90802178D01*
G37*
X60965645Y-90802178D02*
X60973218Y-90808758D01*
X60982987Y-90813921D01*
X60997571Y-90817836D01*
X61019585Y-90820676D01*
X61051648Y-90822613D01*
X61096375Y-90823817D01*
X61156385Y-90824461D01*
X61234294Y-90824716D01*
X61309956Y-90824755D01*
X61403802Y-90824686D01*
X61477689Y-90824362D01*
X61534232Y-90823614D01*
X61576049Y-90822268D01*
X61605757Y-90820154D01*
X61625973Y-90817100D01*
X61639314Y-90812934D01*
X61648398Y-90807484D01*
X61654267Y-90802178D01*
X61673947Y-90769174D01*
X61672181Y-90734009D01*
X61650717Y-90702545D01*
X61642337Y-90695316D01*
X61632614Y-90689666D01*
X61618861Y-90685401D01*
X61598389Y-90682327D01*
X61568512Y-90680248D01*
X61526541Y-90678970D01*
X61469789Y-90678299D01*
X61395567Y-90678041D01*
X61311537Y-90678000D01*
X60998485Y-90678000D01*
X60970776Y-90705709D01*
X60947463Y-90739863D01*
X60946623Y-90772994D01*
X60965645Y-90802178D01*
G36*
X60948599Y-91775919D02*
G01*
X60960095Y-91844435D01*
X60977967Y-91897057D01*
X61001499Y-91931292D01*
X61014924Y-91940621D01*
X61046148Y-91950107D01*
X61074395Y-91943723D01*
X61101182Y-91923570D01*
X61113713Y-91892255D01*
X61112696Y-91846817D01*
X61105906Y-91811674D01*
X61092971Y-91733581D01*
X61091742Y-91653774D01*
X61102241Y-91564445D01*
X61106690Y-91539771D01*
X61130108Y-91456709D01*
X61164945Y-91391727D01*
X61210604Y-91345539D01*
X61266494Y-91318855D01*
X61295388Y-91313337D01*
X61354012Y-91316949D01*
X61405879Y-91340271D01*
X61449978Y-91381176D01*
X61485299Y-91437541D01*
X61510829Y-91507240D01*
X61525559Y-91588148D01*
X61528478Y-91678140D01*
X61518575Y-91775090D01*
X61517641Y-91780564D01*
X61510459Y-91819125D01*
X61503521Y-91840506D01*
X61493227Y-91849773D01*
X61475976Y-91851994D01*
X61466841Y-91852044D01*
X61428489Y-91852044D01*
X61428489Y-91783569D01*
X61424347Y-91723100D01*
X61411147Y-91681835D01*
X61387730Y-91657825D01*
X61352936Y-91649123D01*
X61348394Y-91649017D01*
X61318654Y-91654108D01*
X61297419Y-91671567D01*
X61283366Y-91704061D01*
X61275173Y-91754257D01*
X61272161Y-91802877D01*
X61270433Y-91873544D01*
X61273070Y-91924802D01*
X61282800Y-91959761D01*
X61302353Y-91981530D01*
X61334456Y-91993220D01*
X61381838Y-91997940D01*
X61444071Y-91998800D01*
X61513535Y-91997391D01*
X61560786Y-91993152D01*
X61586012Y-91986064D01*
X61587988Y-91984689D01*
X61619508Y-91945772D01*
X61644470Y-91888714D01*
X61662340Y-91817131D01*
X61672586Y-91734642D01*
X61674673Y-91644861D01*
X61668068Y-91551408D01*
X61659956Y-91496444D01*
X61635554Y-91410234D01*
X61595662Y-91330108D01*
X61543887Y-91263023D01*
X61533539Y-91252827D01*
X61490035Y-91219698D01*
X61436118Y-91189806D01*
X61379592Y-91166643D01*
X61328259Y-91153702D01*
X61308544Y-91152142D01*
X61267419Y-91158782D01*
X61216252Y-91176432D01*
X61162394Y-91201703D01*
X61113195Y-91231211D01*
X61080334Y-91257281D01*
X61031452Y-91318235D01*
X60992545Y-91397031D01*
X60964494Y-91490843D01*
X60948179Y-91596850D01*
X60944192Y-91694000D01*
X60948599Y-91775919D01*
G37*
X60948599Y-91775919D02*
X60960095Y-91844435D01*
X60977967Y-91897057D01*
X61001499Y-91931292D01*
X61014924Y-91940621D01*
X61046148Y-91950107D01*
X61074395Y-91943723D01*
X61101182Y-91923570D01*
X61113713Y-91892255D01*
X61112696Y-91846817D01*
X61105906Y-91811674D01*
X61092971Y-91733581D01*
X61091742Y-91653774D01*
X61102241Y-91564445D01*
X61106690Y-91539771D01*
X61130108Y-91456709D01*
X61164945Y-91391727D01*
X61210604Y-91345539D01*
X61266494Y-91318855D01*
X61295388Y-91313337D01*
X61354012Y-91316949D01*
X61405879Y-91340271D01*
X61449978Y-91381176D01*
X61485299Y-91437541D01*
X61510829Y-91507240D01*
X61525559Y-91588148D01*
X61528478Y-91678140D01*
X61518575Y-91775090D01*
X61517641Y-91780564D01*
X61510459Y-91819125D01*
X61503521Y-91840506D01*
X61493227Y-91849773D01*
X61475976Y-91851994D01*
X61466841Y-91852044D01*
X61428489Y-91852044D01*
X61428489Y-91783569D01*
X61424347Y-91723100D01*
X61411147Y-91681835D01*
X61387730Y-91657825D01*
X61352936Y-91649123D01*
X61348394Y-91649017D01*
X61318654Y-91654108D01*
X61297419Y-91671567D01*
X61283366Y-91704061D01*
X61275173Y-91754257D01*
X61272161Y-91802877D01*
X61270433Y-91873544D01*
X61273070Y-91924802D01*
X61282800Y-91959761D01*
X61302353Y-91981530D01*
X61334456Y-91993220D01*
X61381838Y-91997940D01*
X61444071Y-91998800D01*
X61513535Y-91997391D01*
X61560786Y-91993152D01*
X61586012Y-91986064D01*
X61587988Y-91984689D01*
X61619508Y-91945772D01*
X61644470Y-91888714D01*
X61662340Y-91817131D01*
X61672586Y-91734642D01*
X61674673Y-91644861D01*
X61668068Y-91551408D01*
X61659956Y-91496444D01*
X61635554Y-91410234D01*
X61595662Y-91330108D01*
X61543887Y-91263023D01*
X61533539Y-91252827D01*
X61490035Y-91219698D01*
X61436118Y-91189806D01*
X61379592Y-91166643D01*
X61328259Y-91153702D01*
X61308544Y-91152142D01*
X61267419Y-91158782D01*
X61216252Y-91176432D01*
X61162394Y-91201703D01*
X61113195Y-91231211D01*
X61080334Y-91257281D01*
X61031452Y-91318235D01*
X60992545Y-91397031D01*
X60964494Y-91490843D01*
X60948179Y-91596850D01*
X60944192Y-91694000D01*
X60948599Y-91775919D01*
G36*
X60947448Y-92425886D02*
G01*
X60961273Y-92449452D01*
X60983881Y-92480265D01*
X61016338Y-92519922D01*
X61059708Y-92570020D01*
X61115058Y-92632157D01*
X61183451Y-92707928D01*
X61262084Y-92794666D01*
X61425878Y-92975289D01*
X61206029Y-92980933D01*
X61130351Y-92982971D01*
X61073994Y-92984937D01*
X61033706Y-92987266D01*
X61006235Y-92990394D01*
X60988329Y-92994755D01*
X60976737Y-93000784D01*
X60968208Y-93008916D01*
X60964623Y-93013228D01*
X60945670Y-93047759D01*
X60948441Y-93080617D01*
X60964633Y-93106682D01*
X60986199Y-93133333D01*
X61301151Y-93136648D01*
X61393779Y-93137565D01*
X61466544Y-93138032D01*
X61522161Y-93137887D01*
X61563342Y-93136968D01*
X61592803Y-93135113D01*
X61613255Y-93132161D01*
X61627413Y-93127950D01*
X61637991Y-93122318D01*
X61646474Y-93116073D01*
X61662207Y-93102561D01*
X61672636Y-93089117D01*
X61676639Y-93073876D01*
X61673094Y-93054974D01*
X61660879Y-93030545D01*
X61638871Y-92998727D01*
X61605949Y-92957652D01*
X61560991Y-92905458D01*
X61502875Y-92840278D01*
X61436099Y-92766444D01*
X61195458Y-92501155D01*
X61414589Y-92495511D01*
X61490128Y-92493469D01*
X61546354Y-92491498D01*
X61586524Y-92489161D01*
X61613896Y-92486019D01*
X61631728Y-92481636D01*
X61643279Y-92475576D01*
X61651807Y-92467400D01*
X61655282Y-92463216D01*
X61674372Y-92426235D01*
X61671493Y-92391292D01*
X61647100Y-92360864D01*
X61637286Y-92353903D01*
X61625826Y-92348477D01*
X61609968Y-92344397D01*
X61586963Y-92341471D01*
X61554062Y-92339508D01*
X61508516Y-92338317D01*
X61447573Y-92337708D01*
X61368486Y-92337489D01*
X61309956Y-92337466D01*
X61218407Y-92337540D01*
X61146687Y-92337887D01*
X61092045Y-92338699D01*
X61051732Y-92340167D01*
X61022998Y-92342481D01*
X61003093Y-92345833D01*
X60989268Y-92350412D01*
X60978772Y-92356411D01*
X60972811Y-92360864D01*
X60958691Y-92372150D01*
X60948029Y-92382699D01*
X60941892Y-92394107D01*
X60941343Y-92407970D01*
X60947448Y-92425886D01*
G37*
X60947448Y-92425886D02*
X60961273Y-92449452D01*
X60983881Y-92480265D01*
X61016338Y-92519922D01*
X61059708Y-92570020D01*
X61115058Y-92632157D01*
X61183451Y-92707928D01*
X61262084Y-92794666D01*
X61425878Y-92975289D01*
X61206029Y-92980933D01*
X61130351Y-92982971D01*
X61073994Y-92984937D01*
X61033706Y-92987266D01*
X61006235Y-92990394D01*
X60988329Y-92994755D01*
X60976737Y-93000784D01*
X60968208Y-93008916D01*
X60964623Y-93013228D01*
X60945670Y-93047759D01*
X60948441Y-93080617D01*
X60964633Y-93106682D01*
X60986199Y-93133333D01*
X61301151Y-93136648D01*
X61393779Y-93137565D01*
X61466544Y-93138032D01*
X61522161Y-93137887D01*
X61563342Y-93136968D01*
X61592803Y-93135113D01*
X61613255Y-93132161D01*
X61627413Y-93127950D01*
X61637991Y-93122318D01*
X61646474Y-93116073D01*
X61662207Y-93102561D01*
X61672636Y-93089117D01*
X61676639Y-93073876D01*
X61673094Y-93054974D01*
X61660879Y-93030545D01*
X61638871Y-92998727D01*
X61605949Y-92957652D01*
X61560991Y-92905458D01*
X61502875Y-92840278D01*
X61436099Y-92766444D01*
X61195458Y-92501155D01*
X61414589Y-92495511D01*
X61490128Y-92493469D01*
X61546354Y-92491498D01*
X61586524Y-92489161D01*
X61613896Y-92486019D01*
X61631728Y-92481636D01*
X61643279Y-92475576D01*
X61651807Y-92467400D01*
X61655282Y-92463216D01*
X61674372Y-92426235D01*
X61671493Y-92391292D01*
X61647100Y-92360864D01*
X61637286Y-92353903D01*
X61625826Y-92348477D01*
X61609968Y-92344397D01*
X61586963Y-92341471D01*
X61554062Y-92339508D01*
X61508516Y-92338317D01*
X61447573Y-92337708D01*
X61368486Y-92337489D01*
X61309956Y-92337466D01*
X61218407Y-92337540D01*
X61146687Y-92337887D01*
X61092045Y-92338699D01*
X61051732Y-92340167D01*
X61022998Y-92342481D01*
X61003093Y-92345833D01*
X60989268Y-92350412D01*
X60978772Y-92356411D01*
X60972811Y-92360864D01*
X60958691Y-92372150D01*
X60948029Y-92382699D01*
X60941892Y-92394107D01*
X60941343Y-92407970D01*
X60947448Y-92425886D01*
G36*
X60943260Y-93956343D02*
G01*
X60944174Y-94032701D01*
X60946311Y-94091217D01*
X60950175Y-94134255D01*
X60956267Y-94164183D01*
X60965090Y-94183368D01*
X60977146Y-94194176D01*
X60992939Y-94198973D01*
X61012970Y-94200127D01*
X61015335Y-94200133D01*
X61037992Y-94199131D01*
X61055503Y-94194396D01*
X61068574Y-94183333D01*
X61077913Y-94163348D01*
X61084227Y-94131846D01*
X61088222Y-94086232D01*
X61090606Y-94023913D01*
X61092086Y-93942293D01*
X61092414Y-93917277D01*
X61095467Y-93675200D01*
X61160378Y-93671814D01*
X61225289Y-93668429D01*
X61225289Y-93836576D01*
X61225531Y-93902266D01*
X61226556Y-93949172D01*
X61228811Y-93981083D01*
X61232742Y-94001791D01*
X61238798Y-94015084D01*
X61247424Y-94024755D01*
X61247493Y-94024817D01*
X61281112Y-94042356D01*
X61317448Y-94041722D01*
X61348423Y-94023314D01*
X61351607Y-94019671D01*
X61359812Y-94006741D01*
X61365521Y-93989024D01*
X61369162Y-93962570D01*
X61371167Y-93923432D01*
X61371964Y-93867662D01*
X61372045Y-93831994D01*
X61372045Y-93669555D01*
X61530089Y-93669555D01*
X61530089Y-93916161D01*
X61530231Y-93997580D01*
X61530814Y-94059410D01*
X61532068Y-94104637D01*
X61534227Y-94136248D01*
X61537523Y-94157231D01*
X61542189Y-94170573D01*
X61548457Y-94179261D01*
X61550733Y-94181450D01*
X61582280Y-94197614D01*
X61618168Y-94198797D01*
X61649285Y-94185536D01*
X61659271Y-94175043D01*
X61664769Y-94164129D01*
X61669022Y-94147217D01*
X61672180Y-94121633D01*
X61674392Y-94084701D01*
X61675806Y-94033746D01*
X61676572Y-93966094D01*
X61676838Y-93879069D01*
X61676845Y-93859394D01*
X61676787Y-93770911D01*
X61676467Y-93702227D01*
X61675667Y-93650564D01*
X61674167Y-93613145D01*
X61671749Y-93587190D01*
X61668194Y-93569922D01*
X61663282Y-93558562D01*
X61656795Y-93550332D01*
X61652138Y-93545817D01*
X61643889Y-93539021D01*
X61633669Y-93533712D01*
X61618800Y-93529706D01*
X61596602Y-93526821D01*
X61564393Y-93524874D01*
X61519496Y-93523681D01*
X61459228Y-93523061D01*
X61380911Y-93522829D01*
X61314994Y-93522800D01*
X61222628Y-93522871D01*
X61150117Y-93523208D01*
X61094737Y-93523998D01*
X61053765Y-93525426D01*
X61024478Y-93527679D01*
X61004153Y-93530943D01*
X60990066Y-93535404D01*
X60979495Y-93541248D01*
X60972811Y-93546197D01*
X60943067Y-93569594D01*
X60943067Y-93859774D01*
X60943260Y-93956343D01*
G37*
X60943260Y-93956343D02*
X60944174Y-94032701D01*
X60946311Y-94091217D01*
X60950175Y-94134255D01*
X60956267Y-94164183D01*
X60965090Y-94183368D01*
X60977146Y-94194176D01*
X60992939Y-94198973D01*
X61012970Y-94200127D01*
X61015335Y-94200133D01*
X61037992Y-94199131D01*
X61055503Y-94194396D01*
X61068574Y-94183333D01*
X61077913Y-94163348D01*
X61084227Y-94131846D01*
X61088222Y-94086232D01*
X61090606Y-94023913D01*
X61092086Y-93942293D01*
X61092414Y-93917277D01*
X61095467Y-93675200D01*
X61160378Y-93671814D01*
X61225289Y-93668429D01*
X61225289Y-93836576D01*
X61225531Y-93902266D01*
X61226556Y-93949172D01*
X61228811Y-93981083D01*
X61232742Y-94001791D01*
X61238798Y-94015084D01*
X61247424Y-94024755D01*
X61247493Y-94024817D01*
X61281112Y-94042356D01*
X61317448Y-94041722D01*
X61348423Y-94023314D01*
X61351607Y-94019671D01*
X61359812Y-94006741D01*
X61365521Y-93989024D01*
X61369162Y-93962570D01*
X61371167Y-93923432D01*
X61371964Y-93867662D01*
X61372045Y-93831994D01*
X61372045Y-93669555D01*
X61530089Y-93669555D01*
X61530089Y-93916161D01*
X61530231Y-93997580D01*
X61530814Y-94059410D01*
X61532068Y-94104637D01*
X61534227Y-94136248D01*
X61537523Y-94157231D01*
X61542189Y-94170573D01*
X61548457Y-94179261D01*
X61550733Y-94181450D01*
X61582280Y-94197614D01*
X61618168Y-94198797D01*
X61649285Y-94185536D01*
X61659271Y-94175043D01*
X61664769Y-94164129D01*
X61669022Y-94147217D01*
X61672180Y-94121633D01*
X61674392Y-94084701D01*
X61675806Y-94033746D01*
X61676572Y-93966094D01*
X61676838Y-93879069D01*
X61676845Y-93859394D01*
X61676787Y-93770911D01*
X61676467Y-93702227D01*
X61675667Y-93650564D01*
X61674167Y-93613145D01*
X61671749Y-93587190D01*
X61668194Y-93569922D01*
X61663282Y-93558562D01*
X61656795Y-93550332D01*
X61652138Y-93545817D01*
X61643889Y-93539021D01*
X61633669Y-93533712D01*
X61618800Y-93529706D01*
X61596602Y-93526821D01*
X61564393Y-93524874D01*
X61519496Y-93523681D01*
X61459228Y-93523061D01*
X61380911Y-93522829D01*
X61314994Y-93522800D01*
X61222628Y-93522871D01*
X61150117Y-93523208D01*
X61094737Y-93523998D01*
X61053765Y-93525426D01*
X61024478Y-93527679D01*
X61004153Y-93530943D01*
X60990066Y-93535404D01*
X60979495Y-93541248D01*
X60972811Y-93546197D01*
X60943067Y-93569594D01*
X60943067Y-93859774D01*
X60943260Y-93956343D01*
G36*
X60943275Y-94744309D02*
G01*
X60947636Y-94873288D01*
X60960861Y-94982991D01*
X60983741Y-95075226D01*
X61017070Y-95151802D01*
X61061638Y-95214527D01*
X61118236Y-95265212D01*
X61187658Y-95305663D01*
X61189351Y-95306459D01*
X61251483Y-95330601D01*
X61306509Y-95339203D01*
X61361887Y-95332231D01*
X61425073Y-95309654D01*
X61434689Y-95305372D01*
X61490966Y-95276172D01*
X61534451Y-95243356D01*
X61571417Y-95201002D01*
X61608135Y-95143190D01*
X61610052Y-95139831D01*
X61634227Y-95089504D01*
X61652282Y-95032621D01*
X61664839Y-94965527D01*
X61672522Y-94884565D01*
X61675953Y-94786082D01*
X61676251Y-94751286D01*
X61676845Y-94585594D01*
X61647100Y-94562197D01*
X61637319Y-94555257D01*
X61625897Y-94549842D01*
X61610095Y-94545765D01*
X61587175Y-94542837D01*
X61554396Y-94540867D01*
X61530089Y-94540225D01*
X61530089Y-94696844D01*
X61530089Y-94790726D01*
X61528483Y-94845664D01*
X61524255Y-94902060D01*
X61518292Y-94948345D01*
X61517790Y-94951139D01*
X61495736Y-95033348D01*
X61462600Y-95097114D01*
X61416847Y-95144452D01*
X61356939Y-95177382D01*
X61341061Y-95183108D01*
X61316333Y-95188721D01*
X61291902Y-95186291D01*
X61259400Y-95174467D01*
X61243434Y-95167340D01*
X61201006Y-95144000D01*
X61171240Y-95115880D01*
X61150511Y-95084940D01*
X61123537Y-95022966D01*
X61103998Y-94943651D01*
X61092746Y-94851253D01*
X61090270Y-94784333D01*
X61089822Y-94696844D01*
X61530089Y-94696844D01*
X61530089Y-94540225D01*
X61509021Y-94539668D01*
X61448311Y-94539050D01*
X61369526Y-94538825D01*
X61307920Y-94538800D01*
X60998485Y-94538800D01*
X60970776Y-94566509D01*
X60959544Y-94578806D01*
X60951853Y-94592103D01*
X60947040Y-94610672D01*
X60944446Y-94638786D01*
X60943410Y-94680717D01*
X60943270Y-94740737D01*
X60943275Y-94744309D01*
G37*
X60943275Y-94744309D02*
X60947636Y-94873288D01*
X60960861Y-94982991D01*
X60983741Y-95075226D01*
X61017070Y-95151802D01*
X61061638Y-95214527D01*
X61118236Y-95265212D01*
X61187658Y-95305663D01*
X61189351Y-95306459D01*
X61251483Y-95330601D01*
X61306509Y-95339203D01*
X61361887Y-95332231D01*
X61425073Y-95309654D01*
X61434689Y-95305372D01*
X61490966Y-95276172D01*
X61534451Y-95243356D01*
X61571417Y-95201002D01*
X61608135Y-95143190D01*
X61610052Y-95139831D01*
X61634227Y-95089504D01*
X61652282Y-95032621D01*
X61664839Y-94965527D01*
X61672522Y-94884565D01*
X61675953Y-94786082D01*
X61676251Y-94751286D01*
X61676845Y-94585594D01*
X61647100Y-94562197D01*
X61637319Y-94555257D01*
X61625897Y-94549842D01*
X61610095Y-94545765D01*
X61587175Y-94542837D01*
X61554396Y-94540867D01*
X61530089Y-94540225D01*
X61530089Y-94696844D01*
X61530089Y-94790726D01*
X61528483Y-94845664D01*
X61524255Y-94902060D01*
X61518292Y-94948345D01*
X61517790Y-94951139D01*
X61495736Y-95033348D01*
X61462600Y-95097114D01*
X61416847Y-95144452D01*
X61356939Y-95177382D01*
X61341061Y-95183108D01*
X61316333Y-95188721D01*
X61291902Y-95186291D01*
X61259400Y-95174467D01*
X61243434Y-95167340D01*
X61201006Y-95144000D01*
X61171240Y-95115880D01*
X61150511Y-95084940D01*
X61123537Y-95022966D01*
X61103998Y-94943651D01*
X61092746Y-94851253D01*
X61090270Y-94784333D01*
X61089822Y-94696844D01*
X61530089Y-94696844D01*
X61530089Y-94540225D01*
X61509021Y-94539668D01*
X61448311Y-94539050D01*
X61369526Y-94538825D01*
X61307920Y-94538800D01*
X60998485Y-94538800D01*
X60970776Y-94566509D01*
X60959544Y-94578806D01*
X60951853Y-94592103D01*
X60947040Y-94610672D01*
X60944446Y-94638786D01*
X60943410Y-94680717D01*
X60943270Y-94740737D01*
X60943275Y-94744309D01*
G36*
X60945034Y-97470665D02*
G01*
X60952035Y-97490255D01*
X60952377Y-97491010D01*
X60972678Y-97517613D01*
X60993561Y-97532270D01*
X61003352Y-97535138D01*
X61016361Y-97534996D01*
X61034895Y-97530961D01*
X61061257Y-97522146D01*
X61097752Y-97507669D01*
X61146687Y-97486645D01*
X61210365Y-97458188D01*
X61291093Y-97421415D01*
X61335216Y-97401175D01*
X61413985Y-97364625D01*
X61486423Y-97330315D01*
X61549880Y-97299552D01*
X61601708Y-97273648D01*
X61639259Y-97253910D01*
X61659884Y-97241650D01*
X61662733Y-97239224D01*
X61675302Y-97208183D01*
X61673619Y-97173121D01*
X61658332Y-97145000D01*
X61657089Y-97143854D01*
X61640154Y-97132668D01*
X61607170Y-97113904D01*
X61562380Y-97089875D01*
X61510032Y-97062897D01*
X61490742Y-97053201D01*
X61344150Y-96980014D01*
X61503393Y-96900240D01*
X61558415Y-96871767D01*
X61606132Y-96845350D01*
X61642893Y-96823148D01*
X61665044Y-96807319D01*
X61669741Y-96801954D01*
X61676102Y-96760257D01*
X61662733Y-96725849D01*
X61648446Y-96715728D01*
X61616692Y-96698214D01*
X61570597Y-96674735D01*
X61513285Y-96646720D01*
X61447880Y-96615599D01*
X61377507Y-96582799D01*
X61305291Y-96549750D01*
X61234355Y-96517881D01*
X61167825Y-96488619D01*
X61108826Y-96463395D01*
X61060481Y-96443636D01*
X61025915Y-96430772D01*
X61008253Y-96426231D01*
X61007613Y-96426277D01*
X60985388Y-96437326D01*
X60962753Y-96459410D01*
X60961768Y-96460710D01*
X60946425Y-96487853D01*
X60946574Y-96512958D01*
X60949466Y-96522368D01*
X60955718Y-96533834D01*
X60968014Y-96546010D01*
X60988908Y-96560357D01*
X61020949Y-96578336D01*
X61066688Y-96601407D01*
X61128677Y-96631030D01*
X61185898Y-96657745D01*
X61252226Y-96688480D01*
X61311874Y-96716021D01*
X61361725Y-96738938D01*
X61398664Y-96755798D01*
X61419573Y-96765173D01*
X61422845Y-96766540D01*
X61417497Y-96772689D01*
X61395109Y-96786822D01*
X61358946Y-96807057D01*
X61312277Y-96831515D01*
X61293022Y-96841248D01*
X61228004Y-96874217D01*
X61180654Y-96899643D01*
X61148219Y-96919612D01*
X61127946Y-96936210D01*
X61117082Y-96951524D01*
X61112875Y-96967640D01*
X61112400Y-96978143D01*
X61114042Y-96996670D01*
X61120831Y-97012904D01*
X61135566Y-97029035D01*
X61161044Y-97047251D01*
X61200061Y-97069739D01*
X61255414Y-97098689D01*
X61286903Y-97114662D01*
X61337087Y-97140570D01*
X61378704Y-97163167D01*
X61408242Y-97180458D01*
X61422189Y-97190450D01*
X61422770Y-97191809D01*
X61411793Y-97198261D01*
X61383290Y-97212708D01*
X61340244Y-97233703D01*
X61285638Y-97259797D01*
X61222454Y-97289546D01*
X61191071Y-97304180D01*
X61110078Y-97342250D01*
X61047756Y-97372905D01*
X61002071Y-97397737D01*
X60970989Y-97418337D01*
X60952478Y-97436298D01*
X60944504Y-97453210D01*
X60945034Y-97470665D01*
G37*
X60945034Y-97470665D02*
X60952035Y-97490255D01*
X60952377Y-97491010D01*
X60972678Y-97517613D01*
X60993561Y-97532270D01*
X61003352Y-97535138D01*
X61016361Y-97534996D01*
X61034895Y-97530961D01*
X61061257Y-97522146D01*
X61097752Y-97507669D01*
X61146687Y-97486645D01*
X61210365Y-97458188D01*
X61291093Y-97421415D01*
X61335216Y-97401175D01*
X61413985Y-97364625D01*
X61486423Y-97330315D01*
X61549880Y-97299552D01*
X61601708Y-97273648D01*
X61639259Y-97253910D01*
X61659884Y-97241650D01*
X61662733Y-97239224D01*
X61675302Y-97208183D01*
X61673619Y-97173121D01*
X61658332Y-97145000D01*
X61657089Y-97143854D01*
X61640154Y-97132668D01*
X61607170Y-97113904D01*
X61562380Y-97089875D01*
X61510032Y-97062897D01*
X61490742Y-97053201D01*
X61344150Y-96980014D01*
X61503393Y-96900240D01*
X61558415Y-96871767D01*
X61606132Y-96845350D01*
X61642893Y-96823148D01*
X61665044Y-96807319D01*
X61669741Y-96801954D01*
X61676102Y-96760257D01*
X61662733Y-96725849D01*
X61648446Y-96715728D01*
X61616692Y-96698214D01*
X61570597Y-96674735D01*
X61513285Y-96646720D01*
X61447880Y-96615599D01*
X61377507Y-96582799D01*
X61305291Y-96549750D01*
X61234355Y-96517881D01*
X61167825Y-96488619D01*
X61108826Y-96463395D01*
X61060481Y-96443636D01*
X61025915Y-96430772D01*
X61008253Y-96426231D01*
X61007613Y-96426277D01*
X60985388Y-96437326D01*
X60962753Y-96459410D01*
X60961768Y-96460710D01*
X60946425Y-96487853D01*
X60946574Y-96512958D01*
X60949466Y-96522368D01*
X60955718Y-96533834D01*
X60968014Y-96546010D01*
X60988908Y-96560357D01*
X61020949Y-96578336D01*
X61066688Y-96601407D01*
X61128677Y-96631030D01*
X61185898Y-96657745D01*
X61252226Y-96688480D01*
X61311874Y-96716021D01*
X61361725Y-96738938D01*
X61398664Y-96755798D01*
X61419573Y-96765173D01*
X61422845Y-96766540D01*
X61417497Y-96772689D01*
X61395109Y-96786822D01*
X61358946Y-96807057D01*
X61312277Y-96831515D01*
X61293022Y-96841248D01*
X61228004Y-96874217D01*
X61180654Y-96899643D01*
X61148219Y-96919612D01*
X61127946Y-96936210D01*
X61117082Y-96951524D01*
X61112875Y-96967640D01*
X61112400Y-96978143D01*
X61114042Y-96996670D01*
X61120831Y-97012904D01*
X61135566Y-97029035D01*
X61161044Y-97047251D01*
X61200061Y-97069739D01*
X61255414Y-97098689D01*
X61286903Y-97114662D01*
X61337087Y-97140570D01*
X61378704Y-97163167D01*
X61408242Y-97180458D01*
X61422189Y-97190450D01*
X61422770Y-97191809D01*
X61411793Y-97198261D01*
X61383290Y-97212708D01*
X61340244Y-97233703D01*
X61285638Y-97259797D01*
X61222454Y-97289546D01*
X61191071Y-97304180D01*
X61110078Y-97342250D01*
X61047756Y-97372905D01*
X61002071Y-97397737D01*
X60970989Y-97418337D01*
X60952478Y-97436298D01*
X60944504Y-97453210D01*
X60945034Y-97470665D01*
G36*
X60949877Y-97914614D02*
G01*
X60964647Y-97938327D01*
X60986227Y-97964978D01*
X61307773Y-97964978D01*
X61401830Y-97964893D01*
X61475932Y-97964529D01*
X61532704Y-97963724D01*
X61574768Y-97962313D01*
X61604748Y-97960133D01*
X61625267Y-97957021D01*
X61638949Y-97952814D01*
X61648416Y-97947348D01*
X61653082Y-97943472D01*
X61673575Y-97912034D01*
X61672739Y-97876233D01*
X61655264Y-97844873D01*
X61633684Y-97818222D01*
X60986227Y-97818222D01*
X60964647Y-97844873D01*
X60948949Y-97870594D01*
X60943067Y-97891600D01*
X60949877Y-97914614D01*
G37*
X60949877Y-97914614D02*
X60964647Y-97938327D01*
X60986227Y-97964978D01*
X61307773Y-97964978D01*
X61401830Y-97964893D01*
X61475932Y-97964529D01*
X61532704Y-97963724D01*
X61574768Y-97962313D01*
X61604748Y-97960133D01*
X61625267Y-97957021D01*
X61638949Y-97952814D01*
X61648416Y-97947348D01*
X61653082Y-97943472D01*
X61673575Y-97912034D01*
X61672739Y-97876233D01*
X61655264Y-97844873D01*
X61633684Y-97818222D01*
X60986227Y-97818222D01*
X60964647Y-97844873D01*
X60948949Y-97870594D01*
X60943067Y-97891600D01*
X60949877Y-97914614D01*
G36*
X60943163Y-98689065D02*
G01*
X60943542Y-98767772D01*
X60944333Y-98828863D01*
X60945670Y-98874817D01*
X60947683Y-98908114D01*
X60950506Y-98931236D01*
X60954269Y-98946662D01*
X60959105Y-98956871D01*
X60962822Y-98961813D01*
X60995358Y-98987457D01*
X61029138Y-98990559D01*
X61059826Y-98974711D01*
X61072089Y-98964348D01*
X61080450Y-98953196D01*
X61085657Y-98937035D01*
X61088457Y-98911642D01*
X61089596Y-98872798D01*
X61089821Y-98816280D01*
X61089822Y-98805180D01*
X61089822Y-98659244D01*
X61360756Y-98659244D01*
X61446154Y-98659148D01*
X61511864Y-98658711D01*
X61560774Y-98657712D01*
X61595773Y-98655928D01*
X61619749Y-98653137D01*
X61635593Y-98649117D01*
X61646191Y-98643645D01*
X61654267Y-98636666D01*
X61674112Y-98603734D01*
X61672548Y-98569354D01*
X61649906Y-98538176D01*
X61647100Y-98535886D01*
X61636492Y-98528429D01*
X61624081Y-98522747D01*
X61606850Y-98518601D01*
X61581784Y-98515750D01*
X61545867Y-98513954D01*
X61496083Y-98512972D01*
X61429417Y-98512564D01*
X61353589Y-98512489D01*
X61089822Y-98512489D01*
X61089822Y-98373127D01*
X61089418Y-98313322D01*
X61087840Y-98271918D01*
X61084547Y-98244748D01*
X61078992Y-98227646D01*
X61070631Y-98216443D01*
X61069178Y-98215083D01*
X61035939Y-98198725D01*
X60998362Y-98200172D01*
X60965645Y-98218978D01*
X60959298Y-98226250D01*
X60954266Y-98235627D01*
X60950396Y-98249609D01*
X60947537Y-98270696D01*
X60945535Y-98301389D01*
X60944239Y-98344189D01*
X60943498Y-98401595D01*
X60943158Y-98476110D01*
X60943068Y-98570233D01*
X60943067Y-98590260D01*
X60943163Y-98689065D01*
G37*
X60943163Y-98689065D02*
X60943542Y-98767772D01*
X60944333Y-98828863D01*
X60945670Y-98874817D01*
X60947683Y-98908114D01*
X60950506Y-98931236D01*
X60954269Y-98946662D01*
X60959105Y-98956871D01*
X60962822Y-98961813D01*
X60995358Y-98987457D01*
X61029138Y-98990559D01*
X61059826Y-98974711D01*
X61072089Y-98964348D01*
X61080450Y-98953196D01*
X61085657Y-98937035D01*
X61088457Y-98911642D01*
X61089596Y-98872798D01*
X61089821Y-98816280D01*
X61089822Y-98805180D01*
X61089822Y-98659244D01*
X61360756Y-98659244D01*
X61446154Y-98659148D01*
X61511864Y-98658711D01*
X61560774Y-98657712D01*
X61595773Y-98655928D01*
X61619749Y-98653137D01*
X61635593Y-98649117D01*
X61646191Y-98643645D01*
X61654267Y-98636666D01*
X61674112Y-98603734D01*
X61672548Y-98569354D01*
X61649906Y-98538176D01*
X61647100Y-98535886D01*
X61636492Y-98528429D01*
X61624081Y-98522747D01*
X61606850Y-98518601D01*
X61581784Y-98515750D01*
X61545867Y-98513954D01*
X61496083Y-98512972D01*
X61429417Y-98512564D01*
X61353589Y-98512489D01*
X61089822Y-98512489D01*
X61089822Y-98373127D01*
X61089418Y-98313322D01*
X61087840Y-98271918D01*
X61084547Y-98244748D01*
X61078992Y-98227646D01*
X61070631Y-98216443D01*
X61069178Y-98215083D01*
X61035939Y-98198725D01*
X60998362Y-98200172D01*
X60965645Y-98218978D01*
X60959298Y-98226250D01*
X60954266Y-98235627D01*
X60950396Y-98249609D01*
X60947537Y-98270696D01*
X60945535Y-98301389D01*
X60944239Y-98344189D01*
X60943498Y-98401595D01*
X60943158Y-98476110D01*
X60943068Y-98570233D01*
X60943067Y-98590260D01*
X60943163Y-98689065D01*
G36*
X60948533Y-99954823D02*
G01*
X60970776Y-99986202D01*
X60998485Y-100013911D01*
X61307920Y-100013911D01*
X61399799Y-100013838D01*
X61471840Y-100013495D01*
X61526780Y-100012692D01*
X61567360Y-100011241D01*
X61596317Y-100008952D01*
X61616391Y-100005636D01*
X61630321Y-100001105D01*
X61640845Y-99995169D01*
X61647100Y-99990514D01*
X61671673Y-99959783D01*
X61674341Y-99924496D01*
X61659271Y-99892245D01*
X61650374Y-99881588D01*
X61638557Y-99874464D01*
X61619526Y-99870167D01*
X61588992Y-99867991D01*
X61542662Y-99867228D01*
X61506871Y-99867155D01*
X61372045Y-99867155D01*
X61372045Y-99370444D01*
X61494700Y-99370444D01*
X61550787Y-99369931D01*
X61589333Y-99367876D01*
X61615361Y-99363508D01*
X61633897Y-99356056D01*
X61647100Y-99347047D01*
X61671604Y-99316144D01*
X61674506Y-99281196D01*
X61657089Y-99247738D01*
X61647959Y-99238604D01*
X61635855Y-99232152D01*
X61617001Y-99227897D01*
X61587620Y-99225352D01*
X61543937Y-99224029D01*
X61482175Y-99223443D01*
X61468000Y-99223375D01*
X61351631Y-99222891D01*
X61255727Y-99222641D01*
X61178177Y-99222723D01*
X61116869Y-99223231D01*
X61069690Y-99224262D01*
X61034530Y-99225913D01*
X61009276Y-99228279D01*
X60991817Y-99231457D01*
X60980041Y-99235544D01*
X60971835Y-99240634D01*
X60965645Y-99246266D01*
X60945844Y-99278128D01*
X60948533Y-99311357D01*
X60970776Y-99342735D01*
X60985126Y-99355433D01*
X61000978Y-99363526D01*
X61023554Y-99368042D01*
X61058078Y-99370006D01*
X61109776Y-99370444D01*
X61225289Y-99370444D01*
X61225289Y-99867155D01*
X61106756Y-99867155D01*
X61052148Y-99867662D01*
X61015275Y-99869698D01*
X60991307Y-99874035D01*
X60975415Y-99881447D01*
X60965645Y-99889733D01*
X60945844Y-99921594D01*
X60948533Y-99954823D01*
G37*
X60948533Y-99954823D02*
X60970776Y-99986202D01*
X60998485Y-100013911D01*
X61307920Y-100013911D01*
X61399799Y-100013838D01*
X61471840Y-100013495D01*
X61526780Y-100012692D01*
X61567360Y-100011241D01*
X61596317Y-100008952D01*
X61616391Y-100005636D01*
X61630321Y-100001105D01*
X61640845Y-99995169D01*
X61647100Y-99990514D01*
X61671673Y-99959783D01*
X61674341Y-99924496D01*
X61659271Y-99892245D01*
X61650374Y-99881588D01*
X61638557Y-99874464D01*
X61619526Y-99870167D01*
X61588992Y-99867991D01*
X61542662Y-99867228D01*
X61506871Y-99867155D01*
X61372045Y-99867155D01*
X61372045Y-99370444D01*
X61494700Y-99370444D01*
X61550787Y-99369931D01*
X61589333Y-99367876D01*
X61615361Y-99363508D01*
X61633897Y-99356056D01*
X61647100Y-99347047D01*
X61671604Y-99316144D01*
X61674506Y-99281196D01*
X61657089Y-99247738D01*
X61647959Y-99238604D01*
X61635855Y-99232152D01*
X61617001Y-99227897D01*
X61587620Y-99225352D01*
X61543937Y-99224029D01*
X61482175Y-99223443D01*
X61468000Y-99223375D01*
X61351631Y-99222891D01*
X61255727Y-99222641D01*
X61178177Y-99222723D01*
X61116869Y-99223231D01*
X61069690Y-99224262D01*
X61034530Y-99225913D01*
X61009276Y-99228279D01*
X60991817Y-99231457D01*
X60980041Y-99235544D01*
X60971835Y-99240634D01*
X60965645Y-99246266D01*
X60945844Y-99278128D01*
X60948533Y-99311357D01*
X60970776Y-99342735D01*
X60985126Y-99355433D01*
X61000978Y-99363526D01*
X61023554Y-99368042D01*
X61058078Y-99370006D01*
X61109776Y-99370444D01*
X61225289Y-99370444D01*
X61225289Y-99867155D01*
X61106756Y-99867155D01*
X61052148Y-99867662D01*
X61015275Y-99869698D01*
X60991307Y-99874035D01*
X60975415Y-99881447D01*
X60965645Y-99889733D01*
X60945844Y-99921594D01*
X60948533Y-99954823D01*
%TD*%
M02*
