M48
; DRILL file {KiCad 5.1.7-a382d34a8~87~ubuntu20.04.1} date Thu Nov  5 15:27:09 2020
; FORMAT={-:-/ absolute / inch / decimal}
; #@! TF.CreationDate,2020-11-05T15:27:09-03:00
; #@! TF.GenerationSoftware,Kicad,Pcbnew,5.1.7-a382d34a8~87~ubuntu20.04.1
; #@! TF.FileFunction,Plated,1,2,PTH
FMAT,2
INCH
T1C0.0315
T2C0.0354
T3C0.0394
T4C0.0433
T5C0.0630
%
G90
G05
T1
X2.79Y-4.175
X2.79Y-4.475
X2.54Y-3.0
X2.54Y-3.3
X2.565Y-2.69
X2.6634Y-2.69
T2
X2.775Y-3.3869
X2.775Y-3.4853
X2.775Y-3.5837
X2.735Y-3.065
X2.835Y-3.065
X2.735Y-3.915
X2.835Y-3.915
T3
X3.005Y-2.625
X3.005Y-2.725
X3.105Y-2.625
X3.105Y-2.725
X2.125Y-2.77
X2.3219Y-2.77
X3.005Y-4.395
X3.005Y-4.495
X3.105Y-4.395
X3.105Y-4.495
T4
X2.11Y-3.6
X2.51Y-3.6
X2.11Y-3.45
X2.51Y-3.45
X2.13Y-3.175
X2.23Y-3.175
X2.33Y-3.175
X2.11Y-3.75
X2.51Y-3.75
X2.11Y-3.9
X2.51Y-3.9
T5
X2.3238Y-4.34
X2.4419Y-4.525
X2.56Y-4.34
T0
M30
