%TF.GenerationSoftware,KiCad,Pcbnew,5.1.7-a382d34a8~87~ubuntu20.04.1*%
%TF.CreationDate,2020-11-05T15:25:51-03:00*%
%TF.ProjectId,Power_Suply,506f7765-725f-4537-9570-6c792e6b6963,1*%
%TF.SameCoordinates,Original*%
%TF.FileFunction,Copper,L2,Bot*%
%TF.FilePolarity,Positive*%
%FSLAX46Y46*%
G04 Gerber Fmt 4.6, Leading zero omitted, Abs format (unit mm)*
G04 Created by KiCad (PCBNEW 5.1.7-a382d34a8~87~ubuntu20.04.1) date 2020-11-05 15:25:51*
%MOMM*%
%LPD*%
G01*
G04 APERTURE LIST*
%TA.AperFunction,ComponentPad*%
%ADD10R,2.000000X2.000000*%
%TD*%
%TA.AperFunction,ComponentPad*%
%ADD11C,2.000000*%
%TD*%
%TA.AperFunction,ComponentPad*%
%ADD12R,1.600000X1.600000*%
%TD*%
%TA.AperFunction,ComponentPad*%
%ADD13C,1.600000*%
%TD*%
%TA.AperFunction,ComponentPad*%
%ADD14O,2.200000X2.200000*%
%TD*%
%TA.AperFunction,ComponentPad*%
%ADD15R,2.200000X2.200000*%
%TD*%
%TA.AperFunction,ComponentPad*%
%ADD16R,1.800000X1.800000*%
%TD*%
%TA.AperFunction,ComponentPad*%
%ADD17C,1.800000*%
%TD*%
%TA.AperFunction,ComponentPad*%
%ADD18R,2.600000X2.600000*%
%TD*%
%TA.AperFunction,ComponentPad*%
%ADD19C,2.600000*%
%TD*%
%TA.AperFunction,ComponentPad*%
%ADD20R,1.700000X1.700000*%
%TD*%
%TA.AperFunction,ComponentPad*%
%ADD21O,1.700000X1.700000*%
%TD*%
%TA.AperFunction,ComponentPad*%
%ADD22O,1.600000X1.600000*%
%TD*%
%TA.AperFunction,ComponentPad*%
%ADD23R,1.900000X1.900000*%
%TD*%
%TA.AperFunction,ComponentPad*%
%ADD24C,1.900000*%
%TD*%
%TA.AperFunction,ComponentPad*%
%ADD25R,1.905000X2.000000*%
%TD*%
%TA.AperFunction,ComponentPad*%
%ADD26O,1.905000X2.000000*%
%TD*%
%TA.AperFunction,Conductor*%
%ADD27C,0.300000*%
%TD*%
%TA.AperFunction,Conductor*%
%ADD28C,0.254000*%
%TD*%
%TA.AperFunction,Conductor*%
%ADD29C,0.100000*%
%TD*%
G04 APERTURE END LIST*
D10*
%TO.P,C1,1*%
%TO.N,/Vin*%
X53975000Y-70358000D03*
D11*
%TO.P,C1,2*%
%TO.N,/V-*%
X58975000Y-70358000D03*
%TD*%
D12*
%TO.P,C2,1*%
%TO.N,/Vout1*%
X65151000Y-68326000D03*
D13*
%TO.P,C2,2*%
%TO.N,/V-*%
X67651000Y-68326000D03*
%TD*%
D14*
%TO.P,D1,2*%
%TO.N,Net-(D1-Pad2)*%
X63754000Y-95250000D03*
D15*
%TO.P,D1,1*%
%TO.N,/Vin*%
X53594000Y-95250000D03*
%TD*%
D14*
%TO.P,D2,2*%
%TO.N,/V-*%
X63754000Y-87630000D03*
D15*
%TO.P,D2,1*%
%TO.N,Net-(D1-Pad2)*%
X53594000Y-87630000D03*
%TD*%
%TO.P,D3,1*%
%TO.N,/Vin*%
X53594000Y-99060000D03*
D14*
%TO.P,D3,2*%
%TO.N,Net-(D3-Pad2)*%
X63754000Y-99060000D03*
%TD*%
D15*
%TO.P,D4,1*%
%TO.N,Net-(D3-Pad2)*%
X53594000Y-91440000D03*
D14*
%TO.P,D4,2*%
%TO.N,/V-*%
X63754000Y-91440000D03*
%TD*%
D16*
%TO.P,D5,1*%
%TO.N,/V-*%
X69469000Y-99441000D03*
D17*
%TO.P,D5,2*%
%TO.N,Net-(D5-Pad2)*%
X72009000Y-99441000D03*
%TD*%
%TO.P,D6,2*%
%TO.N,Net-(D6-Pad2)*%
X72009000Y-77851000D03*
D16*
%TO.P,D6,1*%
%TO.N,/V-*%
X69469000Y-77851000D03*
%TD*%
D18*
%TO.P,J1,1*%
%TO.N,Net-(D1-Pad2)*%
X65024000Y-110236000D03*
D19*
%TO.P,J1,2*%
%TO.N,Net-(D3-Pad2)*%
X59024000Y-110236000D03*
%TO.P,J1,3*%
%TO.N,Net-(J1-Pad3)*%
X62024000Y-114936000D03*
%TD*%
D20*
%TO.P,J2,1*%
%TO.N,/Vout2*%
X76327000Y-66675000D03*
D21*
%TO.P,J2,2*%
X78867000Y-66675000D03*
%TO.P,J2,3*%
%TO.N,/V-*%
X76327000Y-69215000D03*
%TO.P,J2,4*%
X78867000Y-69215000D03*
%TD*%
%TO.P,J3,4*%
%TO.N,/V-*%
X78867000Y-114173000D03*
%TO.P,J3,3*%
X76327000Y-114173000D03*
%TO.P,J3,2*%
%TO.N,/Vout2*%
X78867000Y-111633000D03*
D20*
%TO.P,J3,1*%
X76327000Y-111633000D03*
%TD*%
D13*
%TO.P,R1,1*%
%TO.N,/Vout1*%
X70866000Y-113665000D03*
D22*
%TO.P,R1,2*%
%TO.N,Net-(D5-Pad2)*%
X70866000Y-106045000D03*
%TD*%
%TO.P,R2,2*%
%TO.N,Net-(D6-Pad2)*%
X64516000Y-76200000D03*
D13*
%TO.P,R2,1*%
%TO.N,/Vout2*%
X64516000Y-83820000D03*
%TD*%
D23*
%TO.P,SW1,1*%
%TO.N,/Vout2*%
X70485000Y-91026000D03*
D24*
%TO.P,SW1,2*%
%TO.N,/Vout1*%
X70485000Y-88526000D03*
%TO.P,SW1,3*%
%TO.N,Net-(SW1-Pad3)*%
X70485000Y-86026000D03*
%TD*%
D25*
%TO.P,U1,1*%
%TO.N,/Vin*%
X54102000Y-80645000D03*
D26*
%TO.P,U1,2*%
%TO.N,/V-*%
X56642000Y-80645000D03*
%TO.P,U1,3*%
%TO.N,/Vout1*%
X59182000Y-80645000D03*
%TD*%
D27*
%TO.N,/V-*%
X78867000Y-114173000D02*
X76327000Y-114173000D01*
X76327000Y-114173000D02*
X74676000Y-114173000D01*
X74676000Y-114173000D02*
X73660000Y-113157000D01*
X73660000Y-103632000D02*
X69469000Y-99441000D01*
X73660000Y-113157000D02*
X73660000Y-103632000D01*
X63754000Y-87630000D02*
X63754000Y-87249000D01*
X56642000Y-72691000D02*
X58975000Y-70358000D01*
X56642000Y-80645000D02*
X56642000Y-72691000D01*
X65619000Y-70358000D02*
X67651000Y-68326000D01*
X58975000Y-70358000D02*
X65619000Y-70358000D01*
X78867000Y-69215000D02*
X76327000Y-69215000D01*
X75438000Y-68326000D02*
X76327000Y-69215000D01*
X67651000Y-68326000D02*
X75438000Y-68326000D01*
X63754000Y-91440000D02*
X63754000Y-87630000D01*
X63754000Y-87630000D02*
X60960000Y-87630000D01*
X56642000Y-83312000D02*
X56642000Y-80645000D01*
X60960000Y-87630000D02*
X56642000Y-83312000D01*
X63754000Y-91440000D02*
X63754000Y-91948000D01*
X69469000Y-97663000D02*
X69469000Y-99441000D01*
X63754000Y-91948000D02*
X69469000Y-97663000D01*
X69469000Y-77851000D02*
X69469000Y-78867000D01*
X69469000Y-78867000D02*
X66548000Y-81788000D01*
X66548000Y-84836000D02*
X63754000Y-87630000D01*
X66548000Y-81788000D02*
X66548000Y-84836000D01*
%TO.N,Net-(D3-Pad2)*%
X59024000Y-103790000D02*
X63754000Y-99060000D01*
X59024000Y-110236000D02*
X59024000Y-103790000D01*
X61214000Y-99060000D02*
X53594000Y-91440000D01*
X63754000Y-99060000D02*
X61214000Y-99060000D01*
%TD*%
D28*
%TO.N,/V-*%
X80112001Y-65865346D02*
X80020475Y-65728368D01*
X79813632Y-65521525D01*
X79570411Y-65359010D01*
X79300158Y-65247068D01*
X79013260Y-65190000D01*
X78720740Y-65190000D01*
X78433842Y-65247068D01*
X78163589Y-65359010D01*
X77920368Y-65521525D01*
X77788513Y-65653380D01*
X77766502Y-65580820D01*
X77707537Y-65470506D01*
X77628185Y-65373815D01*
X77531494Y-65294463D01*
X77421180Y-65235498D01*
X77301482Y-65199188D01*
X77177000Y-65186928D01*
X75477000Y-65186928D01*
X75352518Y-65199188D01*
X75232820Y-65235498D01*
X75122506Y-65294463D01*
X75025815Y-65373815D01*
X74946463Y-65470506D01*
X74887498Y-65580820D01*
X74851188Y-65700518D01*
X74838928Y-65825000D01*
X74838928Y-67525000D01*
X74851188Y-67649482D01*
X74887498Y-67769180D01*
X74946463Y-67879494D01*
X75025815Y-67976185D01*
X75122506Y-68055537D01*
X75232820Y-68114502D01*
X75313466Y-68138966D01*
X75229412Y-68214731D01*
X75055359Y-68448080D01*
X74930175Y-68710901D01*
X74885524Y-68858110D01*
X75006845Y-69088000D01*
X76200000Y-69088000D01*
X76200000Y-69068000D01*
X76454000Y-69068000D01*
X76454000Y-69088000D01*
X78740000Y-69088000D01*
X78740000Y-69068000D01*
X78994000Y-69068000D01*
X78994000Y-69088000D01*
X79014000Y-69088000D01*
X79014000Y-69342000D01*
X78994000Y-69342000D01*
X78994000Y-70535814D01*
X79223891Y-70656481D01*
X79498252Y-70559157D01*
X79748355Y-70410178D01*
X79964588Y-70215269D01*
X80112000Y-70017637D01*
X80112000Y-71095000D01*
X74581419Y-71095000D01*
X74549000Y-71091807D01*
X74516581Y-71095000D01*
X74419617Y-71104550D01*
X74295207Y-71142290D01*
X74180550Y-71203575D01*
X74109242Y-71262096D01*
X74097443Y-71268403D01*
X74078197Y-71284197D01*
X74062403Y-71303443D01*
X74056096Y-71315242D01*
X73997575Y-71386550D01*
X73936290Y-71501207D01*
X73898550Y-71625617D01*
X73885807Y-71755000D01*
X73889001Y-71787429D01*
X73889000Y-109695581D01*
X73885807Y-109728000D01*
X73898550Y-109857383D01*
X73936290Y-109981793D01*
X73997575Y-110096450D01*
X74047422Y-110157188D01*
X74080052Y-110196948D01*
X74180550Y-110279425D01*
X74295207Y-110340710D01*
X74419617Y-110378450D01*
X74549000Y-110391193D01*
X74581419Y-110388000D01*
X74979705Y-110388000D01*
X74946463Y-110428506D01*
X74887498Y-110538820D01*
X74851188Y-110658518D01*
X74838928Y-110783000D01*
X74838928Y-112483000D01*
X74851188Y-112607482D01*
X74887498Y-112727180D01*
X74946463Y-112837494D01*
X75025815Y-112934185D01*
X75122506Y-113013537D01*
X75232820Y-113072502D01*
X75313466Y-113096966D01*
X75229412Y-113172731D01*
X75055359Y-113406080D01*
X74930175Y-113668901D01*
X74885524Y-113816110D01*
X75006845Y-114046000D01*
X76200000Y-114046000D01*
X76200000Y-114026000D01*
X76454000Y-114026000D01*
X76454000Y-114046000D01*
X78740000Y-114046000D01*
X78740000Y-114026000D01*
X78994000Y-114026000D01*
X78994000Y-114046000D01*
X79014000Y-114046000D01*
X79014000Y-114300000D01*
X78994000Y-114300000D01*
X78994000Y-115493814D01*
X79223891Y-115614481D01*
X79498252Y-115517157D01*
X79748355Y-115368178D01*
X79964588Y-115173269D01*
X80112000Y-114975637D01*
X80112000Y-116053000D01*
X63604850Y-116053000D01*
X63738775Y-115852566D01*
X63884639Y-115500419D01*
X63959000Y-115126581D01*
X63959000Y-114745419D01*
X63884639Y-114371581D01*
X63738775Y-114019434D01*
X63527013Y-113702509D01*
X63348169Y-113523665D01*
X69431000Y-113523665D01*
X69431000Y-113806335D01*
X69486147Y-114083574D01*
X69594320Y-114344727D01*
X69751363Y-114579759D01*
X69951241Y-114779637D01*
X70186273Y-114936680D01*
X70447426Y-115044853D01*
X70724665Y-115100000D01*
X71007335Y-115100000D01*
X71284574Y-115044853D01*
X71545727Y-114936680D01*
X71780759Y-114779637D01*
X71980637Y-114579759D01*
X72013958Y-114529890D01*
X74885524Y-114529890D01*
X74930175Y-114677099D01*
X75055359Y-114939920D01*
X75229412Y-115173269D01*
X75445645Y-115368178D01*
X75695748Y-115517157D01*
X75970109Y-115614481D01*
X76200000Y-115493814D01*
X76200000Y-114300000D01*
X76454000Y-114300000D01*
X76454000Y-115493814D01*
X76683891Y-115614481D01*
X76958252Y-115517157D01*
X77208355Y-115368178D01*
X77424588Y-115173269D01*
X77597000Y-114942120D01*
X77769412Y-115173269D01*
X77985645Y-115368178D01*
X78235748Y-115517157D01*
X78510109Y-115614481D01*
X78740000Y-115493814D01*
X78740000Y-114300000D01*
X76454000Y-114300000D01*
X76200000Y-114300000D01*
X75006845Y-114300000D01*
X74885524Y-114529890D01*
X72013958Y-114529890D01*
X72137680Y-114344727D01*
X72245853Y-114083574D01*
X72301000Y-113806335D01*
X72301000Y-113523665D01*
X72245853Y-113246426D01*
X72137680Y-112985273D01*
X71980637Y-112750241D01*
X71780759Y-112550363D01*
X71545727Y-112393320D01*
X71284574Y-112285147D01*
X71007335Y-112230000D01*
X70724665Y-112230000D01*
X70447426Y-112285147D01*
X70186273Y-112393320D01*
X69951241Y-112550363D01*
X69751363Y-112750241D01*
X69594320Y-112985273D01*
X69486147Y-113246426D01*
X69431000Y-113523665D01*
X63348169Y-113523665D01*
X63257491Y-113432987D01*
X62940566Y-113221225D01*
X62588419Y-113075361D01*
X62214581Y-113001000D01*
X61833419Y-113001000D01*
X61459581Y-113075361D01*
X61107434Y-113221225D01*
X60790509Y-113432987D01*
X60520987Y-113702509D01*
X60309225Y-114019434D01*
X60163361Y-114371581D01*
X60089000Y-114745419D01*
X60089000Y-115126581D01*
X60163361Y-115500419D01*
X60309225Y-115852566D01*
X60443150Y-116053000D01*
X51333000Y-116053000D01*
X51333000Y-97960000D01*
X51855928Y-97960000D01*
X51855928Y-100160000D01*
X51868188Y-100284482D01*
X51904498Y-100404180D01*
X51963463Y-100514494D01*
X52042815Y-100611185D01*
X52139506Y-100690537D01*
X52249820Y-100749502D01*
X52369518Y-100785812D01*
X52494000Y-100798072D01*
X54694000Y-100798072D01*
X54818482Y-100785812D01*
X54938180Y-100749502D01*
X55048494Y-100690537D01*
X55145185Y-100611185D01*
X55224537Y-100514494D01*
X55283502Y-100404180D01*
X55319812Y-100284482D01*
X55332072Y-100160000D01*
X55332072Y-97960000D01*
X55319812Y-97835518D01*
X55283502Y-97715820D01*
X55224537Y-97605506D01*
X55145185Y-97508815D01*
X55048494Y-97429463D01*
X54938180Y-97370498D01*
X54818482Y-97334188D01*
X54694000Y-97321928D01*
X52494000Y-97321928D01*
X52369518Y-97334188D01*
X52249820Y-97370498D01*
X52139506Y-97429463D01*
X52042815Y-97508815D01*
X51963463Y-97605506D01*
X51904498Y-97715820D01*
X51868188Y-97835518D01*
X51855928Y-97960000D01*
X51333000Y-97960000D01*
X51333000Y-90340000D01*
X51855928Y-90340000D01*
X51855928Y-92540000D01*
X51868188Y-92664482D01*
X51904498Y-92784180D01*
X51963463Y-92894494D01*
X52042815Y-92991185D01*
X52139506Y-93070537D01*
X52249820Y-93129502D01*
X52369518Y-93165812D01*
X52494000Y-93178072D01*
X54221915Y-93178072D01*
X54555771Y-93511928D01*
X52494000Y-93511928D01*
X52369518Y-93524188D01*
X52249820Y-93560498D01*
X52139506Y-93619463D01*
X52042815Y-93698815D01*
X51963463Y-93795506D01*
X51904498Y-93905820D01*
X51868188Y-94025518D01*
X51855928Y-94150000D01*
X51855928Y-96350000D01*
X51868188Y-96474482D01*
X51904498Y-96594180D01*
X51963463Y-96704494D01*
X52042815Y-96801185D01*
X52139506Y-96880537D01*
X52249820Y-96939502D01*
X52369518Y-96975812D01*
X52494000Y-96988072D01*
X54694000Y-96988072D01*
X54818482Y-96975812D01*
X54938180Y-96939502D01*
X55048494Y-96880537D01*
X55145185Y-96801185D01*
X55224537Y-96704494D01*
X55283502Y-96594180D01*
X55319812Y-96474482D01*
X55332072Y-96350000D01*
X55332072Y-94288229D01*
X60631655Y-99587813D01*
X60656236Y-99617764D01*
X60686184Y-99642342D01*
X60686187Y-99642345D01*
X60715559Y-99666450D01*
X60775767Y-99715862D01*
X60912140Y-99788754D01*
X61025672Y-99823194D01*
X61060112Y-99833641D01*
X61074490Y-99835057D01*
X61175439Y-99845000D01*
X61175446Y-99845000D01*
X61213999Y-99848797D01*
X61252552Y-99845000D01*
X61858842Y-99845000D01*
X58496185Y-103207658D01*
X58466237Y-103232236D01*
X58441659Y-103262184D01*
X58441655Y-103262188D01*
X58408690Y-103302356D01*
X58368139Y-103351767D01*
X58329177Y-103424660D01*
X58295246Y-103488141D01*
X58250359Y-103636114D01*
X58235203Y-103790000D01*
X58239001Y-103828563D01*
X58239000Y-108466728D01*
X58107434Y-108521225D01*
X57790509Y-108732987D01*
X57520987Y-109002509D01*
X57309225Y-109319434D01*
X57163361Y-109671581D01*
X57089000Y-110045419D01*
X57089000Y-110426581D01*
X57163361Y-110800419D01*
X57309225Y-111152566D01*
X57520987Y-111469491D01*
X57790509Y-111739013D01*
X58107434Y-111950775D01*
X58459581Y-112096639D01*
X58833419Y-112171000D01*
X59214581Y-112171000D01*
X59588419Y-112096639D01*
X59940566Y-111950775D01*
X60257491Y-111739013D01*
X60527013Y-111469491D01*
X60738775Y-111152566D01*
X60884639Y-110800419D01*
X60959000Y-110426581D01*
X60959000Y-110045419D01*
X60884639Y-109671581D01*
X60738775Y-109319434D01*
X60527013Y-109002509D01*
X60460504Y-108936000D01*
X63085928Y-108936000D01*
X63085928Y-111536000D01*
X63098188Y-111660482D01*
X63134498Y-111780180D01*
X63193463Y-111890494D01*
X63272815Y-111987185D01*
X63369506Y-112066537D01*
X63479820Y-112125502D01*
X63599518Y-112161812D01*
X63724000Y-112174072D01*
X66324000Y-112174072D01*
X66448482Y-112161812D01*
X66568180Y-112125502D01*
X66678494Y-112066537D01*
X66775185Y-111987185D01*
X66854537Y-111890494D01*
X66913502Y-111780180D01*
X66949812Y-111660482D01*
X66962072Y-111536000D01*
X66962072Y-108936000D01*
X66949812Y-108811518D01*
X66913502Y-108691820D01*
X66854537Y-108581506D01*
X66775185Y-108484815D01*
X66678494Y-108405463D01*
X66568180Y-108346498D01*
X66448482Y-108310188D01*
X66324000Y-108297928D01*
X63724000Y-108297928D01*
X63599518Y-108310188D01*
X63479820Y-108346498D01*
X63369506Y-108405463D01*
X63272815Y-108484815D01*
X63193463Y-108581506D01*
X63134498Y-108691820D01*
X63098188Y-108811518D01*
X63085928Y-108936000D01*
X60460504Y-108936000D01*
X60257491Y-108732987D01*
X59940566Y-108521225D01*
X59809000Y-108466729D01*
X59809000Y-105903665D01*
X69431000Y-105903665D01*
X69431000Y-106186335D01*
X69486147Y-106463574D01*
X69594320Y-106724727D01*
X69751363Y-106959759D01*
X69951241Y-107159637D01*
X70186273Y-107316680D01*
X70447426Y-107424853D01*
X70724665Y-107480000D01*
X71007335Y-107480000D01*
X71284574Y-107424853D01*
X71545727Y-107316680D01*
X71780759Y-107159637D01*
X71980637Y-106959759D01*
X72137680Y-106724727D01*
X72245853Y-106463574D01*
X72301000Y-106186335D01*
X72301000Y-105903665D01*
X72245853Y-105626426D01*
X72137680Y-105365273D01*
X71980637Y-105130241D01*
X71780759Y-104930363D01*
X71545727Y-104773320D01*
X71284574Y-104665147D01*
X71007335Y-104610000D01*
X70724665Y-104610000D01*
X70447426Y-104665147D01*
X70186273Y-104773320D01*
X69951241Y-104930363D01*
X69751363Y-105130241D01*
X69594320Y-105365273D01*
X69486147Y-105626426D01*
X69431000Y-105903665D01*
X59809000Y-105903665D01*
X59809000Y-104115157D01*
X63211088Y-100713069D01*
X63247919Y-100728325D01*
X63583117Y-100795000D01*
X63924883Y-100795000D01*
X64260081Y-100728325D01*
X64575831Y-100597537D01*
X64859998Y-100407663D01*
X64926661Y-100341000D01*
X67930928Y-100341000D01*
X67943188Y-100465482D01*
X67979498Y-100585180D01*
X68038463Y-100695494D01*
X68117815Y-100792185D01*
X68214506Y-100871537D01*
X68324820Y-100930502D01*
X68444518Y-100966812D01*
X68569000Y-100979072D01*
X69183250Y-100976000D01*
X69342000Y-100817250D01*
X69342000Y-99568000D01*
X68092750Y-99568000D01*
X67934000Y-99726750D01*
X67930928Y-100341000D01*
X64926661Y-100341000D01*
X65101663Y-100165998D01*
X65291537Y-99881831D01*
X65422325Y-99566081D01*
X65489000Y-99230883D01*
X65489000Y-98889117D01*
X65422325Y-98553919D01*
X65416974Y-98541000D01*
X67930928Y-98541000D01*
X67934000Y-99155250D01*
X68092750Y-99314000D01*
X69342000Y-99314000D01*
X69342000Y-98064750D01*
X69596000Y-98064750D01*
X69596000Y-99314000D01*
X69616000Y-99314000D01*
X69616000Y-99568000D01*
X69596000Y-99568000D01*
X69596000Y-100817250D01*
X69754750Y-100976000D01*
X70369000Y-100979072D01*
X70493482Y-100966812D01*
X70613180Y-100930502D01*
X70723494Y-100871537D01*
X70820185Y-100792185D01*
X70899537Y-100695494D01*
X70958502Y-100585180D01*
X70964056Y-100566873D01*
X71030495Y-100633312D01*
X71281905Y-100801299D01*
X71561257Y-100917011D01*
X71857816Y-100976000D01*
X72160184Y-100976000D01*
X72456743Y-100917011D01*
X72736095Y-100801299D01*
X72987505Y-100633312D01*
X73201312Y-100419505D01*
X73369299Y-100168095D01*
X73485011Y-99888743D01*
X73544000Y-99592184D01*
X73544000Y-99289816D01*
X73485011Y-98993257D01*
X73369299Y-98713905D01*
X73201312Y-98462495D01*
X72987505Y-98248688D01*
X72736095Y-98080701D01*
X72456743Y-97964989D01*
X72160184Y-97906000D01*
X71857816Y-97906000D01*
X71561257Y-97964989D01*
X71281905Y-98080701D01*
X71030495Y-98248688D01*
X70964056Y-98315127D01*
X70958502Y-98296820D01*
X70899537Y-98186506D01*
X70820185Y-98089815D01*
X70723494Y-98010463D01*
X70613180Y-97951498D01*
X70493482Y-97915188D01*
X70369000Y-97902928D01*
X69754750Y-97906000D01*
X69596000Y-98064750D01*
X69342000Y-98064750D01*
X69183250Y-97906000D01*
X68569000Y-97902928D01*
X68444518Y-97915188D01*
X68324820Y-97951498D01*
X68214506Y-98010463D01*
X68117815Y-98089815D01*
X68038463Y-98186506D01*
X67979498Y-98296820D01*
X67943188Y-98416518D01*
X67930928Y-98541000D01*
X65416974Y-98541000D01*
X65291537Y-98238169D01*
X65101663Y-97954002D01*
X64859998Y-97712337D01*
X64575831Y-97522463D01*
X64260081Y-97391675D01*
X63924883Y-97325000D01*
X63583117Y-97325000D01*
X63247919Y-97391675D01*
X62932169Y-97522463D01*
X62648002Y-97712337D01*
X62406337Y-97954002D01*
X62216463Y-98238169D01*
X62201207Y-98275000D01*
X61539158Y-98275000D01*
X58343275Y-95079117D01*
X62019000Y-95079117D01*
X62019000Y-95420883D01*
X62085675Y-95756081D01*
X62216463Y-96071831D01*
X62406337Y-96355998D01*
X62648002Y-96597663D01*
X62932169Y-96787537D01*
X63247919Y-96918325D01*
X63583117Y-96985000D01*
X63924883Y-96985000D01*
X64260081Y-96918325D01*
X64575831Y-96787537D01*
X64859998Y-96597663D01*
X65101663Y-96355998D01*
X65291537Y-96071831D01*
X65422325Y-95756081D01*
X65489000Y-95420883D01*
X65489000Y-95079117D01*
X65422325Y-94743919D01*
X65291537Y-94428169D01*
X65101663Y-94144002D01*
X64859998Y-93902337D01*
X64575831Y-93712463D01*
X64260081Y-93581675D01*
X63924883Y-93515000D01*
X63583117Y-93515000D01*
X63247919Y-93581675D01*
X62932169Y-93712463D01*
X62648002Y-93902337D01*
X62406337Y-94144002D01*
X62216463Y-94428169D01*
X62085675Y-94743919D01*
X62019000Y-95079117D01*
X58343275Y-95079117D01*
X55332072Y-92067915D01*
X55332072Y-91836122D01*
X62064825Y-91836122D01*
X62129425Y-92049094D01*
X62279469Y-92354329D01*
X62486178Y-92624427D01*
X62741609Y-92849008D01*
X63035946Y-93019442D01*
X63357877Y-93129179D01*
X63627000Y-93011600D01*
X63627000Y-91567000D01*
X63881000Y-91567000D01*
X63881000Y-93011600D01*
X64150123Y-93129179D01*
X64472054Y-93019442D01*
X64766391Y-92849008D01*
X65021822Y-92624427D01*
X65228531Y-92354329D01*
X65378575Y-92049094D01*
X65443175Y-91836122D01*
X65325125Y-91567000D01*
X63881000Y-91567000D01*
X63627000Y-91567000D01*
X62182875Y-91567000D01*
X62064825Y-91836122D01*
X55332072Y-91836122D01*
X55332072Y-91043878D01*
X62064825Y-91043878D01*
X62182875Y-91313000D01*
X63627000Y-91313000D01*
X63627000Y-89868400D01*
X63881000Y-89868400D01*
X63881000Y-91313000D01*
X65325125Y-91313000D01*
X65443175Y-91043878D01*
X65378575Y-90830906D01*
X65228531Y-90525671D01*
X65021822Y-90255573D01*
X64817582Y-90076000D01*
X68896928Y-90076000D01*
X68896928Y-91976000D01*
X68909188Y-92100482D01*
X68945498Y-92220180D01*
X69004463Y-92330494D01*
X69083815Y-92427185D01*
X69180506Y-92506537D01*
X69290820Y-92565502D01*
X69410518Y-92601812D01*
X69535000Y-92614072D01*
X71435000Y-92614072D01*
X71559482Y-92601812D01*
X71679180Y-92565502D01*
X71789494Y-92506537D01*
X71886185Y-92427185D01*
X71965537Y-92330494D01*
X72024502Y-92220180D01*
X72060812Y-92100482D01*
X72073072Y-91976000D01*
X72073072Y-90076000D01*
X72060812Y-89951518D01*
X72024502Y-89831820D01*
X71965537Y-89721506D01*
X71886185Y-89624815D01*
X71789494Y-89545463D01*
X71730979Y-89514186D01*
X71889609Y-89276779D01*
X72009089Y-88988327D01*
X72070000Y-88682109D01*
X72070000Y-88369891D01*
X72009089Y-88063673D01*
X71889609Y-87775221D01*
X71716150Y-87515621D01*
X71495379Y-87294850D01*
X71467168Y-87276000D01*
X71495379Y-87257150D01*
X71716150Y-87036379D01*
X71889609Y-86776779D01*
X72009089Y-86488327D01*
X72070000Y-86182109D01*
X72070000Y-85869891D01*
X72009089Y-85563673D01*
X71889609Y-85275221D01*
X71716150Y-85015621D01*
X71495379Y-84794850D01*
X71235779Y-84621391D01*
X70947327Y-84501911D01*
X70641109Y-84441000D01*
X70328891Y-84441000D01*
X70022673Y-84501911D01*
X69734221Y-84621391D01*
X69474621Y-84794850D01*
X69253850Y-85015621D01*
X69080391Y-85275221D01*
X68960911Y-85563673D01*
X68900000Y-85869891D01*
X68900000Y-86182109D01*
X68960911Y-86488327D01*
X69080391Y-86776779D01*
X69253850Y-87036379D01*
X69474621Y-87257150D01*
X69502832Y-87276000D01*
X69474621Y-87294850D01*
X69253850Y-87515621D01*
X69080391Y-87775221D01*
X68960911Y-88063673D01*
X68900000Y-88369891D01*
X68900000Y-88682109D01*
X68960911Y-88988327D01*
X69080391Y-89276779D01*
X69239021Y-89514186D01*
X69180506Y-89545463D01*
X69083815Y-89624815D01*
X69004463Y-89721506D01*
X68945498Y-89831820D01*
X68909188Y-89951518D01*
X68896928Y-90076000D01*
X64817582Y-90076000D01*
X64766391Y-90030992D01*
X64472054Y-89860558D01*
X64150123Y-89750821D01*
X63881000Y-89868400D01*
X63627000Y-89868400D01*
X63357877Y-89750821D01*
X63035946Y-89860558D01*
X62741609Y-90030992D01*
X62486178Y-90255573D01*
X62279469Y-90525671D01*
X62129425Y-90830906D01*
X62064825Y-91043878D01*
X55332072Y-91043878D01*
X55332072Y-90340000D01*
X55319812Y-90215518D01*
X55283502Y-90095820D01*
X55224537Y-89985506D01*
X55145185Y-89888815D01*
X55048494Y-89809463D01*
X54938180Y-89750498D01*
X54818482Y-89714188D01*
X54694000Y-89701928D01*
X52494000Y-89701928D01*
X52369518Y-89714188D01*
X52249820Y-89750498D01*
X52139506Y-89809463D01*
X52042815Y-89888815D01*
X51963463Y-89985506D01*
X51904498Y-90095820D01*
X51868188Y-90215518D01*
X51855928Y-90340000D01*
X51333000Y-90340000D01*
X51333000Y-86530000D01*
X51855928Y-86530000D01*
X51855928Y-88730000D01*
X51868188Y-88854482D01*
X51904498Y-88974180D01*
X51963463Y-89084494D01*
X52042815Y-89181185D01*
X52139506Y-89260537D01*
X52249820Y-89319502D01*
X52369518Y-89355812D01*
X52494000Y-89368072D01*
X54694000Y-89368072D01*
X54818482Y-89355812D01*
X54938180Y-89319502D01*
X55048494Y-89260537D01*
X55145185Y-89181185D01*
X55224537Y-89084494D01*
X55283502Y-88974180D01*
X55319812Y-88854482D01*
X55332072Y-88730000D01*
X55332072Y-88026122D01*
X62064825Y-88026122D01*
X62129425Y-88239094D01*
X62279469Y-88544329D01*
X62486178Y-88814427D01*
X62741609Y-89039008D01*
X63035946Y-89209442D01*
X63357877Y-89319179D01*
X63627000Y-89201600D01*
X63627000Y-87757000D01*
X63881000Y-87757000D01*
X63881000Y-89201600D01*
X64150123Y-89319179D01*
X64472054Y-89209442D01*
X64766391Y-89039008D01*
X65021822Y-88814427D01*
X65228531Y-88544329D01*
X65378575Y-88239094D01*
X65443175Y-88026122D01*
X65325125Y-87757000D01*
X63881000Y-87757000D01*
X63627000Y-87757000D01*
X62182875Y-87757000D01*
X62064825Y-88026122D01*
X55332072Y-88026122D01*
X55332072Y-87233878D01*
X62064825Y-87233878D01*
X62182875Y-87503000D01*
X63627000Y-87503000D01*
X63627000Y-86058400D01*
X63881000Y-86058400D01*
X63881000Y-87503000D01*
X65325125Y-87503000D01*
X65443175Y-87233878D01*
X65378575Y-87020906D01*
X65228531Y-86715671D01*
X65021822Y-86445573D01*
X64766391Y-86220992D01*
X64472054Y-86050558D01*
X64150123Y-85940821D01*
X63881000Y-86058400D01*
X63627000Y-86058400D01*
X63357877Y-85940821D01*
X63035946Y-86050558D01*
X62741609Y-86220992D01*
X62486178Y-86445573D01*
X62279469Y-86715671D01*
X62129425Y-87020906D01*
X62064825Y-87233878D01*
X55332072Y-87233878D01*
X55332072Y-86530000D01*
X55319812Y-86405518D01*
X55283502Y-86285820D01*
X55224537Y-86175506D01*
X55145185Y-86078815D01*
X55048494Y-85999463D01*
X54938180Y-85940498D01*
X54818482Y-85904188D01*
X54694000Y-85891928D01*
X52494000Y-85891928D01*
X52369518Y-85904188D01*
X52249820Y-85940498D01*
X52139506Y-85999463D01*
X52042815Y-86078815D01*
X51963463Y-86175506D01*
X51904498Y-86285820D01*
X51868188Y-86405518D01*
X51855928Y-86530000D01*
X51333000Y-86530000D01*
X51333000Y-83678665D01*
X63081000Y-83678665D01*
X63081000Y-83961335D01*
X63136147Y-84238574D01*
X63244320Y-84499727D01*
X63401363Y-84734759D01*
X63601241Y-84934637D01*
X63836273Y-85091680D01*
X64097426Y-85199853D01*
X64374665Y-85255000D01*
X64657335Y-85255000D01*
X64934574Y-85199853D01*
X65195727Y-85091680D01*
X65430759Y-84934637D01*
X65630637Y-84734759D01*
X65787680Y-84499727D01*
X65895853Y-84238574D01*
X65951000Y-83961335D01*
X65951000Y-83678665D01*
X65895853Y-83401426D01*
X65787680Y-83140273D01*
X65630637Y-82905241D01*
X65430759Y-82705363D01*
X65195727Y-82548320D01*
X64934574Y-82440147D01*
X64657335Y-82385000D01*
X64374665Y-82385000D01*
X64097426Y-82440147D01*
X63836273Y-82548320D01*
X63601241Y-82705363D01*
X63401363Y-82905241D01*
X63244320Y-83140273D01*
X63136147Y-83401426D01*
X63081000Y-83678665D01*
X51333000Y-83678665D01*
X51333000Y-79645000D01*
X52511428Y-79645000D01*
X52511428Y-81645000D01*
X52523688Y-81769482D01*
X52559998Y-81889180D01*
X52618963Y-81999494D01*
X52698315Y-82096185D01*
X52795006Y-82175537D01*
X52905320Y-82234502D01*
X53025018Y-82270812D01*
X53149500Y-82283072D01*
X55054500Y-82283072D01*
X55178982Y-82270812D01*
X55298680Y-82234502D01*
X55408994Y-82175537D01*
X55505685Y-82096185D01*
X55585037Y-81999494D01*
X55634059Y-81907781D01*
X55775077Y-82020969D01*
X56050906Y-82164571D01*
X56269020Y-82235563D01*
X56515000Y-82115594D01*
X56515000Y-80772000D01*
X56495000Y-80772000D01*
X56495000Y-80518000D01*
X56515000Y-80518000D01*
X56515000Y-79174406D01*
X56769000Y-79174406D01*
X56769000Y-80518000D01*
X56789000Y-80518000D01*
X56789000Y-80772000D01*
X56769000Y-80772000D01*
X56769000Y-82115594D01*
X57014980Y-82235563D01*
X57233094Y-82164571D01*
X57508923Y-82020969D01*
X57751437Y-81826315D01*
X57906837Y-81641101D01*
X58054037Y-81820463D01*
X58295766Y-82018845D01*
X58571552Y-82166255D01*
X58870797Y-82257030D01*
X59182000Y-82287681D01*
X59493204Y-82257030D01*
X59792449Y-82166255D01*
X60068235Y-82018845D01*
X60309963Y-81820463D01*
X60508345Y-81578734D01*
X60655755Y-81302948D01*
X60746530Y-81003703D01*
X60769500Y-80770485D01*
X60769500Y-80519514D01*
X60746530Y-80286296D01*
X60655755Y-79987051D01*
X60508345Y-79711265D01*
X60309963Y-79469537D01*
X60068234Y-79271155D01*
X59792448Y-79123745D01*
X59493203Y-79032970D01*
X59182000Y-79002319D01*
X58870796Y-79032970D01*
X58571551Y-79123745D01*
X58295765Y-79271155D01*
X58054037Y-79469537D01*
X57906838Y-79648900D01*
X57751437Y-79463685D01*
X57508923Y-79269031D01*
X57233094Y-79125429D01*
X57014980Y-79054437D01*
X56769000Y-79174406D01*
X56515000Y-79174406D01*
X56269020Y-79054437D01*
X56050906Y-79125429D01*
X55775077Y-79269031D01*
X55634059Y-79382219D01*
X55585037Y-79290506D01*
X55505685Y-79193815D01*
X55408994Y-79114463D01*
X55298680Y-79055498D01*
X55178982Y-79019188D01*
X55054500Y-79006928D01*
X53149500Y-79006928D01*
X53025018Y-79019188D01*
X52905320Y-79055498D01*
X52795006Y-79114463D01*
X52698315Y-79193815D01*
X52618963Y-79290506D01*
X52559998Y-79400820D01*
X52523688Y-79520518D01*
X52511428Y-79645000D01*
X51333000Y-79645000D01*
X51333000Y-78751000D01*
X67930928Y-78751000D01*
X67943188Y-78875482D01*
X67979498Y-78995180D01*
X68038463Y-79105494D01*
X68117815Y-79202185D01*
X68214506Y-79281537D01*
X68324820Y-79340502D01*
X68444518Y-79376812D01*
X68569000Y-79389072D01*
X69183250Y-79386000D01*
X69342000Y-79227250D01*
X69342000Y-77978000D01*
X68092750Y-77978000D01*
X67934000Y-78136750D01*
X67930928Y-78751000D01*
X51333000Y-78751000D01*
X51333000Y-76058665D01*
X63081000Y-76058665D01*
X63081000Y-76341335D01*
X63136147Y-76618574D01*
X63244320Y-76879727D01*
X63401363Y-77114759D01*
X63601241Y-77314637D01*
X63836273Y-77471680D01*
X64097426Y-77579853D01*
X64374665Y-77635000D01*
X64657335Y-77635000D01*
X64934574Y-77579853D01*
X65195727Y-77471680D01*
X65430759Y-77314637D01*
X65630637Y-77114759D01*
X65740057Y-76951000D01*
X67930928Y-76951000D01*
X67934000Y-77565250D01*
X68092750Y-77724000D01*
X69342000Y-77724000D01*
X69342000Y-76474750D01*
X69596000Y-76474750D01*
X69596000Y-77724000D01*
X69616000Y-77724000D01*
X69616000Y-77978000D01*
X69596000Y-77978000D01*
X69596000Y-79227250D01*
X69754750Y-79386000D01*
X70369000Y-79389072D01*
X70493482Y-79376812D01*
X70613180Y-79340502D01*
X70723494Y-79281537D01*
X70820185Y-79202185D01*
X70899537Y-79105494D01*
X70958502Y-78995180D01*
X70964056Y-78976873D01*
X71030495Y-79043312D01*
X71281905Y-79211299D01*
X71561257Y-79327011D01*
X71857816Y-79386000D01*
X72160184Y-79386000D01*
X72456743Y-79327011D01*
X72736095Y-79211299D01*
X72987505Y-79043312D01*
X73201312Y-78829505D01*
X73369299Y-78578095D01*
X73485011Y-78298743D01*
X73544000Y-78002184D01*
X73544000Y-77699816D01*
X73485011Y-77403257D01*
X73369299Y-77123905D01*
X73201312Y-76872495D01*
X72987505Y-76658688D01*
X72736095Y-76490701D01*
X72456743Y-76374989D01*
X72160184Y-76316000D01*
X71857816Y-76316000D01*
X71561257Y-76374989D01*
X71281905Y-76490701D01*
X71030495Y-76658688D01*
X70964056Y-76725127D01*
X70958502Y-76706820D01*
X70899537Y-76596506D01*
X70820185Y-76499815D01*
X70723494Y-76420463D01*
X70613180Y-76361498D01*
X70493482Y-76325188D01*
X70369000Y-76312928D01*
X69754750Y-76316000D01*
X69596000Y-76474750D01*
X69342000Y-76474750D01*
X69183250Y-76316000D01*
X68569000Y-76312928D01*
X68444518Y-76325188D01*
X68324820Y-76361498D01*
X68214506Y-76420463D01*
X68117815Y-76499815D01*
X68038463Y-76596506D01*
X67979498Y-76706820D01*
X67943188Y-76826518D01*
X67930928Y-76951000D01*
X65740057Y-76951000D01*
X65787680Y-76879727D01*
X65895853Y-76618574D01*
X65951000Y-76341335D01*
X65951000Y-76058665D01*
X65895853Y-75781426D01*
X65787680Y-75520273D01*
X65630637Y-75285241D01*
X65430759Y-75085363D01*
X65195727Y-74928320D01*
X64934574Y-74820147D01*
X64657335Y-74765000D01*
X64374665Y-74765000D01*
X64097426Y-74820147D01*
X63836273Y-74928320D01*
X63601241Y-75085363D01*
X63401363Y-75285241D01*
X63244320Y-75520273D01*
X63136147Y-75781426D01*
X63081000Y-76058665D01*
X51333000Y-76058665D01*
X51333000Y-69358000D01*
X52336928Y-69358000D01*
X52336928Y-71358000D01*
X52349188Y-71482482D01*
X52385498Y-71602180D01*
X52444463Y-71712494D01*
X52523815Y-71809185D01*
X52620506Y-71888537D01*
X52730820Y-71947502D01*
X52850518Y-71983812D01*
X52975000Y-71996072D01*
X54975000Y-71996072D01*
X55099482Y-71983812D01*
X55219180Y-71947502D01*
X55329494Y-71888537D01*
X55426185Y-71809185D01*
X55505537Y-71712494D01*
X55564502Y-71602180D01*
X55597496Y-71493413D01*
X58019192Y-71493413D01*
X58114956Y-71757814D01*
X58404571Y-71898704D01*
X58716108Y-71980384D01*
X59037595Y-71999718D01*
X59356675Y-71955961D01*
X59661088Y-71850795D01*
X59835044Y-71757814D01*
X59930808Y-71493413D01*
X58975000Y-70537605D01*
X58019192Y-71493413D01*
X55597496Y-71493413D01*
X55600812Y-71482482D01*
X55613072Y-71358000D01*
X55613072Y-70420595D01*
X57333282Y-70420595D01*
X57377039Y-70739675D01*
X57482205Y-71044088D01*
X57575186Y-71218044D01*
X57839587Y-71313808D01*
X58795395Y-70358000D01*
X59154605Y-70358000D01*
X60110413Y-71313808D01*
X60374814Y-71218044D01*
X60515704Y-70928429D01*
X60597384Y-70616892D01*
X60616718Y-70295405D01*
X60572961Y-69976325D01*
X60467795Y-69671912D01*
X60374814Y-69497956D01*
X60110413Y-69402192D01*
X59154605Y-70358000D01*
X58795395Y-70358000D01*
X57839587Y-69402192D01*
X57575186Y-69497956D01*
X57434296Y-69787571D01*
X57352616Y-70099108D01*
X57333282Y-70420595D01*
X55613072Y-70420595D01*
X55613072Y-69358000D01*
X55600812Y-69233518D01*
X55597497Y-69222587D01*
X58019192Y-69222587D01*
X58975000Y-70178395D01*
X59930808Y-69222587D01*
X59835044Y-68958186D01*
X59545429Y-68817296D01*
X59233892Y-68735616D01*
X58912405Y-68716282D01*
X58593325Y-68760039D01*
X58288912Y-68865205D01*
X58114956Y-68958186D01*
X58019192Y-69222587D01*
X55597497Y-69222587D01*
X55564502Y-69113820D01*
X55505537Y-69003506D01*
X55426185Y-68906815D01*
X55329494Y-68827463D01*
X55219180Y-68768498D01*
X55099482Y-68732188D01*
X54975000Y-68719928D01*
X52975000Y-68719928D01*
X52850518Y-68732188D01*
X52730820Y-68768498D01*
X52620506Y-68827463D01*
X52523815Y-68906815D01*
X52444463Y-69003506D01*
X52385498Y-69113820D01*
X52349188Y-69233518D01*
X52336928Y-69358000D01*
X51333000Y-69358000D01*
X51333000Y-67526000D01*
X63712928Y-67526000D01*
X63712928Y-69126000D01*
X63725188Y-69250482D01*
X63761498Y-69370180D01*
X63820463Y-69480494D01*
X63899815Y-69577185D01*
X63996506Y-69656537D01*
X64106820Y-69715502D01*
X64226518Y-69751812D01*
X64351000Y-69764072D01*
X65951000Y-69764072D01*
X66075482Y-69751812D01*
X66195180Y-69715502D01*
X66305494Y-69656537D01*
X66402185Y-69577185D01*
X66481537Y-69480494D01*
X66540502Y-69370180D01*
X66556117Y-69318702D01*
X66837903Y-69318702D01*
X66909486Y-69562671D01*
X67164996Y-69683571D01*
X67439184Y-69752300D01*
X67721512Y-69766217D01*
X68001130Y-69724787D01*
X68267292Y-69629603D01*
X68375266Y-69571890D01*
X74885524Y-69571890D01*
X74930175Y-69719099D01*
X75055359Y-69981920D01*
X75229412Y-70215269D01*
X75445645Y-70410178D01*
X75695748Y-70559157D01*
X75970109Y-70656481D01*
X76200000Y-70535814D01*
X76200000Y-69342000D01*
X76454000Y-69342000D01*
X76454000Y-70535814D01*
X76683891Y-70656481D01*
X76958252Y-70559157D01*
X77208355Y-70410178D01*
X77424588Y-70215269D01*
X77597000Y-69984120D01*
X77769412Y-70215269D01*
X77985645Y-70410178D01*
X78235748Y-70559157D01*
X78510109Y-70656481D01*
X78740000Y-70535814D01*
X78740000Y-69342000D01*
X76454000Y-69342000D01*
X76200000Y-69342000D01*
X75006845Y-69342000D01*
X74885524Y-69571890D01*
X68375266Y-69571890D01*
X68392514Y-69562671D01*
X68464097Y-69318702D01*
X67651000Y-68505605D01*
X66837903Y-69318702D01*
X66556117Y-69318702D01*
X66576812Y-69250482D01*
X66589072Y-69126000D01*
X66589072Y-69118785D01*
X66658298Y-69139097D01*
X67471395Y-68326000D01*
X67830605Y-68326000D01*
X68643702Y-69139097D01*
X68887671Y-69067514D01*
X69008571Y-68812004D01*
X69077300Y-68537816D01*
X69091217Y-68255488D01*
X69049787Y-67975870D01*
X68954603Y-67709708D01*
X68887671Y-67584486D01*
X68643702Y-67512903D01*
X67830605Y-68326000D01*
X67471395Y-68326000D01*
X66658298Y-67512903D01*
X66589072Y-67533215D01*
X66589072Y-67526000D01*
X66576812Y-67401518D01*
X66556118Y-67333298D01*
X66837903Y-67333298D01*
X67651000Y-68146395D01*
X68464097Y-67333298D01*
X68392514Y-67089329D01*
X68137004Y-66968429D01*
X67862816Y-66899700D01*
X67580488Y-66885783D01*
X67300870Y-66927213D01*
X67034708Y-67022397D01*
X66909486Y-67089329D01*
X66837903Y-67333298D01*
X66556118Y-67333298D01*
X66540502Y-67281820D01*
X66481537Y-67171506D01*
X66402185Y-67074815D01*
X66305494Y-66995463D01*
X66195180Y-66936498D01*
X66075482Y-66900188D01*
X65951000Y-66887928D01*
X64351000Y-66887928D01*
X64226518Y-66900188D01*
X64106820Y-66936498D01*
X63996506Y-66995463D01*
X63899815Y-67074815D01*
X63820463Y-67171506D01*
X63761498Y-67281820D01*
X63725188Y-67401518D01*
X63712928Y-67526000D01*
X51333000Y-67526000D01*
X51333000Y-65049000D01*
X80112001Y-65049000D01*
X80112001Y-65865346D01*
%TA.AperFunction,Conductor*%
D29*
G36*
X80112001Y-65865346D02*
G01*
X80020475Y-65728368D01*
X79813632Y-65521525D01*
X79570411Y-65359010D01*
X79300158Y-65247068D01*
X79013260Y-65190000D01*
X78720740Y-65190000D01*
X78433842Y-65247068D01*
X78163589Y-65359010D01*
X77920368Y-65521525D01*
X77788513Y-65653380D01*
X77766502Y-65580820D01*
X77707537Y-65470506D01*
X77628185Y-65373815D01*
X77531494Y-65294463D01*
X77421180Y-65235498D01*
X77301482Y-65199188D01*
X77177000Y-65186928D01*
X75477000Y-65186928D01*
X75352518Y-65199188D01*
X75232820Y-65235498D01*
X75122506Y-65294463D01*
X75025815Y-65373815D01*
X74946463Y-65470506D01*
X74887498Y-65580820D01*
X74851188Y-65700518D01*
X74838928Y-65825000D01*
X74838928Y-67525000D01*
X74851188Y-67649482D01*
X74887498Y-67769180D01*
X74946463Y-67879494D01*
X75025815Y-67976185D01*
X75122506Y-68055537D01*
X75232820Y-68114502D01*
X75313466Y-68138966D01*
X75229412Y-68214731D01*
X75055359Y-68448080D01*
X74930175Y-68710901D01*
X74885524Y-68858110D01*
X75006845Y-69088000D01*
X76200000Y-69088000D01*
X76200000Y-69068000D01*
X76454000Y-69068000D01*
X76454000Y-69088000D01*
X78740000Y-69088000D01*
X78740000Y-69068000D01*
X78994000Y-69068000D01*
X78994000Y-69088000D01*
X79014000Y-69088000D01*
X79014000Y-69342000D01*
X78994000Y-69342000D01*
X78994000Y-70535814D01*
X79223891Y-70656481D01*
X79498252Y-70559157D01*
X79748355Y-70410178D01*
X79964588Y-70215269D01*
X80112000Y-70017637D01*
X80112000Y-71095000D01*
X74581419Y-71095000D01*
X74549000Y-71091807D01*
X74516581Y-71095000D01*
X74419617Y-71104550D01*
X74295207Y-71142290D01*
X74180550Y-71203575D01*
X74109242Y-71262096D01*
X74097443Y-71268403D01*
X74078197Y-71284197D01*
X74062403Y-71303443D01*
X74056096Y-71315242D01*
X73997575Y-71386550D01*
X73936290Y-71501207D01*
X73898550Y-71625617D01*
X73885807Y-71755000D01*
X73889001Y-71787429D01*
X73889000Y-109695581D01*
X73885807Y-109728000D01*
X73898550Y-109857383D01*
X73936290Y-109981793D01*
X73997575Y-110096450D01*
X74047422Y-110157188D01*
X74080052Y-110196948D01*
X74180550Y-110279425D01*
X74295207Y-110340710D01*
X74419617Y-110378450D01*
X74549000Y-110391193D01*
X74581419Y-110388000D01*
X74979705Y-110388000D01*
X74946463Y-110428506D01*
X74887498Y-110538820D01*
X74851188Y-110658518D01*
X74838928Y-110783000D01*
X74838928Y-112483000D01*
X74851188Y-112607482D01*
X74887498Y-112727180D01*
X74946463Y-112837494D01*
X75025815Y-112934185D01*
X75122506Y-113013537D01*
X75232820Y-113072502D01*
X75313466Y-113096966D01*
X75229412Y-113172731D01*
X75055359Y-113406080D01*
X74930175Y-113668901D01*
X74885524Y-113816110D01*
X75006845Y-114046000D01*
X76200000Y-114046000D01*
X76200000Y-114026000D01*
X76454000Y-114026000D01*
X76454000Y-114046000D01*
X78740000Y-114046000D01*
X78740000Y-114026000D01*
X78994000Y-114026000D01*
X78994000Y-114046000D01*
X79014000Y-114046000D01*
X79014000Y-114300000D01*
X78994000Y-114300000D01*
X78994000Y-115493814D01*
X79223891Y-115614481D01*
X79498252Y-115517157D01*
X79748355Y-115368178D01*
X79964588Y-115173269D01*
X80112000Y-114975637D01*
X80112000Y-116053000D01*
X63604850Y-116053000D01*
X63738775Y-115852566D01*
X63884639Y-115500419D01*
X63959000Y-115126581D01*
X63959000Y-114745419D01*
X63884639Y-114371581D01*
X63738775Y-114019434D01*
X63527013Y-113702509D01*
X63348169Y-113523665D01*
X69431000Y-113523665D01*
X69431000Y-113806335D01*
X69486147Y-114083574D01*
X69594320Y-114344727D01*
X69751363Y-114579759D01*
X69951241Y-114779637D01*
X70186273Y-114936680D01*
X70447426Y-115044853D01*
X70724665Y-115100000D01*
X71007335Y-115100000D01*
X71284574Y-115044853D01*
X71545727Y-114936680D01*
X71780759Y-114779637D01*
X71980637Y-114579759D01*
X72013958Y-114529890D01*
X74885524Y-114529890D01*
X74930175Y-114677099D01*
X75055359Y-114939920D01*
X75229412Y-115173269D01*
X75445645Y-115368178D01*
X75695748Y-115517157D01*
X75970109Y-115614481D01*
X76200000Y-115493814D01*
X76200000Y-114300000D01*
X76454000Y-114300000D01*
X76454000Y-115493814D01*
X76683891Y-115614481D01*
X76958252Y-115517157D01*
X77208355Y-115368178D01*
X77424588Y-115173269D01*
X77597000Y-114942120D01*
X77769412Y-115173269D01*
X77985645Y-115368178D01*
X78235748Y-115517157D01*
X78510109Y-115614481D01*
X78740000Y-115493814D01*
X78740000Y-114300000D01*
X76454000Y-114300000D01*
X76200000Y-114300000D01*
X75006845Y-114300000D01*
X74885524Y-114529890D01*
X72013958Y-114529890D01*
X72137680Y-114344727D01*
X72245853Y-114083574D01*
X72301000Y-113806335D01*
X72301000Y-113523665D01*
X72245853Y-113246426D01*
X72137680Y-112985273D01*
X71980637Y-112750241D01*
X71780759Y-112550363D01*
X71545727Y-112393320D01*
X71284574Y-112285147D01*
X71007335Y-112230000D01*
X70724665Y-112230000D01*
X70447426Y-112285147D01*
X70186273Y-112393320D01*
X69951241Y-112550363D01*
X69751363Y-112750241D01*
X69594320Y-112985273D01*
X69486147Y-113246426D01*
X69431000Y-113523665D01*
X63348169Y-113523665D01*
X63257491Y-113432987D01*
X62940566Y-113221225D01*
X62588419Y-113075361D01*
X62214581Y-113001000D01*
X61833419Y-113001000D01*
X61459581Y-113075361D01*
X61107434Y-113221225D01*
X60790509Y-113432987D01*
X60520987Y-113702509D01*
X60309225Y-114019434D01*
X60163361Y-114371581D01*
X60089000Y-114745419D01*
X60089000Y-115126581D01*
X60163361Y-115500419D01*
X60309225Y-115852566D01*
X60443150Y-116053000D01*
X51333000Y-116053000D01*
X51333000Y-97960000D01*
X51855928Y-97960000D01*
X51855928Y-100160000D01*
X51868188Y-100284482D01*
X51904498Y-100404180D01*
X51963463Y-100514494D01*
X52042815Y-100611185D01*
X52139506Y-100690537D01*
X52249820Y-100749502D01*
X52369518Y-100785812D01*
X52494000Y-100798072D01*
X54694000Y-100798072D01*
X54818482Y-100785812D01*
X54938180Y-100749502D01*
X55048494Y-100690537D01*
X55145185Y-100611185D01*
X55224537Y-100514494D01*
X55283502Y-100404180D01*
X55319812Y-100284482D01*
X55332072Y-100160000D01*
X55332072Y-97960000D01*
X55319812Y-97835518D01*
X55283502Y-97715820D01*
X55224537Y-97605506D01*
X55145185Y-97508815D01*
X55048494Y-97429463D01*
X54938180Y-97370498D01*
X54818482Y-97334188D01*
X54694000Y-97321928D01*
X52494000Y-97321928D01*
X52369518Y-97334188D01*
X52249820Y-97370498D01*
X52139506Y-97429463D01*
X52042815Y-97508815D01*
X51963463Y-97605506D01*
X51904498Y-97715820D01*
X51868188Y-97835518D01*
X51855928Y-97960000D01*
X51333000Y-97960000D01*
X51333000Y-90340000D01*
X51855928Y-90340000D01*
X51855928Y-92540000D01*
X51868188Y-92664482D01*
X51904498Y-92784180D01*
X51963463Y-92894494D01*
X52042815Y-92991185D01*
X52139506Y-93070537D01*
X52249820Y-93129502D01*
X52369518Y-93165812D01*
X52494000Y-93178072D01*
X54221915Y-93178072D01*
X54555771Y-93511928D01*
X52494000Y-93511928D01*
X52369518Y-93524188D01*
X52249820Y-93560498D01*
X52139506Y-93619463D01*
X52042815Y-93698815D01*
X51963463Y-93795506D01*
X51904498Y-93905820D01*
X51868188Y-94025518D01*
X51855928Y-94150000D01*
X51855928Y-96350000D01*
X51868188Y-96474482D01*
X51904498Y-96594180D01*
X51963463Y-96704494D01*
X52042815Y-96801185D01*
X52139506Y-96880537D01*
X52249820Y-96939502D01*
X52369518Y-96975812D01*
X52494000Y-96988072D01*
X54694000Y-96988072D01*
X54818482Y-96975812D01*
X54938180Y-96939502D01*
X55048494Y-96880537D01*
X55145185Y-96801185D01*
X55224537Y-96704494D01*
X55283502Y-96594180D01*
X55319812Y-96474482D01*
X55332072Y-96350000D01*
X55332072Y-94288229D01*
X60631655Y-99587813D01*
X60656236Y-99617764D01*
X60686184Y-99642342D01*
X60686187Y-99642345D01*
X60715559Y-99666450D01*
X60775767Y-99715862D01*
X60912140Y-99788754D01*
X61025672Y-99823194D01*
X61060112Y-99833641D01*
X61074490Y-99835057D01*
X61175439Y-99845000D01*
X61175446Y-99845000D01*
X61213999Y-99848797D01*
X61252552Y-99845000D01*
X61858842Y-99845000D01*
X58496185Y-103207658D01*
X58466237Y-103232236D01*
X58441659Y-103262184D01*
X58441655Y-103262188D01*
X58408690Y-103302356D01*
X58368139Y-103351767D01*
X58329177Y-103424660D01*
X58295246Y-103488141D01*
X58250359Y-103636114D01*
X58235203Y-103790000D01*
X58239001Y-103828563D01*
X58239000Y-108466728D01*
X58107434Y-108521225D01*
X57790509Y-108732987D01*
X57520987Y-109002509D01*
X57309225Y-109319434D01*
X57163361Y-109671581D01*
X57089000Y-110045419D01*
X57089000Y-110426581D01*
X57163361Y-110800419D01*
X57309225Y-111152566D01*
X57520987Y-111469491D01*
X57790509Y-111739013D01*
X58107434Y-111950775D01*
X58459581Y-112096639D01*
X58833419Y-112171000D01*
X59214581Y-112171000D01*
X59588419Y-112096639D01*
X59940566Y-111950775D01*
X60257491Y-111739013D01*
X60527013Y-111469491D01*
X60738775Y-111152566D01*
X60884639Y-110800419D01*
X60959000Y-110426581D01*
X60959000Y-110045419D01*
X60884639Y-109671581D01*
X60738775Y-109319434D01*
X60527013Y-109002509D01*
X60460504Y-108936000D01*
X63085928Y-108936000D01*
X63085928Y-111536000D01*
X63098188Y-111660482D01*
X63134498Y-111780180D01*
X63193463Y-111890494D01*
X63272815Y-111987185D01*
X63369506Y-112066537D01*
X63479820Y-112125502D01*
X63599518Y-112161812D01*
X63724000Y-112174072D01*
X66324000Y-112174072D01*
X66448482Y-112161812D01*
X66568180Y-112125502D01*
X66678494Y-112066537D01*
X66775185Y-111987185D01*
X66854537Y-111890494D01*
X66913502Y-111780180D01*
X66949812Y-111660482D01*
X66962072Y-111536000D01*
X66962072Y-108936000D01*
X66949812Y-108811518D01*
X66913502Y-108691820D01*
X66854537Y-108581506D01*
X66775185Y-108484815D01*
X66678494Y-108405463D01*
X66568180Y-108346498D01*
X66448482Y-108310188D01*
X66324000Y-108297928D01*
X63724000Y-108297928D01*
X63599518Y-108310188D01*
X63479820Y-108346498D01*
X63369506Y-108405463D01*
X63272815Y-108484815D01*
X63193463Y-108581506D01*
X63134498Y-108691820D01*
X63098188Y-108811518D01*
X63085928Y-108936000D01*
X60460504Y-108936000D01*
X60257491Y-108732987D01*
X59940566Y-108521225D01*
X59809000Y-108466729D01*
X59809000Y-105903665D01*
X69431000Y-105903665D01*
X69431000Y-106186335D01*
X69486147Y-106463574D01*
X69594320Y-106724727D01*
X69751363Y-106959759D01*
X69951241Y-107159637D01*
X70186273Y-107316680D01*
X70447426Y-107424853D01*
X70724665Y-107480000D01*
X71007335Y-107480000D01*
X71284574Y-107424853D01*
X71545727Y-107316680D01*
X71780759Y-107159637D01*
X71980637Y-106959759D01*
X72137680Y-106724727D01*
X72245853Y-106463574D01*
X72301000Y-106186335D01*
X72301000Y-105903665D01*
X72245853Y-105626426D01*
X72137680Y-105365273D01*
X71980637Y-105130241D01*
X71780759Y-104930363D01*
X71545727Y-104773320D01*
X71284574Y-104665147D01*
X71007335Y-104610000D01*
X70724665Y-104610000D01*
X70447426Y-104665147D01*
X70186273Y-104773320D01*
X69951241Y-104930363D01*
X69751363Y-105130241D01*
X69594320Y-105365273D01*
X69486147Y-105626426D01*
X69431000Y-105903665D01*
X59809000Y-105903665D01*
X59809000Y-104115157D01*
X63211088Y-100713069D01*
X63247919Y-100728325D01*
X63583117Y-100795000D01*
X63924883Y-100795000D01*
X64260081Y-100728325D01*
X64575831Y-100597537D01*
X64859998Y-100407663D01*
X64926661Y-100341000D01*
X67930928Y-100341000D01*
X67943188Y-100465482D01*
X67979498Y-100585180D01*
X68038463Y-100695494D01*
X68117815Y-100792185D01*
X68214506Y-100871537D01*
X68324820Y-100930502D01*
X68444518Y-100966812D01*
X68569000Y-100979072D01*
X69183250Y-100976000D01*
X69342000Y-100817250D01*
X69342000Y-99568000D01*
X68092750Y-99568000D01*
X67934000Y-99726750D01*
X67930928Y-100341000D01*
X64926661Y-100341000D01*
X65101663Y-100165998D01*
X65291537Y-99881831D01*
X65422325Y-99566081D01*
X65489000Y-99230883D01*
X65489000Y-98889117D01*
X65422325Y-98553919D01*
X65416974Y-98541000D01*
X67930928Y-98541000D01*
X67934000Y-99155250D01*
X68092750Y-99314000D01*
X69342000Y-99314000D01*
X69342000Y-98064750D01*
X69596000Y-98064750D01*
X69596000Y-99314000D01*
X69616000Y-99314000D01*
X69616000Y-99568000D01*
X69596000Y-99568000D01*
X69596000Y-100817250D01*
X69754750Y-100976000D01*
X70369000Y-100979072D01*
X70493482Y-100966812D01*
X70613180Y-100930502D01*
X70723494Y-100871537D01*
X70820185Y-100792185D01*
X70899537Y-100695494D01*
X70958502Y-100585180D01*
X70964056Y-100566873D01*
X71030495Y-100633312D01*
X71281905Y-100801299D01*
X71561257Y-100917011D01*
X71857816Y-100976000D01*
X72160184Y-100976000D01*
X72456743Y-100917011D01*
X72736095Y-100801299D01*
X72987505Y-100633312D01*
X73201312Y-100419505D01*
X73369299Y-100168095D01*
X73485011Y-99888743D01*
X73544000Y-99592184D01*
X73544000Y-99289816D01*
X73485011Y-98993257D01*
X73369299Y-98713905D01*
X73201312Y-98462495D01*
X72987505Y-98248688D01*
X72736095Y-98080701D01*
X72456743Y-97964989D01*
X72160184Y-97906000D01*
X71857816Y-97906000D01*
X71561257Y-97964989D01*
X71281905Y-98080701D01*
X71030495Y-98248688D01*
X70964056Y-98315127D01*
X70958502Y-98296820D01*
X70899537Y-98186506D01*
X70820185Y-98089815D01*
X70723494Y-98010463D01*
X70613180Y-97951498D01*
X70493482Y-97915188D01*
X70369000Y-97902928D01*
X69754750Y-97906000D01*
X69596000Y-98064750D01*
X69342000Y-98064750D01*
X69183250Y-97906000D01*
X68569000Y-97902928D01*
X68444518Y-97915188D01*
X68324820Y-97951498D01*
X68214506Y-98010463D01*
X68117815Y-98089815D01*
X68038463Y-98186506D01*
X67979498Y-98296820D01*
X67943188Y-98416518D01*
X67930928Y-98541000D01*
X65416974Y-98541000D01*
X65291537Y-98238169D01*
X65101663Y-97954002D01*
X64859998Y-97712337D01*
X64575831Y-97522463D01*
X64260081Y-97391675D01*
X63924883Y-97325000D01*
X63583117Y-97325000D01*
X63247919Y-97391675D01*
X62932169Y-97522463D01*
X62648002Y-97712337D01*
X62406337Y-97954002D01*
X62216463Y-98238169D01*
X62201207Y-98275000D01*
X61539158Y-98275000D01*
X58343275Y-95079117D01*
X62019000Y-95079117D01*
X62019000Y-95420883D01*
X62085675Y-95756081D01*
X62216463Y-96071831D01*
X62406337Y-96355998D01*
X62648002Y-96597663D01*
X62932169Y-96787537D01*
X63247919Y-96918325D01*
X63583117Y-96985000D01*
X63924883Y-96985000D01*
X64260081Y-96918325D01*
X64575831Y-96787537D01*
X64859998Y-96597663D01*
X65101663Y-96355998D01*
X65291537Y-96071831D01*
X65422325Y-95756081D01*
X65489000Y-95420883D01*
X65489000Y-95079117D01*
X65422325Y-94743919D01*
X65291537Y-94428169D01*
X65101663Y-94144002D01*
X64859998Y-93902337D01*
X64575831Y-93712463D01*
X64260081Y-93581675D01*
X63924883Y-93515000D01*
X63583117Y-93515000D01*
X63247919Y-93581675D01*
X62932169Y-93712463D01*
X62648002Y-93902337D01*
X62406337Y-94144002D01*
X62216463Y-94428169D01*
X62085675Y-94743919D01*
X62019000Y-95079117D01*
X58343275Y-95079117D01*
X55332072Y-92067915D01*
X55332072Y-91836122D01*
X62064825Y-91836122D01*
X62129425Y-92049094D01*
X62279469Y-92354329D01*
X62486178Y-92624427D01*
X62741609Y-92849008D01*
X63035946Y-93019442D01*
X63357877Y-93129179D01*
X63627000Y-93011600D01*
X63627000Y-91567000D01*
X63881000Y-91567000D01*
X63881000Y-93011600D01*
X64150123Y-93129179D01*
X64472054Y-93019442D01*
X64766391Y-92849008D01*
X65021822Y-92624427D01*
X65228531Y-92354329D01*
X65378575Y-92049094D01*
X65443175Y-91836122D01*
X65325125Y-91567000D01*
X63881000Y-91567000D01*
X63627000Y-91567000D01*
X62182875Y-91567000D01*
X62064825Y-91836122D01*
X55332072Y-91836122D01*
X55332072Y-91043878D01*
X62064825Y-91043878D01*
X62182875Y-91313000D01*
X63627000Y-91313000D01*
X63627000Y-89868400D01*
X63881000Y-89868400D01*
X63881000Y-91313000D01*
X65325125Y-91313000D01*
X65443175Y-91043878D01*
X65378575Y-90830906D01*
X65228531Y-90525671D01*
X65021822Y-90255573D01*
X64817582Y-90076000D01*
X68896928Y-90076000D01*
X68896928Y-91976000D01*
X68909188Y-92100482D01*
X68945498Y-92220180D01*
X69004463Y-92330494D01*
X69083815Y-92427185D01*
X69180506Y-92506537D01*
X69290820Y-92565502D01*
X69410518Y-92601812D01*
X69535000Y-92614072D01*
X71435000Y-92614072D01*
X71559482Y-92601812D01*
X71679180Y-92565502D01*
X71789494Y-92506537D01*
X71886185Y-92427185D01*
X71965537Y-92330494D01*
X72024502Y-92220180D01*
X72060812Y-92100482D01*
X72073072Y-91976000D01*
X72073072Y-90076000D01*
X72060812Y-89951518D01*
X72024502Y-89831820D01*
X71965537Y-89721506D01*
X71886185Y-89624815D01*
X71789494Y-89545463D01*
X71730979Y-89514186D01*
X71889609Y-89276779D01*
X72009089Y-88988327D01*
X72070000Y-88682109D01*
X72070000Y-88369891D01*
X72009089Y-88063673D01*
X71889609Y-87775221D01*
X71716150Y-87515621D01*
X71495379Y-87294850D01*
X71467168Y-87276000D01*
X71495379Y-87257150D01*
X71716150Y-87036379D01*
X71889609Y-86776779D01*
X72009089Y-86488327D01*
X72070000Y-86182109D01*
X72070000Y-85869891D01*
X72009089Y-85563673D01*
X71889609Y-85275221D01*
X71716150Y-85015621D01*
X71495379Y-84794850D01*
X71235779Y-84621391D01*
X70947327Y-84501911D01*
X70641109Y-84441000D01*
X70328891Y-84441000D01*
X70022673Y-84501911D01*
X69734221Y-84621391D01*
X69474621Y-84794850D01*
X69253850Y-85015621D01*
X69080391Y-85275221D01*
X68960911Y-85563673D01*
X68900000Y-85869891D01*
X68900000Y-86182109D01*
X68960911Y-86488327D01*
X69080391Y-86776779D01*
X69253850Y-87036379D01*
X69474621Y-87257150D01*
X69502832Y-87276000D01*
X69474621Y-87294850D01*
X69253850Y-87515621D01*
X69080391Y-87775221D01*
X68960911Y-88063673D01*
X68900000Y-88369891D01*
X68900000Y-88682109D01*
X68960911Y-88988327D01*
X69080391Y-89276779D01*
X69239021Y-89514186D01*
X69180506Y-89545463D01*
X69083815Y-89624815D01*
X69004463Y-89721506D01*
X68945498Y-89831820D01*
X68909188Y-89951518D01*
X68896928Y-90076000D01*
X64817582Y-90076000D01*
X64766391Y-90030992D01*
X64472054Y-89860558D01*
X64150123Y-89750821D01*
X63881000Y-89868400D01*
X63627000Y-89868400D01*
X63357877Y-89750821D01*
X63035946Y-89860558D01*
X62741609Y-90030992D01*
X62486178Y-90255573D01*
X62279469Y-90525671D01*
X62129425Y-90830906D01*
X62064825Y-91043878D01*
X55332072Y-91043878D01*
X55332072Y-90340000D01*
X55319812Y-90215518D01*
X55283502Y-90095820D01*
X55224537Y-89985506D01*
X55145185Y-89888815D01*
X55048494Y-89809463D01*
X54938180Y-89750498D01*
X54818482Y-89714188D01*
X54694000Y-89701928D01*
X52494000Y-89701928D01*
X52369518Y-89714188D01*
X52249820Y-89750498D01*
X52139506Y-89809463D01*
X52042815Y-89888815D01*
X51963463Y-89985506D01*
X51904498Y-90095820D01*
X51868188Y-90215518D01*
X51855928Y-90340000D01*
X51333000Y-90340000D01*
X51333000Y-86530000D01*
X51855928Y-86530000D01*
X51855928Y-88730000D01*
X51868188Y-88854482D01*
X51904498Y-88974180D01*
X51963463Y-89084494D01*
X52042815Y-89181185D01*
X52139506Y-89260537D01*
X52249820Y-89319502D01*
X52369518Y-89355812D01*
X52494000Y-89368072D01*
X54694000Y-89368072D01*
X54818482Y-89355812D01*
X54938180Y-89319502D01*
X55048494Y-89260537D01*
X55145185Y-89181185D01*
X55224537Y-89084494D01*
X55283502Y-88974180D01*
X55319812Y-88854482D01*
X55332072Y-88730000D01*
X55332072Y-88026122D01*
X62064825Y-88026122D01*
X62129425Y-88239094D01*
X62279469Y-88544329D01*
X62486178Y-88814427D01*
X62741609Y-89039008D01*
X63035946Y-89209442D01*
X63357877Y-89319179D01*
X63627000Y-89201600D01*
X63627000Y-87757000D01*
X63881000Y-87757000D01*
X63881000Y-89201600D01*
X64150123Y-89319179D01*
X64472054Y-89209442D01*
X64766391Y-89039008D01*
X65021822Y-88814427D01*
X65228531Y-88544329D01*
X65378575Y-88239094D01*
X65443175Y-88026122D01*
X65325125Y-87757000D01*
X63881000Y-87757000D01*
X63627000Y-87757000D01*
X62182875Y-87757000D01*
X62064825Y-88026122D01*
X55332072Y-88026122D01*
X55332072Y-87233878D01*
X62064825Y-87233878D01*
X62182875Y-87503000D01*
X63627000Y-87503000D01*
X63627000Y-86058400D01*
X63881000Y-86058400D01*
X63881000Y-87503000D01*
X65325125Y-87503000D01*
X65443175Y-87233878D01*
X65378575Y-87020906D01*
X65228531Y-86715671D01*
X65021822Y-86445573D01*
X64766391Y-86220992D01*
X64472054Y-86050558D01*
X64150123Y-85940821D01*
X63881000Y-86058400D01*
X63627000Y-86058400D01*
X63357877Y-85940821D01*
X63035946Y-86050558D01*
X62741609Y-86220992D01*
X62486178Y-86445573D01*
X62279469Y-86715671D01*
X62129425Y-87020906D01*
X62064825Y-87233878D01*
X55332072Y-87233878D01*
X55332072Y-86530000D01*
X55319812Y-86405518D01*
X55283502Y-86285820D01*
X55224537Y-86175506D01*
X55145185Y-86078815D01*
X55048494Y-85999463D01*
X54938180Y-85940498D01*
X54818482Y-85904188D01*
X54694000Y-85891928D01*
X52494000Y-85891928D01*
X52369518Y-85904188D01*
X52249820Y-85940498D01*
X52139506Y-85999463D01*
X52042815Y-86078815D01*
X51963463Y-86175506D01*
X51904498Y-86285820D01*
X51868188Y-86405518D01*
X51855928Y-86530000D01*
X51333000Y-86530000D01*
X51333000Y-83678665D01*
X63081000Y-83678665D01*
X63081000Y-83961335D01*
X63136147Y-84238574D01*
X63244320Y-84499727D01*
X63401363Y-84734759D01*
X63601241Y-84934637D01*
X63836273Y-85091680D01*
X64097426Y-85199853D01*
X64374665Y-85255000D01*
X64657335Y-85255000D01*
X64934574Y-85199853D01*
X65195727Y-85091680D01*
X65430759Y-84934637D01*
X65630637Y-84734759D01*
X65787680Y-84499727D01*
X65895853Y-84238574D01*
X65951000Y-83961335D01*
X65951000Y-83678665D01*
X65895853Y-83401426D01*
X65787680Y-83140273D01*
X65630637Y-82905241D01*
X65430759Y-82705363D01*
X65195727Y-82548320D01*
X64934574Y-82440147D01*
X64657335Y-82385000D01*
X64374665Y-82385000D01*
X64097426Y-82440147D01*
X63836273Y-82548320D01*
X63601241Y-82705363D01*
X63401363Y-82905241D01*
X63244320Y-83140273D01*
X63136147Y-83401426D01*
X63081000Y-83678665D01*
X51333000Y-83678665D01*
X51333000Y-79645000D01*
X52511428Y-79645000D01*
X52511428Y-81645000D01*
X52523688Y-81769482D01*
X52559998Y-81889180D01*
X52618963Y-81999494D01*
X52698315Y-82096185D01*
X52795006Y-82175537D01*
X52905320Y-82234502D01*
X53025018Y-82270812D01*
X53149500Y-82283072D01*
X55054500Y-82283072D01*
X55178982Y-82270812D01*
X55298680Y-82234502D01*
X55408994Y-82175537D01*
X55505685Y-82096185D01*
X55585037Y-81999494D01*
X55634059Y-81907781D01*
X55775077Y-82020969D01*
X56050906Y-82164571D01*
X56269020Y-82235563D01*
X56515000Y-82115594D01*
X56515000Y-80772000D01*
X56495000Y-80772000D01*
X56495000Y-80518000D01*
X56515000Y-80518000D01*
X56515000Y-79174406D01*
X56769000Y-79174406D01*
X56769000Y-80518000D01*
X56789000Y-80518000D01*
X56789000Y-80772000D01*
X56769000Y-80772000D01*
X56769000Y-82115594D01*
X57014980Y-82235563D01*
X57233094Y-82164571D01*
X57508923Y-82020969D01*
X57751437Y-81826315D01*
X57906837Y-81641101D01*
X58054037Y-81820463D01*
X58295766Y-82018845D01*
X58571552Y-82166255D01*
X58870797Y-82257030D01*
X59182000Y-82287681D01*
X59493204Y-82257030D01*
X59792449Y-82166255D01*
X60068235Y-82018845D01*
X60309963Y-81820463D01*
X60508345Y-81578734D01*
X60655755Y-81302948D01*
X60746530Y-81003703D01*
X60769500Y-80770485D01*
X60769500Y-80519514D01*
X60746530Y-80286296D01*
X60655755Y-79987051D01*
X60508345Y-79711265D01*
X60309963Y-79469537D01*
X60068234Y-79271155D01*
X59792448Y-79123745D01*
X59493203Y-79032970D01*
X59182000Y-79002319D01*
X58870796Y-79032970D01*
X58571551Y-79123745D01*
X58295765Y-79271155D01*
X58054037Y-79469537D01*
X57906838Y-79648900D01*
X57751437Y-79463685D01*
X57508923Y-79269031D01*
X57233094Y-79125429D01*
X57014980Y-79054437D01*
X56769000Y-79174406D01*
X56515000Y-79174406D01*
X56269020Y-79054437D01*
X56050906Y-79125429D01*
X55775077Y-79269031D01*
X55634059Y-79382219D01*
X55585037Y-79290506D01*
X55505685Y-79193815D01*
X55408994Y-79114463D01*
X55298680Y-79055498D01*
X55178982Y-79019188D01*
X55054500Y-79006928D01*
X53149500Y-79006928D01*
X53025018Y-79019188D01*
X52905320Y-79055498D01*
X52795006Y-79114463D01*
X52698315Y-79193815D01*
X52618963Y-79290506D01*
X52559998Y-79400820D01*
X52523688Y-79520518D01*
X52511428Y-79645000D01*
X51333000Y-79645000D01*
X51333000Y-78751000D01*
X67930928Y-78751000D01*
X67943188Y-78875482D01*
X67979498Y-78995180D01*
X68038463Y-79105494D01*
X68117815Y-79202185D01*
X68214506Y-79281537D01*
X68324820Y-79340502D01*
X68444518Y-79376812D01*
X68569000Y-79389072D01*
X69183250Y-79386000D01*
X69342000Y-79227250D01*
X69342000Y-77978000D01*
X68092750Y-77978000D01*
X67934000Y-78136750D01*
X67930928Y-78751000D01*
X51333000Y-78751000D01*
X51333000Y-76058665D01*
X63081000Y-76058665D01*
X63081000Y-76341335D01*
X63136147Y-76618574D01*
X63244320Y-76879727D01*
X63401363Y-77114759D01*
X63601241Y-77314637D01*
X63836273Y-77471680D01*
X64097426Y-77579853D01*
X64374665Y-77635000D01*
X64657335Y-77635000D01*
X64934574Y-77579853D01*
X65195727Y-77471680D01*
X65430759Y-77314637D01*
X65630637Y-77114759D01*
X65740057Y-76951000D01*
X67930928Y-76951000D01*
X67934000Y-77565250D01*
X68092750Y-77724000D01*
X69342000Y-77724000D01*
X69342000Y-76474750D01*
X69596000Y-76474750D01*
X69596000Y-77724000D01*
X69616000Y-77724000D01*
X69616000Y-77978000D01*
X69596000Y-77978000D01*
X69596000Y-79227250D01*
X69754750Y-79386000D01*
X70369000Y-79389072D01*
X70493482Y-79376812D01*
X70613180Y-79340502D01*
X70723494Y-79281537D01*
X70820185Y-79202185D01*
X70899537Y-79105494D01*
X70958502Y-78995180D01*
X70964056Y-78976873D01*
X71030495Y-79043312D01*
X71281905Y-79211299D01*
X71561257Y-79327011D01*
X71857816Y-79386000D01*
X72160184Y-79386000D01*
X72456743Y-79327011D01*
X72736095Y-79211299D01*
X72987505Y-79043312D01*
X73201312Y-78829505D01*
X73369299Y-78578095D01*
X73485011Y-78298743D01*
X73544000Y-78002184D01*
X73544000Y-77699816D01*
X73485011Y-77403257D01*
X73369299Y-77123905D01*
X73201312Y-76872495D01*
X72987505Y-76658688D01*
X72736095Y-76490701D01*
X72456743Y-76374989D01*
X72160184Y-76316000D01*
X71857816Y-76316000D01*
X71561257Y-76374989D01*
X71281905Y-76490701D01*
X71030495Y-76658688D01*
X70964056Y-76725127D01*
X70958502Y-76706820D01*
X70899537Y-76596506D01*
X70820185Y-76499815D01*
X70723494Y-76420463D01*
X70613180Y-76361498D01*
X70493482Y-76325188D01*
X70369000Y-76312928D01*
X69754750Y-76316000D01*
X69596000Y-76474750D01*
X69342000Y-76474750D01*
X69183250Y-76316000D01*
X68569000Y-76312928D01*
X68444518Y-76325188D01*
X68324820Y-76361498D01*
X68214506Y-76420463D01*
X68117815Y-76499815D01*
X68038463Y-76596506D01*
X67979498Y-76706820D01*
X67943188Y-76826518D01*
X67930928Y-76951000D01*
X65740057Y-76951000D01*
X65787680Y-76879727D01*
X65895853Y-76618574D01*
X65951000Y-76341335D01*
X65951000Y-76058665D01*
X65895853Y-75781426D01*
X65787680Y-75520273D01*
X65630637Y-75285241D01*
X65430759Y-75085363D01*
X65195727Y-74928320D01*
X64934574Y-74820147D01*
X64657335Y-74765000D01*
X64374665Y-74765000D01*
X64097426Y-74820147D01*
X63836273Y-74928320D01*
X63601241Y-75085363D01*
X63401363Y-75285241D01*
X63244320Y-75520273D01*
X63136147Y-75781426D01*
X63081000Y-76058665D01*
X51333000Y-76058665D01*
X51333000Y-69358000D01*
X52336928Y-69358000D01*
X52336928Y-71358000D01*
X52349188Y-71482482D01*
X52385498Y-71602180D01*
X52444463Y-71712494D01*
X52523815Y-71809185D01*
X52620506Y-71888537D01*
X52730820Y-71947502D01*
X52850518Y-71983812D01*
X52975000Y-71996072D01*
X54975000Y-71996072D01*
X55099482Y-71983812D01*
X55219180Y-71947502D01*
X55329494Y-71888537D01*
X55426185Y-71809185D01*
X55505537Y-71712494D01*
X55564502Y-71602180D01*
X55597496Y-71493413D01*
X58019192Y-71493413D01*
X58114956Y-71757814D01*
X58404571Y-71898704D01*
X58716108Y-71980384D01*
X59037595Y-71999718D01*
X59356675Y-71955961D01*
X59661088Y-71850795D01*
X59835044Y-71757814D01*
X59930808Y-71493413D01*
X58975000Y-70537605D01*
X58019192Y-71493413D01*
X55597496Y-71493413D01*
X55600812Y-71482482D01*
X55613072Y-71358000D01*
X55613072Y-70420595D01*
X57333282Y-70420595D01*
X57377039Y-70739675D01*
X57482205Y-71044088D01*
X57575186Y-71218044D01*
X57839587Y-71313808D01*
X58795395Y-70358000D01*
X59154605Y-70358000D01*
X60110413Y-71313808D01*
X60374814Y-71218044D01*
X60515704Y-70928429D01*
X60597384Y-70616892D01*
X60616718Y-70295405D01*
X60572961Y-69976325D01*
X60467795Y-69671912D01*
X60374814Y-69497956D01*
X60110413Y-69402192D01*
X59154605Y-70358000D01*
X58795395Y-70358000D01*
X57839587Y-69402192D01*
X57575186Y-69497956D01*
X57434296Y-69787571D01*
X57352616Y-70099108D01*
X57333282Y-70420595D01*
X55613072Y-70420595D01*
X55613072Y-69358000D01*
X55600812Y-69233518D01*
X55597497Y-69222587D01*
X58019192Y-69222587D01*
X58975000Y-70178395D01*
X59930808Y-69222587D01*
X59835044Y-68958186D01*
X59545429Y-68817296D01*
X59233892Y-68735616D01*
X58912405Y-68716282D01*
X58593325Y-68760039D01*
X58288912Y-68865205D01*
X58114956Y-68958186D01*
X58019192Y-69222587D01*
X55597497Y-69222587D01*
X55564502Y-69113820D01*
X55505537Y-69003506D01*
X55426185Y-68906815D01*
X55329494Y-68827463D01*
X55219180Y-68768498D01*
X55099482Y-68732188D01*
X54975000Y-68719928D01*
X52975000Y-68719928D01*
X52850518Y-68732188D01*
X52730820Y-68768498D01*
X52620506Y-68827463D01*
X52523815Y-68906815D01*
X52444463Y-69003506D01*
X52385498Y-69113820D01*
X52349188Y-69233518D01*
X52336928Y-69358000D01*
X51333000Y-69358000D01*
X51333000Y-67526000D01*
X63712928Y-67526000D01*
X63712928Y-69126000D01*
X63725188Y-69250482D01*
X63761498Y-69370180D01*
X63820463Y-69480494D01*
X63899815Y-69577185D01*
X63996506Y-69656537D01*
X64106820Y-69715502D01*
X64226518Y-69751812D01*
X64351000Y-69764072D01*
X65951000Y-69764072D01*
X66075482Y-69751812D01*
X66195180Y-69715502D01*
X66305494Y-69656537D01*
X66402185Y-69577185D01*
X66481537Y-69480494D01*
X66540502Y-69370180D01*
X66556117Y-69318702D01*
X66837903Y-69318702D01*
X66909486Y-69562671D01*
X67164996Y-69683571D01*
X67439184Y-69752300D01*
X67721512Y-69766217D01*
X68001130Y-69724787D01*
X68267292Y-69629603D01*
X68375266Y-69571890D01*
X74885524Y-69571890D01*
X74930175Y-69719099D01*
X75055359Y-69981920D01*
X75229412Y-70215269D01*
X75445645Y-70410178D01*
X75695748Y-70559157D01*
X75970109Y-70656481D01*
X76200000Y-70535814D01*
X76200000Y-69342000D01*
X76454000Y-69342000D01*
X76454000Y-70535814D01*
X76683891Y-70656481D01*
X76958252Y-70559157D01*
X77208355Y-70410178D01*
X77424588Y-70215269D01*
X77597000Y-69984120D01*
X77769412Y-70215269D01*
X77985645Y-70410178D01*
X78235748Y-70559157D01*
X78510109Y-70656481D01*
X78740000Y-70535814D01*
X78740000Y-69342000D01*
X76454000Y-69342000D01*
X76200000Y-69342000D01*
X75006845Y-69342000D01*
X74885524Y-69571890D01*
X68375266Y-69571890D01*
X68392514Y-69562671D01*
X68464097Y-69318702D01*
X67651000Y-68505605D01*
X66837903Y-69318702D01*
X66556117Y-69318702D01*
X66576812Y-69250482D01*
X66589072Y-69126000D01*
X66589072Y-69118785D01*
X66658298Y-69139097D01*
X67471395Y-68326000D01*
X67830605Y-68326000D01*
X68643702Y-69139097D01*
X68887671Y-69067514D01*
X69008571Y-68812004D01*
X69077300Y-68537816D01*
X69091217Y-68255488D01*
X69049787Y-67975870D01*
X68954603Y-67709708D01*
X68887671Y-67584486D01*
X68643702Y-67512903D01*
X67830605Y-68326000D01*
X67471395Y-68326000D01*
X66658298Y-67512903D01*
X66589072Y-67533215D01*
X66589072Y-67526000D01*
X66576812Y-67401518D01*
X66556118Y-67333298D01*
X66837903Y-67333298D01*
X67651000Y-68146395D01*
X68464097Y-67333298D01*
X68392514Y-67089329D01*
X68137004Y-66968429D01*
X67862816Y-66899700D01*
X67580488Y-66885783D01*
X67300870Y-66927213D01*
X67034708Y-67022397D01*
X66909486Y-67089329D01*
X66837903Y-67333298D01*
X66556118Y-67333298D01*
X66540502Y-67281820D01*
X66481537Y-67171506D01*
X66402185Y-67074815D01*
X66305494Y-66995463D01*
X66195180Y-66936498D01*
X66075482Y-66900188D01*
X65951000Y-66887928D01*
X64351000Y-66887928D01*
X64226518Y-66900188D01*
X64106820Y-66936498D01*
X63996506Y-66995463D01*
X63899815Y-67074815D01*
X63820463Y-67171506D01*
X63761498Y-67281820D01*
X63725188Y-67401518D01*
X63712928Y-67526000D01*
X51333000Y-67526000D01*
X51333000Y-65049000D01*
X80112001Y-65049000D01*
X80112001Y-65865346D01*
G37*
%TD.AperFunction*%
%TD*%
M02*
