%TF.GenerationSoftware,KiCad,Pcbnew,5.1.7-a382d34a8~87~ubuntu20.04.1*%
%TF.CreationDate,2020-11-05T15:25:51-03:00*%
%TF.ProjectId,Power_Suply,506f7765-725f-4537-9570-6c792e6b6963,1*%
%TF.SameCoordinates,Original*%
%TF.FileFunction,Copper,L1,Top*%
%TF.FilePolarity,Positive*%
%FSLAX46Y46*%
G04 Gerber Fmt 4.6, Leading zero omitted, Abs format (unit mm)*
G04 Created by KiCad (PCBNEW 5.1.7-a382d34a8~87~ubuntu20.04.1) date 2020-11-05 15:25:51*
%MOMM*%
%LPD*%
G01*
G04 APERTURE LIST*
%TA.AperFunction,ComponentPad*%
%ADD10R,2.000000X2.000000*%
%TD*%
%TA.AperFunction,ComponentPad*%
%ADD11C,2.000000*%
%TD*%
%TA.AperFunction,ComponentPad*%
%ADD12R,1.600000X1.600000*%
%TD*%
%TA.AperFunction,ComponentPad*%
%ADD13C,1.600000*%
%TD*%
%TA.AperFunction,ComponentPad*%
%ADD14O,2.200000X2.200000*%
%TD*%
%TA.AperFunction,ComponentPad*%
%ADD15R,2.200000X2.200000*%
%TD*%
%TA.AperFunction,ComponentPad*%
%ADD16R,1.800000X1.800000*%
%TD*%
%TA.AperFunction,ComponentPad*%
%ADD17C,1.800000*%
%TD*%
%TA.AperFunction,ComponentPad*%
%ADD18R,2.600000X2.600000*%
%TD*%
%TA.AperFunction,ComponentPad*%
%ADD19C,2.600000*%
%TD*%
%TA.AperFunction,ComponentPad*%
%ADD20R,1.700000X1.700000*%
%TD*%
%TA.AperFunction,ComponentPad*%
%ADD21O,1.700000X1.700000*%
%TD*%
%TA.AperFunction,ComponentPad*%
%ADD22O,1.600000X1.600000*%
%TD*%
%TA.AperFunction,ComponentPad*%
%ADD23R,1.900000X1.900000*%
%TD*%
%TA.AperFunction,ComponentPad*%
%ADD24C,1.900000*%
%TD*%
%TA.AperFunction,ComponentPad*%
%ADD25R,1.905000X2.000000*%
%TD*%
%TA.AperFunction,ComponentPad*%
%ADD26O,1.905000X2.000000*%
%TD*%
%TA.AperFunction,Conductor*%
%ADD27C,0.300000*%
%TD*%
%TA.AperFunction,Conductor*%
%ADD28C,0.250000*%
%TD*%
G04 APERTURE END LIST*
D10*
%TO.P,C1,1*%
%TO.N,/Vin*%
X53975000Y-70358000D03*
D11*
%TO.P,C1,2*%
%TO.N,/V-*%
X58975000Y-70358000D03*
%TD*%
D12*
%TO.P,C2,1*%
%TO.N,/Vout1*%
X65151000Y-68326000D03*
D13*
%TO.P,C2,2*%
%TO.N,/V-*%
X67651000Y-68326000D03*
%TD*%
D14*
%TO.P,D1,2*%
%TO.N,Net-(D1-Pad2)*%
X63754000Y-95250000D03*
D15*
%TO.P,D1,1*%
%TO.N,/Vin*%
X53594000Y-95250000D03*
%TD*%
D14*
%TO.P,D2,2*%
%TO.N,/V-*%
X63754000Y-87630000D03*
D15*
%TO.P,D2,1*%
%TO.N,Net-(D1-Pad2)*%
X53594000Y-87630000D03*
%TD*%
%TO.P,D3,1*%
%TO.N,/Vin*%
X53594000Y-99060000D03*
D14*
%TO.P,D3,2*%
%TO.N,Net-(D3-Pad2)*%
X63754000Y-99060000D03*
%TD*%
D15*
%TO.P,D4,1*%
%TO.N,Net-(D3-Pad2)*%
X53594000Y-91440000D03*
D14*
%TO.P,D4,2*%
%TO.N,/V-*%
X63754000Y-91440000D03*
%TD*%
D16*
%TO.P,D5,1*%
%TO.N,/V-*%
X69469000Y-99441000D03*
D17*
%TO.P,D5,2*%
%TO.N,Net-(D5-Pad2)*%
X72009000Y-99441000D03*
%TD*%
%TO.P,D6,2*%
%TO.N,Net-(D6-Pad2)*%
X72009000Y-77851000D03*
D16*
%TO.P,D6,1*%
%TO.N,/V-*%
X69469000Y-77851000D03*
%TD*%
D18*
%TO.P,J1,1*%
%TO.N,Net-(D1-Pad2)*%
X65024000Y-110236000D03*
D19*
%TO.P,J1,2*%
%TO.N,Net-(D3-Pad2)*%
X59024000Y-110236000D03*
%TO.P,J1,3*%
%TO.N,Net-(J1-Pad3)*%
X62024000Y-114936000D03*
%TD*%
D20*
%TO.P,J2,1*%
%TO.N,/Vout2*%
X76327000Y-66675000D03*
D21*
%TO.P,J2,2*%
X78867000Y-66675000D03*
%TO.P,J2,3*%
%TO.N,/V-*%
X76327000Y-69215000D03*
%TO.P,J2,4*%
X78867000Y-69215000D03*
%TD*%
%TO.P,J3,4*%
%TO.N,/V-*%
X78867000Y-114173000D03*
%TO.P,J3,3*%
X76327000Y-114173000D03*
%TO.P,J3,2*%
%TO.N,/Vout2*%
X78867000Y-111633000D03*
D20*
%TO.P,J3,1*%
X76327000Y-111633000D03*
%TD*%
D13*
%TO.P,R1,1*%
%TO.N,/Vout1*%
X70866000Y-113665000D03*
D22*
%TO.P,R1,2*%
%TO.N,Net-(D5-Pad2)*%
X70866000Y-106045000D03*
%TD*%
%TO.P,R2,2*%
%TO.N,Net-(D6-Pad2)*%
X64516000Y-76200000D03*
D13*
%TO.P,R2,1*%
%TO.N,/Vout2*%
X64516000Y-83820000D03*
%TD*%
D23*
%TO.P,SW1,1*%
%TO.N,/Vout2*%
X70485000Y-91026000D03*
D24*
%TO.P,SW1,2*%
%TO.N,/Vout1*%
X70485000Y-88526000D03*
%TO.P,SW1,3*%
%TO.N,Net-(SW1-Pad3)*%
X70485000Y-86026000D03*
%TD*%
D25*
%TO.P,U1,1*%
%TO.N,/Vin*%
X54102000Y-80645000D03*
D26*
%TO.P,U1,2*%
%TO.N,/V-*%
X56642000Y-80645000D03*
%TO.P,U1,3*%
%TO.N,/Vout1*%
X59182000Y-80645000D03*
%TD*%
D27*
%TO.N,/Vin*%
X53975000Y-80518000D02*
X54102000Y-80645000D01*
X53975000Y-70358000D02*
X53975000Y-80518000D01*
X53594000Y-99060000D02*
X53594000Y-95250000D01*
X54102000Y-80645000D02*
X54102000Y-84201000D01*
X54102000Y-84201000D02*
X55753000Y-85852000D01*
X55753000Y-93091000D02*
X53594000Y-95250000D01*
X55753000Y-85852000D02*
X55753000Y-93091000D01*
%TO.N,/Vout1*%
X70866000Y-113665000D02*
X70866000Y-113157000D01*
X70866000Y-113665000D02*
X70866000Y-110490000D01*
X70866000Y-110490000D02*
X67437000Y-107061000D01*
X67437000Y-107061000D02*
X67437000Y-90170000D01*
X69081000Y-88526000D02*
X70485000Y-88526000D01*
X67437000Y-90170000D02*
X69081000Y-88526000D01*
X59182000Y-80645000D02*
X59182000Y-81153000D01*
X65151000Y-68326000D02*
X65151000Y-70485000D01*
X59182000Y-76454000D02*
X59182000Y-80645000D01*
X65151000Y-70485000D02*
X59182000Y-76454000D01*
X59182000Y-80645000D02*
X59182000Y-82423000D01*
X59182000Y-82423000D02*
X62357000Y-85598000D01*
X67557000Y-85598000D02*
X70485000Y-88526000D01*
X62357000Y-85598000D02*
X67557000Y-85598000D01*
%TO.N,Net-(D1-Pad2)*%
X65024000Y-110236000D02*
X65024000Y-102235000D01*
X65024000Y-102235000D02*
X65913000Y-101346000D01*
X65913000Y-97409000D02*
X63754000Y-95250000D01*
X65913000Y-101346000D02*
X65913000Y-97409000D01*
X63754000Y-95250000D02*
X61976000Y-95250000D01*
X61976000Y-95250000D02*
X54737000Y-102489000D01*
X54737000Y-102489000D02*
X52578000Y-102489000D01*
X52578000Y-102489000D02*
X51435000Y-101346000D01*
X51435000Y-89789000D02*
X53594000Y-87630000D01*
X51435000Y-101346000D02*
X51435000Y-89789000D01*
D28*
%TO.N,Net-(D5-Pad2)*%
X70866000Y-100584000D02*
X72009000Y-99441000D01*
X70866000Y-106045000D02*
X70866000Y-100584000D01*
D27*
%TO.N,/Vout2*%
X78867000Y-111633000D02*
X76327000Y-111633000D01*
X76327000Y-111633000D02*
X75565000Y-111633000D01*
X75565000Y-111633000D02*
X73660000Y-109728000D01*
X73660000Y-94201000D02*
X70485000Y-91026000D01*
X73660000Y-109728000D02*
X73660000Y-94201000D01*
X78867000Y-66675000D02*
X76327000Y-66675000D01*
X64516000Y-83820000D02*
X71628000Y-83820000D01*
X71628000Y-83820000D02*
X72644000Y-84836000D01*
X72644000Y-88867000D02*
X70485000Y-91026000D01*
X72644000Y-84836000D02*
X72644000Y-88867000D01*
X76327000Y-66675000D02*
X74676000Y-66675000D01*
X74676000Y-66675000D02*
X73914000Y-67437000D01*
X73914000Y-87597000D02*
X70485000Y-91026000D01*
X73914000Y-67437000D02*
X73914000Y-87597000D01*
D28*
%TO.N,Net-(D6-Pad2)*%
X70358000Y-76200000D02*
X72009000Y-77851000D01*
X64516000Y-76200000D02*
X70358000Y-76200000D01*
%TD*%
M02*
